<svg xmlns="http://www.w3.org/2000/svg" xmlns:xlink="http://www.w3.org/1999/xlink" viewBox="0 0 290.2 383.3"><defs><style>.cls-1{fill:none;}.cls-2{clip-path:url(#clip-path);}.cls-3{fill:#b68969;}.cls-4{fill:#3f6dd9;}.cls-5{fill:#ffdc80;}.cls-6{fill:#c2926c;}.cls-7{fill:#d1aa66;}.cls-8{fill:#262a58;}.cls-9{fill:#fdda80;}.cls-10{fill:#855839;}.cls-11{fill:#f0cc78;}</style><clipPath id="clip-path"><rect class="cls-1" width="290.2" height="383.3"/></clipPath></defs><g id="PERSONAJES"><g class="cls-2"><path class="cls-3" d="M285.46,423.51c-27.83-4.5-23.7,9.31-31.7-7.83-5-7.9-11.77-14.78-14.48-24.09-1.79-3.82-5-7.51-9.77-6.48-2.52.47-5.34.87-7.4-1.1-7.5-5.21-23.53,3.13-33.29,1.88.92-5.31,16.11-10.83,20.38-16.06,8.55-5.93,16.24-13.43,23.5-21,3.42-4.86,34.33-30.33,29.86-33a58,58,0,0,1-20-15.41c-3.5-4.93-9.63-9.05-11.18-14.93-.95-21.66.08-43.4.36-65.08a381.08,381.08,0,0,1,5.12-46.54c.95-5.35.81-5.29,6.1-6.26,18,2.93,38.68-62.91,16.76-51-4.31,2.25-3.06,4-4.73-1.89-3.07-21.68,2.14-49-17.17-64.32-26.26-18.17-74.3-19.07-96.44,5.93a84.5,84.5,0,0,0-8.58,12.5c1.43,1.59,1,3.58.1,5.36-3.28,11.22-10.36,21.46-10.31,33.44-.09,7.06.43,14.22-1.88,21.11-9.35,21.53-5.09,44.5-4.87,67.24.66,7.87-1.75,20.42,8.08,23.25,8.33,4.35,19.62,3.91,23.75,13.6,4.66,10.72,11,21.52,11.93,33.36-1.76,7.18-1,20-7,24.63-12.33,5.61-24.59,11.37-36.55,17.73a7.42,7.42,0,0,1-5.58.62c-2.23.32-2.88,3-3.6,4.72-3.94,11.71-9.58,22.91-12.52,34.91-1.64,16.2-6.14,37.17,8.19,48.85,9.11,7.26,20,11.25,31.73,9.65,12.92-2.5,28.82-4.84,37.92-15.22,2.67-4.36,7.06-2.28,3.56,2-6.58,12.47-14.08,24.42-21.13,36.62-2.84,4.18-5.44,8.78-9.3,12.06-2.21,1.45-5,2.71-6.16,5.22-.84,3.7,3.55,2.6,5.78,2.35,16.63-.34,33.39-1.61,50.1-1.57,24.86-.53,49.74.58,74.59.16,12.54,1.13,14.17-14.82,20-22.93C289.25,423.44,287.06,423.63,285.46,423.51Z"/><path class="cls-4" d="M289.61,426c-7.53-3.27-19.8-3.08-27.86-.48-6.34,1.9-5.74-5.28-8.42-8.65-4.71-7.8-11.6-14.29-14.15-23.26-4.94-14-12.3-2.33-19.06-10-.76-1.07-2.1-1.15-3.52-.74-7.18,2-14.71,2.07-21.93,3.95-1.88.48-4-.65-5.93.56-7.31-2.45,7.9-8,9.1-11.11,2.55-1.54,6.49-.59,7.39-4.54,1.77-4.23,9.45-4.44,12.93-9.74,17.07-17.39,34.92-33.9,51.38-51.76,7.64,1.39,11.57,8.87,19,10.6,15.34,3.62,29.05,18.41,28.22,34.7-.48,24-6.33,47.64-14.34,70.06C299.72,430.37,295.82,424.44,289.61,426Z"/><path class="cls-5" d="M19.25,400.25c-5.92.12-7.24,7.66-13.17,7.8-6.52,1.5-12,6.22-19,5.26a103.58,103.58,0,0,0-14.93.84c-5-1-7.78,3.39-8.23,7.6,2.9.6,6.12.63,8.87,1.85,3.45,1.43,2.6,6.86-1.24,6.86-3.31.71-6.91-1.62-9.59.83a22,22,0,0,0-7.05,8.8c.16,2.3-2.56,3.19-4.47,2.93-3.53-.12,2.27-5.7.92-8.24,2.66-7.12,6.87-14.51,10-21.69,1.16-2.43,2.63-4.49,5.79-4.24,4-1.59.71-7.75,11.31-9.32,5-1.84,11.57,1.43,15.35-2.72,1.13-1.7,3.09-2.17,5.19-1.6,2.77.21,6.5,3,8.51.1,4.41-5.87,8.88-11.7,13.35-17.52,2.65-4.1,7.13-7,8-12.07,2.69-12.32,8.82-23.34,13.25-35,.82-3.49,4-3.06,6.72-4.16a321.78,321.78,0,0,1,62.67-22.42c-17.9,12.14-41.89,21.09-61.87,32a15.44,15.44,0,0,0-8,8.29C36.63,355.91,31.32,367.19,28,379.34c-2.08,8.12-10.16,11.43-16.29,16C13.12,398.25,20.31,396.19,19.25,400.25Z"/><path class="cls-5" d="M132.32,68.58c9.87-2.94-11.54,31.26-8.49,38.17.59,15-3.62,28.66-8.08,42.77.48,21.89.47,44.26,2.62,66.23-5.56-2.34-3.7-29.5-6-36.95-3-26.68-6.11-31.32,7-56.58,1.74-7.31-.4-15.29,1.2-22.69C122.64,88.5,128.79,78.85,132.32,68.58Z"/><path class="cls-5" d="M145.35,229.7c4.72.11,12.35,24.73,14.3,29.9,2.38,9.9-1.61,19.16-3.23,28.73a3.91,3.91,0,0,1-2.58,3c-13.15,6.16-26.58,11.81-39.25,18.95-1.67.93-2.88.76-4-.74-1.54-3,4.23-4.39,6.23-5.46,10.91-2.93,20.37-11,31.35-14.5a6,6,0,0,0,4.17-5.36C156.59,252.3,157.14,258.89,145.35,229.7Z"/><path class="cls-6" d="M116.85,304.12a19.57,19.57,0,0,1-6.19,3.95c-1.39-1.7.72-2.47.76-4A19.37,19.37,0,0,1,116.85,304.12Z"/><path class="cls-4" d="M111.35,304.78c-.21,1-.51,2.39-.67,3.24-5.56,11-8.69,23.33-13.76,34.67-3.4,14.48-5.93,31.88,0,45.85,15.13,26.15,50,18.46,71.95,6.32,0,4.61-3.22,7.44-5.82,10.62-5.35,3.37-7.67,9-10.75,14.14a154.23,154.23,0,0,0-15.16,25.24c-16.68,12.9-74,6.25-95.16,2.32-2.9-.5-1.78-2.46-2-4.57-1.46-6.83.76-15.54-5.27-20.3-3.25-4.05-11.87-5.44-11.5-11.38.26-3.57.47-10-3.92-10.68-.66-3.36-6.78-.82-9.55-5.06a2.32,2.32,0,0,1,1.64-1.68c9.08-3.14,16.48-11.05,17.59-20.63,1.71-6.54,4.46-12.63,7.24-18.72,3.53-5.44,3.88-13.64,9.58-17.2C67.73,326.55,89.08,314.33,111.35,304.78Z"/><path class="cls-6" d="M109.88,309.58a1.55,1.55,0,0,1,.8-1.56l-.06,1.56Z"/><polygon class="cls-7" points="139.64 185.27 139.57 185.05 139.77 185.08 139.64 185.27"/><path class="cls-8" d="M238.61,101.87c-3.11-2.85-8-4-8.08-8.62-1-11,2-23.43-2.3-33.57-16.45-22.85-48.18-19-71.39-10-7.78,3.8-17,7.74-21,16-2,3.27-2.74,3.42-5.43.71-3.57-4.23-16.18-18.25-11.91-23.07,4-2.4,5.6,3.61,10.94,2.29-23.36-32.88-13.93-41.92,21.22-23.85,2.94-4.62,5.83-9.54,12.55-7.32,1.79-5,1.9-11.41,8.55-11.83C189.47.43,201.51,13.93,214,24c2.11-4.33,3.6-10.55,9.54-7.78,19.61,5.15,38,37.73,34.2,56.87-2.09,2-1.65,4.48-1.48,6.88,1.14,12.11,2.33,24.25.33,36.33-1.81,4.68-7.33,7.12-10.45,10.93a5,5,0,0,1-5.27,1.34C236.17,127.17,239.59,107.22,238.61,101.87Z"/><path class="cls-8" d="M181.74,395.1a5,5,0,0,1,6.14-2.41c13.2,1.68,26.1-5,39.19-6.66.49-14.6,14.43-35.46,25.24-37.12-2.75,6.17-8.37,10.21-12.24,15.66l.56.58c7.58-7.24,16.05-14.08,25.63-18.34l.55.92c-15.53,9.19-30.57,20.69-37.83,37.66.36.18.71.54,1,.48,7.28-1.59,8.54,8.12,11.79,12.64,3.83,9.91,12.93,16.12,15.44,26.89,11.18-1.7,22.13-2.8,33.16-.74L279,445.49a60,60,0,0,0-21.53-15.4c-1.26,4-2.41,7.7-3.56,11.39l-.82-.16c.82-8,5.23-16.16-.81-23.42A222.14,222.14,0,0,1,235,389.57c-2.47-5.16-22.2,2.36-28.07,2.31-6.2,1.2-12,4.45-18.48,2.54C186.43,393.93,184.1,394.81,181.74,395.1Z"/><path class="cls-8" d="M119.91,304.67c-4.36,4.66-10.89,6-12.92,12.32-6.52,15.57-11.26,31.61-12.49,48.51-2.19,44.67,33.45,43.66,67.06,32.31-45.76,22.35-80.62-.07-65.65-51.8,3.14-12.95,7-25.65,13.66-37.31C112.61,303.38,113,303.21,119.91,304.67Z"/><path class="cls-8" d="M190.72,381.46c26.8-17.73,47.71-40.78,70.61-63.25l-7.92-7.71h16.25c-23.93,25.89-48,53.17-78.33,71.67Z"/><path class="cls-8" d="M153.51,348.9c3.37-5.56,9.82-4.26,11.8-10.2,10.67-22.08,18.66-45.15,26-68.43-4,25.78-16,48.3-25.73,72.42l8.65-1c-2.16,2.51-4.7,1.68-6.64,2.52A57.37,57.37,0,0,1,153.51,348.9Z"/><path class="cls-8" d="M93.06,331.28c-4.58,15.2-6.93,30.83-9.69,46.55-.08-15.59,3.7-31.83,8.62-46.72Z"/><path class="cls-8" d="M262.85,134.47c-7-2.29-12,9.25-14.28,14.76,2.27-.57,3.41-3.67,6.12-2.23-1.45,1.28-2.78,2.36-4,3.56s-1.15,3.63-4.08,3.27C243.8,148.57,260.29,124.32,262.85,134.47Z"/><path class="cls-8" d="M192.1,218.18c9.33-5.76,17.26-13.25,26-21.06C215.66,203.14,198.41,216.91,192.1,218.18Z"/><path class="cls-8" d="M143.74,224.94c10.72,1.73,20.58,1.11,30.44-.09C168.8,228.33,149.4,228.57,143.74,224.94Z"/><path class="cls-8" d="M153.4,287.57c-1.11,9.54-1.84,18.43-5.28,26.64-.79.07-.84.25-1-.27q2.39-12.66,4.8-25.33C152,288.45,152.33,288.34,153.4,287.57Z"/><path class="cls-8" d="M26.89,371.85a104.59,104.59,0,0,1-2.81,17.41C23.05,386.26,24.84,375.15,26.89,371.85Z"/><path class="cls-8" d="M144.64,346.06l-8.45-10.47C140,337,144.39,342.21,144.64,346.06Z"/><path class="cls-8" d="M138.16,442.86q12.41-19.78,25.28-39.3c4-5,6.78-12,12.9-14.68,8.09-1,16.47-.83,24.6-2.09,7-.39,13.7-3.57,21-1.88-2.6-2.59-6.14-1.7-9.37-1.49-12.25,2.12-24.5,2.75-36.8,4.08a7.82,7.82,0,0,0-4.77,2.95c-12.27,17-24,34.39-34.77,52.41Z"/><path class="cls-9" d="M148.94,116.23c-1.72,3.69-6.46,6.86-6,11.26.57,5-3.72,8.62-3,13.7a2,2,0,0,1-.92,2c-.84.42-1.49-.14-2.06-.65-3.61-2.58-3.69-6.74-.68-10.46,2.57-3.36,3.06-7.74,5.42-11.14C142.81,119.3,151.59,109.13,148.94,116.23Z"/><path class="cls-8" d="M142.54,152.45c-3.53.92-6.56,1.54-8.8-1.3-1.88-2.25-4-4.8,0-6.53-2.78-7,2.51-12.43,4.66-18.7,2-5.74,4.9-10.51,10.83-12.81,5-2.6,4.74-9.48,7.47-14-1.08,5.4-1.21,13.12-7.07,15.57-9.31,3.46-9.1,14.12-14.08,21.27C132.83,142,137,149.43,142.54,152.45Z"/><path class="cls-8" d="M169.32,146.49c-1.17,4.59-7.25,3.67-9.65,7.41-.57.89-3.85.2-4.54-.81C153.14,148.89,166.9,143.05,169.32,146.49Z"/><path class="cls-8" d="M173.9,149.86c2-3.5,3.71-6.92,1.65-11.23C180.18,140.8,178.09,148.28,173.9,149.86Z"/><path class="cls-8" d="M130.79,151.52c-5.18-2-6.63-5.62-4.37-10.4C126.5,145.84,127.41,148,130.79,151.52Z"/><path class="cls-8" d="M214.71,103.3c-9.47-8.26-20.2-11.25-32.84-7.93-2.13-4.32-.6-11.55,5.11-12.17,7.1-.71,15.57-1.7,21.56,2.74C212.35,91.2,223,96.73,214.71,103.3Z"/><path class="cls-8" d="M121.11,98.9c1.79-14.81,18.78-19.54,31.61-17.21C150.19,100.1,144.86,84.77,121.11,98.9Z"/><path class="cls-10" d="M158.29,194.52c-10.94.33-41.69-3.14-21.89-17.15,1-.71,2-.11,2.89.41,11.41,6,25.65,5.21,38,2.85,5.71.09,8.34-7.63,13.33-6.58,6,2.76-7,9-9,11.4C174.77,190.26,165.7,193.17,158.29,194.52Z"/><path class="cls-11" d="M136.26,182.43c2.12.71.24,3.48-.81,4.41C132.54,187.56,134,182.26,136.26,182.43Z"/><path class="cls-8" d="M176.09,187.8c-9,8.75-34.73,9.33-46.7,0-.16-4.07,1.58-7.39,4.62-10.42a13,13,0,0,1-5-6.21l.72-.46c16.49,15.4,42.33,14,60.86,2.35,1.81.84,2.55,2.11,1.63,4.56l-2-2.26a57.09,57.09,0,0,1-54,2.56c-8,6.52-6.22,11,2.56,13C151.59,195.32,164.17,192.12,176.09,187.8Z"/><path class="cls-8" d="M190.3,112.54a35.16,35.16,0,0,0-4.52,4.61c1-10.48,21-11.36,18.34.7C202.54,112.34,195.11,109,190.3,112.54Z"/><path class="cls-8" d="M134.62,106.53c-4.2-2.16-6.38,3.31-8.6,5.91,1.08-11.32,13.22-9.75,14.44.37C139.5,114.34,137.93,106.94,134.62,106.53Z"/><path class="cls-8" d="M192,116.19c2.26-10.72,15-5.09,11.87,4.39C201.19,128.52,189.89,124.4,192,116.19Z"/><path class="cls-5" d="M196.29,114.49a1.2,1.2,0,0,1-2.39,0A1.2,1.2,0,0,1,196.29,114.49Z"/><path class="cls-8" d="M133.59,106.75c5.61-1.78,7.81,7.71,4.67,11C131.1,123.56,126.58,109.47,133.59,106.75Z"/><path class="cls-5" d="M134.27,110.31a1.2,1.2,0,0,1-2.39,0A1.2,1.2,0,0,1,134.27,110.31Z"/></g></g></svg>