<svg xmlns="http://www.w3.org/2000/svg" xmlns:xlink="http://www.w3.org/1999/xlink" viewBox="0 0 287.49 383.3"><defs><style>.cls-1{fill:none;}.cls-2{clip-path:url(#clip-path);}.cls-3{fill:#18c385;}.cls-4{fill:#c4906c;}.cls-5{fill:#ffdc80;}.cls-6{fill:#fedc81;}.cls-7{fill:#c5926c;}.cls-8{fill:#262a58;}.cls-9{fill:#fff;}.cls-10{fill:#fedb80;}.cls-11{fill:#f7d57f;}.cls-12{fill:#b26f40;}.cls-13{fill:#e6bf6f;}</style><clipPath id="clip-path"><rect class="cls-1" width="287.49" height="383.3"/></clipPath></defs><g id="PERSONAJES"><g class="cls-2"><path class="cls-3" d="M267.78,429.64c-47.89,3.51-96,.19-143.95-.36-10,.93-10.72-7.73-14.76-14.46-3.88-7.48-7.73-15-13.25-21.48-2.64-3.39,2.54-6.86,4.43-9.26,11.68-15.46-6.77-52.61-24.11-58.63,8.46-20.1,28.38-21,46.57-25.81,5.17-2.62,7.72-8.94,14.3-9.1-.88,4.34.76,7.36,4.52,9.65,20.72,13.65,62.2,20.49,77-3.55.53-1.88,4.23.14,4.94,1.52,5.5,6.79,13,9.94,21.24,11.93,22.34,2.32,37,23,35.74,44.71-2.29,3-4.7,5.83-8.72,6.5-8.21-7.49-6.57-21-13.58-29.24C267.14,363.75,279,394.65,280,427.9A104.28,104.28,0,0,1,267.78,429.64Z"/><path class="cls-4" d="M215.44,301.77c-15.24,10.93-34.95,14.78-52.9,8.82-7.07-2-32.45-9.82-25.53-20,10-21.11,4-47-11.53-63.83C116,212.63,95,221.42,85.77,207.46c-8-7.66-17.5-42.7,3.22-34.6C66.07,134.3,79.55,79,123.73,62.83c18.22-7,39.42-11.39,57.26-1.15,26.71,13.41,38.82,41.15,43.56,69.06,7.79,38.59,2.48,94.09-28.26,121.39-.94,12.5-.91,25.46,5.74,36.77,2.8,5.4,7.56,8.73,12.86,11.32C215.25,300.64,216,301.23,215.44,301.77Z"/><path class="cls-4" d="M-4.6,429.79a359.64,359.64,0,0,1-42.16-1.67c28.63-24,56.48-49.62,84.93-74.13,11.46-11.16,26.12-18.13,38-28.54,17.47,3.61,25.91,27.59,28.34,43.42,2.78,9.14-3.18,16.32-9.14,22.25-17,8.14-35.62,14.12-52.59,22.83C27.62,421.61,13.23,431.53-4.6,429.79Z"/><path class="cls-5" d="M279.92,355c-5.82-57.55-39.43-30.8-59-58.9,5.57-.94,10,8.29,17,9.21,6.22,2.19,12.49,3.92,19.15,2.26,1.83-.46,3.09.84,4.62,1.28C297.07,320,279,390.31,281.41,418.6c-.63,3.14,1.52,6.57,0,9.45-5,2.21-3-2.45-3.1-5.24-.91-20.71-6-40.69-12.38-60.28-.53-6.15-11.49-30.34-8.16-32.88,3.6.62,8.11,18.47,9.64,22.62,1.08,5.1,5.44,8.06,7.12,12.62,1.82,5.92,4.71,11.48,5.59,17.07A147.79,147.79,0,0,1,279.92,355Z"/><path class="cls-6" d="M201.8,248.11c17.08-28.24,26.22-55.54,25-88.89a124.37,124.37,0,0,0-4.27-32.35c-.94-5.25-4.69-11.18-2.39-16.35C235.13,154.6,236,212.82,201.8,248.11Z"/><path class="cls-5" d="M215.68,301.35c-16.49-5-20.63-24.49-21.21-39.69.09-.86-.22-1.9.4-2.55,1.67-1.75,1.64-4.09,2.4-6.15,1.08,15.63,2.71,39.14,21.43,43a3.65,3.65,0,0,0,1.83,1.68C220.19,299.58,217.6,301.18,215.68,301.35Z"/><path class="cls-7" d="M279.92,355c1.37,9.6,1,19.08.16,28.79l-7.8-22.65Z"/><path class="cls-8" d="M139.85,248.3c-7.53,5.21-16.71,10.6-9.27,20.5-1.3,1.28-2.23.34-3.12-.26-5.57-3.82-7.07-9.33-6-15.61,1.68-10.58,13.27-17.94,1.7-28.18-25.8,29.13-10.56,23.61-12.13,53.87-.2,1.73-.45,1.7-2.52,2.68-5.89-19-15.71-6.54-18.52-39.39-18.08,11-41.21,11.92-57.27,26.57-15.84,12.34-24,46.09,1.33,51.94C17.13,325.53,3.23,305.6,4.11,290.07,2.35,261.67,23,242.43,39.77,222.53c12.14-21.66-30.89-19.71-29.61-53.2-.76-20.92,7.68-43,23.86-56.61C46.34,104,51,96.58,44.65,81.86A58.81,58.81,0,0,1,59.59,12.33c30-22.92,75.07-4.41,93.87,24.73,3.18,5.58,7,10.83,8.74,17.12.41,1.46,1.47,1.81,2.81,2,31.1,6.58,54.54,36.39,58.88,67.15-10.35-5.63-14.18-14.87-17.61-24.8-29.27,16.78-56,22.2-89.42,16.13-10.3,47.39-13.43,33.37,8.44,78.38,4.87,10,2.42,20.21,1.31,30.56,14,19.88,40.32,45.78,65.91,29.69,2.94-1.9,9.09-5.43,9.28-5.23l-4.64,4.2c1.42,13.13-.23,10.74-10.45,18.29C168.07,278.22,151,261.38,139.85,248.3ZM94.41,213.7c3.28-10.24,2.49-36.6-8.67-41.21-5.19-.72-8.21,1.71-8.57,7C76.67,193.19,83.31,205.74,94.41,213.7Z"/><path class="cls-8" d="M229.86,175.32c3.36,11.55,5.85,23.46,12.87,33.54,11.36,17.19,10.82,45.17-7.72,56.78-1.51-.6-.45-2.27.15-3.17,9.27-16.17-11.28-23.91-17.47-36.53C224.15,210.2,228.61,195.83,229.86,175.32Z"/><path class="cls-9" d="M246.21,344.18c14.66,20.15,6.89,50.48-12.9,64.31C218,386.05,226.58,363.22,246.21,344.18Z"/><path class="cls-8" d="M78.87,326.2c-.68-.44-1.37-1-2.05-1.37,21.88,6.33,41.4,50.46,19.75,66.38,11,9.61,21.83,17.71,31.43,28.41-6.89-3.35-11.44-9.69-17.72-14,7.18,10.54,15.51,20.21,22.62,30.76l-.59.53c-13.27-14.6-23.13-32.38-38.2-45.35C116.67,373.83,98.59,338.82,78.87,326.2Z"/><path class="cls-8" d="M132.27,292.13c2-.87,2.25-.71,4.52-.89-1.64,2.91.11,4.4,1.82,5.9,22.22,19.22,57,20.24,80.17,2l-1.58-2.48c1.69-1,2.91-.45,4.82-.56C201.58,322.17,152,318.42,132.27,292.13Z"/><path class="cls-8" d="M259.21,329.28q3.94,8.58,7.9,17.17l.59-.2L266.26,340c4.18,5.95,3.95,13.23,6.3,20.22,4.23-3.56,6.86-7.69,9.78-11.56l.73.36c-1.23,4.36-5,7.43-7.8,10.84-4.77,6.37,8.47,26.42,5.71,35-5.21-22.54-13.51-44-22.62-65.2Z"/><path class="cls-8" d="M225.49,307.35c-6.65,12.39-21.58,17.5-34.56,20.21-20.8,4.27-41.33-5.89-56.46-19.49l.59-.68C161.6,330.78,200.29,335.09,225.49,307.35Z"/><path class="cls-10" d="M77.92,161.18c-23-45.55,17.5-100.93,65.66-104.63l.13.78C98.57,66.4,60.66,115.06,78.62,160.82Z"/><path class="cls-8" d="M128.17,147.46c-.79-13.67,36.41-33.27,33.86-11.57-.41,1.72-1.29,2.7-3.09,2.66C147.1,136.82,137.27,139.66,128.17,147.46Z"/><path class="cls-8" d="M220.57,138.08c-5.68-7.13-14-3.67-21-1.5-10.09,2.61-7-15.4,2.43-13.87C210.71,122.49,220.08,129,220.57,138.08Z"/><path class="cls-8" d="M142.68,159.59c1.3-13,19.47-15.76,18.82-1C157.28,144.87,147.62,148.73,142.68,159.59Z"/><path class="cls-8" d="M200.07,153.26c2.7-11.24,14.42-5.1,15.67,3.52l-.8.37C211.77,149.48,205.73,143.73,200.07,153.26Z"/><path class="cls-10" d="M202.85,186.61c.79,2.38-4.47,13.14-5,6.42,5.61-10.91-6.38-20.53-8.57-31.05-.33-2.75-10.23-20.89-3.11-17.63,3.35,7.49,5.8,15.53,9,23.15C197.42,174,202.19,179.67,202.85,186.61Z"/><path class="cls-11" d="M174.75,192.51c-.18,2.29-3.54,1.85-3.46-.23S174.77,190.5,174.75,192.51Z"/><path class="cls-8" d="M171.6,190.23c-.8,3.75-3.19,8.35,1.2,10.55,5.18,3.72,7.9-12.05,11.87.38-.59,1.82-10.34,1.52-11.65,1.56C167.85,201.55,166.27,191.7,171.6,190.23Z"/><path class="cls-8" d="M198.66,200.6c.79-2.21,2.43-3.5,4.85-4.34l2.14,3c2.52-1,2.22-3.76,3.68-6,1.47,2.36-1.22,7.67-3.78,7.93C203.19,200.19,200.56,202.43,198.66,200.6Z"/><path class="cls-8" d="M194.61,166a60.34,60.34,0,0,1-7.7-20.34A142,142,0,0,1,194.61,166Z"/><path class="cls-8" d="M200.76,179.72c5,3.67,4,11.33-2,16.11C202.19,190.42,202.85,185.66,200.76,179.72Z"/><path class="cls-8" d="M159,159.86c.89,11.95-14.14,12.48-13.45.5C145.11,149.84,159.44,148.45,159,159.86Z"/><path class="cls-10" d="M157.16,156.33a1.58,1.58,0,0,1-3.16,0A1.58,1.58,0,0,1,157.16,156.33Z"/><path class="cls-8" d="M210.94,152.81c2.88,3.49,3.94,9.22.25,12.55C197.25,175.3,197.63,140.32,210.94,152.81Z"/><path class="cls-10" d="M210.26,154.31a1.59,1.59,0,0,1-3.17,0A1.59,1.59,0,0,1,210.26,154.31Z"/><path class="cls-12" d="M165.62,218c-1.44,0-8-5.12-7.47-3.58,7.27,15.6,28.66,27.37,42.94,13.11,2-.94,7.64-10.13,3.73-9.61A76.06,76.06,0,0,1,165.62,218Z"/><path class="cls-8" d="M205.13,216.58c1.29,2.79-8.31,2.68-10.24,3-12.76,1-27,.93-37.41-7.36.17-.39.62-.71.88-1.08a6,6,0,0,0-3.33,2.36,2.72,2.72,0,0,0,2.18.17C169.28,228.85,217.48,218.46,205.13,216.58Z"/><path class="cls-8" d="M157.82,213.06c5.89,10.08,15.19,20,27.68,19.65,8.37-.57,19.49-5.47,20.29-14.89h.79c.08,10.3-12,16.27-21.05,16.72-13.09.3-23-10.17-28.4-21.09Z"/><path class="cls-13" d="M187.6,227.33c-.2-.8.08-2.06-.54-2.62C185.89,225.8,187.64,232,187.6,227.33Z"/><path class="cls-13" d="M192.6,225.62c.12.64.19,2.77,1.17,2.24C195.18,226.3,192.56,221.14,192.6,225.62Z"/></g></g></svg>