<?xml version="1.0" encoding="utf-8"?>
<!-- Generator: Adobe Illustrator 25.2.0, SVG Export Plug-In . SVG Version: 6.00 Build 0)  -->
<svg version="1.1" id="Capa_1" xmlns="http://www.w3.org/2000/svg" xmlns:xlink="http://www.w3.org/1999/xlink" x="0px" y="0px"
	 viewBox="0 0 290.2 383.3" style="enable-background:new 0 0 290.2 383.3;" xml:space="preserve">
<style type="text/css">
	.st0{clip-path:url(#SVGID_2_);}
	.st1{fill:#B68969;}
	.st2{fill:#3F6DD9;}
	.st3{fill:#FFDC80;}
	.st4{fill:#C2926C;}
	.st5{fill:#D1AA66;}
	.st6{fill:#262A58;}
	.st7{fill:#FDDA80;}
	.st8{fill:#855839;}
	.st9{fill:#94233F;}
	.st10{fill:#FFFFFF;}
</style>
<g id="PERSONAJES">
	<g>
		<defs>
			<rect id="SVGID_1_" width="290.2" height="383.3"/>
		</defs>
		<clipPath id="SVGID_2_">
			<use xlink:href="#SVGID_1_"  style="overflow:visible;"/>
		</clipPath>
		<g class="st0">
			<path class="st1" d="M285.5,423.5c-27.8-4.5-23.7,9.3-31.7-7.8c-5-7.9-11.8-14.8-14.5-24.1c-1.8-3.8-5-7.5-9.8-6.5
				c-2.5,0.5-5.3,0.9-7.4-1.1c-7.5-5.2-23.5,3.1-33.3,1.9c0.9-5.3,16.1-10.8,20.4-16.1c8.6-5.9,16.2-13.4,23.5-21
				c3.4-4.9,34.3-30.3,29.9-33c-7.7-3.6-14.5-8.9-20-15.4c-3.5-4.9-9.6-9-11.2-14.9c-0.9-21.7,0.1-43.4,0.4-65.1
				c0.8-15.6,2.5-31.1,5.1-46.5c0.9-5.4,0.8-5.3,6.1-6.3c18,2.9,38.7-62.9,16.8-51c-4.3,2.3-3.1,4-4.7-1.9
				c-3.1-21.7,2.1-49-17.2-64.3c-26.3-18.2-74.3-19.1-96.4,5.9c-3.2,3.9-6.1,8.1-8.6,12.5c1.4,1.6,1,3.6,0.1,5.4
				c-3.3,11.2-10.4,21.5-10.3,33.4c-0.1,7.1,0.4,14.2-1.9,21.1c-9.3,21.5-5.1,44.5-4.9,67.2c0.7,7.9-1.8,20.4,8.1,23.3
				c8.3,4.4,19.6,3.9,23.8,13.6c4.7,10.7,11,21.5,11.9,33.4c-1.8,7.2-1,20-7,24.6c-12.3,5.6-24.6,11.4-36.6,17.7
				c-1.7,0.9-3.7,1.2-5.6,0.6c-2.2,0.3-2.9,3-3.6,4.7c-3.9,11.7-9.6,22.9-12.5,34.9c-1.6,16.2-6.1,37.2,8.2,48.9
				c9.1,7.3,20,11.3,31.7,9.6c12.9-2.5,28.8-4.8,37.9-15.2c2.7-4.4,7.1-2.3,3.6,2c-6.6,12.5-14.1,24.4-21.1,36.6
				c-2.8,4.2-5.4,8.8-9.3,12.1c-2.2,1.5-5,2.7-6.2,5.2c-0.8,3.7,3.6,2.6,5.8,2.4c16.6-0.3,33.4-1.6,50.1-1.6
				c24.9-0.5,49.7,0.6,74.6,0.2c12.5,1.1,14.2-14.8,20-22.9C289.3,423.4,287.1,423.6,285.5,423.5z"/>
			<path class="st2" d="M289.6,426c-7.5-3.3-19.8-3.1-27.9-0.5c-6.3,1.9-5.7-5.3-8.4-8.6c-4.7-7.8-11.6-14.3-14.1-23.3
				c-4.9-14-12.3-2.3-19.1-10c-0.8-1.1-2.1-1.1-3.5-0.7c-7.2,2-14.7,2.1-21.9,4c-1.9,0.5-4-0.6-5.9,0.6c-7.3-2.5,7.9-8,9.1-11.1
				c2.6-1.5,6.5-0.6,7.4-4.5c1.8-4.2,9.4-4.4,12.9-9.7c17.1-17.4,34.9-33.9,51.4-51.8c7.6,1.4,11.6,8.9,19,10.6
				c15.3,3.6,29,18.4,28.2,34.7c-0.5,24-6.3,47.6-14.3,70.1C299.7,430.4,295.8,424.4,289.6,426z"/>
			<path class="st3" d="M19.3,400.3c-5.9,0.1-7.2,7.7-13.2,7.8c-6.5,1.5-12,6.2-19,5.3c-5-0.1-10,0.2-14.9,0.8c-5-1-7.8,3.4-8.2,7.6
				c2.9,0.6,6.1,0.6,8.9,1.9c3.5,1.4,2.6,6.9-1.2,6.9c-3.3,0.7-6.9-1.6-9.6,0.8c-3.1,2.3-5.5,5.3-7,8.8c0.2,2.3-2.6,3.2-4.5,2.9
				c-3.5-0.1,2.3-5.7,0.9-8.2c2.7-7.1,6.9-14.5,10-21.7c1.2-2.4,2.6-4.5,5.8-4.2c4-1.6,0.7-7.8,11.3-9.3c5-1.8,11.6,1.4,15.4-2.7
				c1.1-1.7,3.1-2.2,5.2-1.6c2.8,0.2,6.5,3,8.5,0.1c4.4-5.9,8.9-11.7,13.4-17.5c2.6-4.1,7.1-7,8-12.1c2.7-12.3,8.8-23.3,13.3-35
				c0.8-3.5,4-3.1,6.7-4.2c20.1-9.6,41.1-17.1,62.7-22.4c-17.9,12.1-41.9,21.1-61.9,32c-3.6,1.6-6.5,4.6-8,8.3
				c-5,11.5-10.3,22.8-13.6,34.9c-2.1,8.1-10.2,11.4-16.3,16C13.1,398.3,20.3,396.2,19.3,400.3z"/>
			<path class="st3" d="M132.3,68.6c9.9-2.9-11.5,31.3-8.5,38.2c0.6,15-3.6,28.7-8.1,42.8c0.5,21.9,0.5,44.3,2.6,66.2
				c-5.6-2.3-3.7-29.5-6-36.9c-3-26.7-6.1-31.3,7-56.6c1.7-7.3-0.4-15.3,1.2-22.7C122.6,88.5,128.8,78.8,132.3,68.6z"/>
			<path class="st3" d="M145.4,229.7c4.7,0.1,12.4,24.7,14.3,29.9c2.4,9.9-1.6,19.2-3.2,28.7c-0.3,1.4-1.2,2.5-2.6,3
				c-13.1,6.2-26.6,11.8-39.3,19c-1.7,0.9-2.9,0.8-4-0.7c-1.5-3,4.2-4.4,6.2-5.5c10.9-2.9,20.4-11,31.3-14.5c2.4-0.8,4-2.9,4.2-5.4
				C156.6,252.3,157.1,258.9,145.4,229.7z"/>
			<path class="st4" d="M116.8,304.1c-1.8,1.7-3.9,3-6.2,4c-1.4-1.7,0.7-2.5,0.8-4C113.2,303.8,115.1,303.8,116.8,304.1z"/>
			<path class="st2" d="M111.3,304.8c-0.2,1-0.5,2.4-0.7,3.2c-5.6,11-8.7,23.3-13.8,34.7c-3.4,14.5-5.9,31.9,0,45.9
				c15.1,26.1,50,18.5,71.9,6.3c0,4.6-3.2,7.4-5.8,10.6c-5.4,3.4-7.7,9-10.8,14.1c-5.8,7.9-10.9,16.4-15.2,25.2
				c-16.7,12.9-74,6.3-95.2,2.3c-2.9-0.5-1.8-2.5-2-4.6c-1.5-6.8,0.8-15.5-5.3-20.3c-3.3-4-11.9-5.4-11.5-11.4
				c0.3-3.6,0.5-10-3.9-10.7c-0.7-3.4-6.8-0.8-9.6-5.1c0.2-0.8,0.8-1.5,1.6-1.7c9.1-3.1,16.5-11,17.6-20.6
				c1.7-6.5,4.5-12.6,7.2-18.7c3.5-5.4,3.9-13.6,9.6-17.2C67.7,326.5,89.1,314.3,111.3,304.8z"/>
			<path class="st4" d="M109.9,309.6c-0.1-0.6,0.2-1.3,0.8-1.6l-0.1,1.6H109.9z"/>
			<polygon class="st5" points="139.6,185.3 139.6,185.1 139.8,185.1 			"/>
			<path class="st6" d="M238.6,101.9c-3.1-2.8-8-4-8.1-8.6c-1-11,2-23.4-2.3-33.6c-16.4-22.8-48.2-19-71.4-10c-7.8,3.8-17,7.7-21,16
				c-2,3.3-2.7,3.4-5.4,0.7c-3.6-4.2-16.2-18.3-11.9-23.1c4-2.4,5.6,3.6,10.9,2.3c-23.4-32.9-13.9-41.9,21.2-23.9
				c2.9-4.6,5.8-9.5,12.6-7.3c1.8-5,1.9-11.4,8.6-11.8C189.5,0.4,201.5,13.9,214,24c2.1-4.3,3.6-10.6,9.5-7.8
				c19.6,5.1,38,37.7,34.2,56.9c-2.1,2-1.6,4.5-1.5,6.9c1.1,12.1,2.3,24.3,0.3,36.3c-1.8,4.7-7.3,7.1-10.4,10.9
				c-1.3,1.4-3.4,2-5.3,1.3C236.2,127.2,239.6,107.2,238.6,101.9z"/>
			<path class="st6" d="M181.7,395.1c1.2-2.2,3.8-3.3,6.1-2.4c13.2,1.7,26.1-5,39.2-6.7c0.5-14.6,14.4-35.5,25.2-37.1
				c-2.8,6.2-8.4,10.2-12.2,15.7l0.6,0.6c7.6-7.2,16-14.1,25.6-18.3l0.5,0.9c-15.5,9.2-30.6,20.7-37.8,37.7c0.4,0.2,0.7,0.5,1,0.5
				c7.3-1.6,8.5,8.1,11.8,12.6c3.8,9.9,12.9,16.1,15.4,26.9c11.2-1.7,22.1-2.8,33.2-0.7L279,445.5c-5.9-6.7-13.3-11.9-21.5-15.4
				c-1.3,4-2.4,7.7-3.6,11.4l-0.8-0.2c0.8-8,5.2-16.2-0.8-23.4c-6.5-9-12.2-18.5-17.3-28.3c-2.5-5.2-22.2,2.4-28.1,2.3
				c-6.2,1.2-12,4.5-18.5,2.5C186.4,393.9,184.1,394.8,181.7,395.1z"/>
			<path class="st6" d="M119.9,304.7c-4.4,4.7-10.9,6-12.9,12.3c-6.5,15.6-11.3,31.6-12.5,48.5c-2.2,44.7,33.5,43.7,67.1,32.3
				c-45.8,22.4-80.6-0.1-65.7-51.8c3.1-13,7-25.6,13.7-37.3C112.6,303.4,113,303.2,119.9,304.7z"/>
			<path class="st6" d="M190.7,381.5c26.8-17.7,47.7-40.8,70.6-63.3l-7.9-7.7h16.3c-23.9,25.9-48,53.2-78.3,71.7L190.7,381.5z"/>
			<path class="st6" d="M153.5,348.9c3.4-5.6,9.8-4.3,11.8-10.2c10.7-22.1,18.7-45.1,26-68.4c-4,25.8-16,48.3-25.7,72.4l8.6-1
				c-2.2,2.5-4.7,1.7-6.6,2.5C163.1,346.4,158.4,348,153.5,348.9z"/>
			<path class="st6" d="M93.1,331.3c-4.6,15.2-6.9,30.8-9.7,46.5c-0.1-15.6,3.7-31.8,8.6-46.7L93.1,331.3z"/>
			<path class="st6" d="M262.9,134.5c-7-2.3-12,9.3-14.3,14.8c2.3-0.6,3.4-3.7,6.1-2.2c-1.4,1.3-2.8,2.4-4,3.6s-1.1,3.6-4.1,3.3
				C243.8,148.6,260.3,124.3,262.9,134.5z"/>
			<path class="st6" d="M192.1,218.2c9.3-5.8,17.3-13.3,26-21.1C215.7,203.1,198.4,216.9,192.1,218.2z"/>
			<path class="st6" d="M143.7,224.9c10.7,1.7,20.6,1.1,30.4-0.1C168.8,228.3,149.4,228.6,143.7,224.9z"/>
			<path class="st6" d="M153.4,287.6c-1.1,9.5-1.8,18.4-5.3,26.6c-0.8,0.1-0.8,0.3-1-0.3c1.6-8.4,3.2-16.9,4.8-25.3
				C152,288.5,152.3,288.3,153.4,287.6z"/>
			<path class="st6" d="M26.9,371.9c-0.4,5.9-1.4,11.7-2.8,17.4C23,386.3,24.8,375.1,26.9,371.9z"/>
			<path class="st6" d="M144.6,346.1l-8.4-10.5C140,337,144.4,342.2,144.6,346.1z"/>
			<path class="st6" d="M138.2,442.9c8.3-13.2,16.7-26.3,25.3-39.3c4-5,6.8-12,12.9-14.7c8.1-1,16.5-0.8,24.6-2.1
				c7-0.4,13.7-3.6,21-1.9c-2.6-2.6-6.1-1.7-9.4-1.5c-12.3,2.1-24.5,2.8-36.8,4.1c-1.9,0.4-3.6,1.4-4.8,3
				c-12.3,17-24,34.4-34.8,52.4L138.2,442.9z"/>
			<path class="st7" d="M148.9,116.2c-1.7,3.7-6.5,6.9-6,11.3c0.6,5-3.7,8.6-3,13.7c0.1,0.8-0.2,1.6-0.9,2c-0.8,0.4-1.5-0.1-2.1-0.6
				c-3.6-2.6-3.7-6.7-0.7-10.5c2.6-3.4,3.1-7.7,5.4-11.1C142.8,119.3,151.6,109.1,148.9,116.2z"/>
			<path class="st6" d="M142.5,152.4c-3.5,0.9-6.6,1.5-8.8-1.3c-1.9-2.3-4-4.8,0-6.5c-2.8-7,2.5-12.4,4.7-18.7
				c2-5.7,4.9-10.5,10.8-12.8c5-2.6,4.7-9.5,7.5-14c-1.1,5.4-1.2,13.1-7.1,15.6c-9.3,3.5-9.1,14.1-14.1,21.3
				C132.8,142,137,149.4,142.5,152.4z"/>
			<path class="st6" d="M169.3,146.5c-1.2,4.6-7.3,3.7-9.6,7.4c-0.6,0.9-3.9,0.2-4.5-0.8C153.1,148.9,166.9,143.1,169.3,146.5z"/>
			<path class="st6" d="M173.9,149.9c2-3.5,3.7-6.9,1.6-11.2C180.2,140.8,178.1,148.3,173.9,149.9z"/>
			<path class="st6" d="M130.8,151.5c-5.2-2-6.6-5.6-4.4-10.4C126.5,145.8,127.4,148,130.8,151.5z"/>
			<path class="st6" d="M214.7,103.3c-9.5-8.3-20.2-11.3-32.8-7.9c-2.1-4.3-0.6-11.6,5.1-12.2c7.1-0.7,15.6-1.7,21.6,2.7
				C212.4,91.2,223,96.7,214.7,103.3z"/>
			<path class="st6" d="M121.1,98.9c1.8-14.8,18.8-19.5,31.6-17.2C150.2,100.1,144.9,84.8,121.1,98.9z"/>
			<path class="st8" d="M136.5,195.2c-4.5,15.3,34.8,15.1,42.6,8.5c4.3-5,8.9-16.8,6.4-23c-9.3-2.7-19.4-0.8-29-0.6
				C148,180.7,140.1,187.9,136.5,195.2z"/>
			<path class="st9" d="M186.8,177.8c0.5,13.5-23.6,14.8-34.2,14.5c-5.4-0.5-2.2-3.5-4.8-5.4c7.6-11.3,23.3-13.5,36.2-12.9
				C185.1,175,186.1,176.3,186.8,177.8z"/>
			<path class="st10" d="M182,186.5c0.3-0.2,1-0.4,0.6,0.2c-5,8.2-13.8,12-23.3,13.5c-9.1,1.9-24.9-2-16.1-13.5
				c4.8-1,5.4-0.2,6.2,4.2C159.3,195.1,172.9,190.8,182,186.5z"/>
			<path class="st6" d="M181.1,171.6c1,0.7,1.9,1.5,2.8,2.2c-12.9-0.6-28.6,1.6-36.2,12.9c-1.5-0.6-3.1-0.6-4.6-0.2
				c4.4-5.5-4.6-11-5.5-16.2C149.3,160,168.8,163.7,181.1,171.6z"/>
			<path class="st6" d="M140.3,193.2c0.3-2.4,0.8-5.2,2.7-6.9c2.1-0.8,5.4-1.4,6.6,0.9c0.6,1.4-0.5,2.9,1,3.6
				c9.6,2.3,29.1-0.6,35.2-9.2l0,0c1.6-3.4-0.4-6.8-3.4-8.6l0.2-0.3c18,14.3-23.4,23.7-32.7,19.2c-2-0.8-0.9-3.5-1.8-4.7
				c-4.2-2.1-6.6,2.2-7.3,5.9L140.3,193.2z"/>
			<path class="st6" d="M137.8,193.1c-7.6,15.9,27.1,15.5,35.8,12c9.7-3.4,11-14.4,12.1-23.2l0.8,0.1c-0.4,9.5-2,21.1-12.2,24.9
				c-9.3,4.5-47.6,3.2-36.7-13.8L137.8,193.1z"/>
			<path class="st6" d="M140.8,195.6c12.8,11.2,34.3,1.1,43.1-11.1l0.6,0.5C176.2,197.8,152.9,208.3,140.8,195.6z"/>
			<path class="st3" d="M141.8,198.7c0.3-4.1-3.6,1.3-1.9,2.6c0.5,0.4,0.8-0.1,1.2-0.3c0.6,0.3,0.6,1.5,1.6,1.1
				c0.6-0.5,0.8-1.3,0.4-2C142.4,200,141.6,199.6,141.8,198.7z"/>
			<path class="st6" d="M190.3,112.5c-1.6,1.4-3.2,2.9-4.5,4.6c1-10.5,21-11.4,18.3,0.7C202.5,112.3,195.1,109,190.3,112.5z"/>
			<path class="st6" d="M134.6,106.5c-4.2-2.2-6.4,3.3-8.6,5.9c1.1-11.3,13.2-9.8,14.4,0.4C139.5,114.3,137.9,106.9,134.6,106.5z"/>
			<path class="st6" d="M192,116.2c2.3-10.7,15-5.1,11.9,4.4C201.2,128.5,189.9,124.4,192,116.2z"/>
			<path class="st3" d="M196.3,114.5c-0.1,0.7-0.6,1.1-1.3,1.1c-0.6-0.1-1-0.5-1.1-1.1c0.1-0.7,0.6-1.1,1.3-1.1
				C195.8,113.5,196.2,113.9,196.3,114.5z"/>
			<path class="st6" d="M133.6,106.8c5.6-1.8,7.8,7.7,4.7,11C131.1,123.6,126.6,109.5,133.6,106.8z"/>
			<path class="st3" d="M134.3,110.3c-0.1,0.7-0.6,1.1-1.3,1.1c-0.6-0.1-1-0.5-1.1-1.1c0.1-0.7,0.6-1.1,1.3-1.1
				C133.8,109.3,134.2,109.7,134.3,110.3z"/>
		</g>
	</g>
</g>
</svg>
