<?xml version="1.0" encoding="utf-8"?>
<!-- Generator: Adobe Illustrator 25.2.0, SVG Export Plug-In . SVG Version: 6.00 Build 0)  -->
<svg version="1.1" id="Capa_1" xmlns="http://www.w3.org/2000/svg" xmlns:xlink="http://www.w3.org/1999/xlink" x="0px" y="0px"
	 viewBox="0 0 1080 79.2" style="enable-background:new 0 0 1080 79.2;" xml:space="preserve">
<style type="text/css">
	.st0{fill:#80AE3C;}
</style>
<g id="GRAF_1">
	<path class="st0" d="M1080,56.8c-2.8-1.1-5.6-2.1-8.4-3.1c-3.4-1.2-6.7-2.5-10.1-3.7l-10.2-3.4c-27.2-9-54.9-16.6-82.9-22.7
		c-14-3.1-28.1-5.8-42.2-8.3l-10.6-1.7c-3.5-0.6-7.1-1.2-10.6-1.7c-7.1-1-14.2-2.1-21.3-2.9C826.9,2,769.5-0.6,712.3,0.1
		S598,5.2,541.1,11.4S427.6,25.6,371.2,34.2S258.3,52,201.8,60.3l-21.2,3c-7.1,1-14.1,2-21.2,3c-14.1,1.9-28.3,3.8-42.5,5.5
		l-21.3,2.6c-7,0.8-14.1,1-21.2,1.2c-14.2,0.3-28.5-0.2-42.7-0.9C21.2,74.1,10.6,73.3,0,72.3v3.1c10.5,1.1,21,1.9,31.6,2.5
		c14.3,0.8,28.6,1.3,42.9,1.2c7.2-0.1,14.3-0.3,21.6-1.1l21.3-2.5c28.4-3.3,56.7-7.2,85-11.1c56.6-8.1,113-16.9,169.5-25.4l42.4-6.2
		l21.2-3c7.1-1,14.1-2,21.2-2.9c14.1-1.9,28.3-3.8,42.5-5.4c7.1-0.9,14.2-1.8,21.3-2.6l21.3-2.3c56.7-6.1,113.7-10.3,170.7-11
		S826.5,7.8,883,15.1c7,0.9,14.1,1.9,21.1,2.9c3.5,0.5,7,1.1,10.5,1.7l10.5,1.7c14,2.5,28,5.1,41.9,8.2l10.4,2.3l10.4,2.5
		c6.9,1.6,13.8,3.5,20.7,5.3c3.5,0.9,6.9,1.9,10.3,2.8s6.9,1.9,10.3,2.9l10.2,3.1l5.1,1.5l5.1,1.7c10.2,3.3,20.3,6.8,30.4,10.5
		L1080,56.8z"/>
</g>
</svg>
