<?xml version="1.0" encoding="utf-8"?>
<!-- Generator: Adobe Illustrator 25.2.0, SVG Export Plug-In . SVG Version: 6.00 Build 0)  -->
<svg version="1.1" id="Capa_1" xmlns="http://www.w3.org/2000/svg" xmlns:xlink="http://www.w3.org/1999/xlink" x="0px" y="0px"
	 viewBox="0 0 1080 323.8" style="enable-background:new 0 0 1080 323.8;" xml:space="preserve">
<style type="text/css">
	.st0{clip-path:url(#SVGID_2_);}
	.st1{fill:#877F7A;}
	.st2{fill:#A79185;}
	.st3{fill:#E46025;}
	.st4{fill:#F47F31;}
	.st5{fill:#F6954D;}
	.st6{fill:#903B43;}
	.st7{fill:#9F4B4E;}
	.st8{fill:#D7C4BF;}
	.st9{fill:#DCBEBE;}
	.st10{fill:#AC595E;}
	.st11{fill:#C06A73;}
	.st12{fill:#E6A5A4;}
	.st13{fill:#EFB5B1;}
	.st14{fill:#D8735F;}
	.st15{fill:#F9C7C5;}
	.st16{fill:#8BA562;}
	.st17{clip-path:url(#SVGID_4_);}
	.st18{fill:#758C49;}
	.st19{fill:#FF9032;}
	.st20{clip-path:url(#SVGID_6_);}
	.st21{opacity:0.21;}
	.st22{fill:#E06D1B;}
	.st23{opacity:0.35;}
	.st24{clip-path:url(#SVGID_8_);}
	.st25{opacity:0.39;}
	.st26{opacity:0.56;}
	.st27{opacity:0.51;}
	.st28{opacity:0.34;}
	.st29{opacity:0.19;}
	.st30{fill:#FFFFFF;}
	.st31{fill:#F76D0F;}
	.st32{clip-path:url(#SVGID_10_);}
	.st33{fill:#FF891C;}
	.st34{clip-path:url(#SVGID_12_);}
	.st35{opacity:0.14;}
	.st36{fill:#FFC05A;}
	.st37{opacity:0.22;}
	.st38{fill:#FF6112;}
	.st39{fill:#356C11;}
	.st40{fill:#5E8F3D;}
	.st41{fill:#99BE19;}
	.st42{fill:#48810C;}
	.st43{fill:#457124;}
	.st44{fill:#78A555;}
	.st45{fill:#A4B743;}
	.st46{fill:#7CAD37;}
	.st47{clip-path:url(#SVGID_14_);}
	.st48{fill:#B7C64E;}
	.st49{fill:#51751B;}
	.st50{clip-path:url(#SVGID_16_);}
	.st51{fill:#63992A;}
	.st52{fill:#F1EDD2;}
	.st53{fill:#BBB78A;}
	.st54{clip-path:url(#SVGID_18_);}
	.st55{fill:#F6F2D9;}
	.st56{fill:#E4E4C2;}
	.st57{fill:#B3AE76;}
	.st58{fill:#F0E6C3;}
	.st59{fill:#80A835;}
	.st60{clip-path:url(#SVGID_20_);}
</style>
<g>
	<g id="GRAF_1">
		<g>
			<defs>
				<rect id="SVGID_1_" width="1080" height="323.8"/>
			</defs>
			<clipPath id="SVGID_2_">
				<use xlink:href="#SVGID_1_"  style="overflow:visible;"/>
			</clipPath>
			<g class="st0">
				<path class="st1" d="M1242.7,377.8c-2.4-3.1-6.6-2.5-10.1-2.7c-4.7-0.3-9.3,0.4-14-0.2c-9.5-1.1-18.8-0.9-28.3-3
					c-17.2-3.8-32.7-12.2-47-22.1c-15.8-11-29.3-24.7-41.4-39.6c-7.8-9.7-14.8-20-21-30.7c-6.2-10.5-11.1-23.8-22.1-30
					c-3.9-2.2-10.3-1-10.6,4.5c-0.1,2.9-0.5,5.3,0.2,8.1c1.1,3.7,2.5,7.2,4.1,10.7c2.7,6,6.3,11.6,9.6,17.3
					c6.8,11.7,14.2,23.1,23,33.4c14.2,16.5,30.6,32.3,48.9,44.2c17.3,11.3,36.9,18.7,57.4,21.4c10.2,1.3,20.5,1.2,30.7-0.2
					C1225.3,388.5,1247.6,384.3,1242.7,377.8L1242.7,377.8z"/>
				<path class="st2" d="M1067.3,76.1c22.5,1.7,46.6,11.3,67.6,22.3c4.6,2.4,9,4.8,13.2,7.2c28.5,16.5,57.3,32.3,86,48.1
					c6.5,3.6,12.7,7.6,18.6,12c16,12,29.8,27.1,39.1,44.7c14,26.6,16.6,51.3,14.2,81.1c-2.6,32-24.1,71.9-55.5,85.4
					c-11.6,5-24,10.3-37.3,11.4c-2.1,0.1-4.1,0.2-6.2,0.1c-13.2-0.5-27.1-5.7-40.3-13.1c-17.8-9.9-34.2-23.8-45.4-35.6
					c-12.6-13.2-21-28.3-24.3-46.2c-2.4-13.4-0.2-27-0.8-40.6c-1.7-37.5-18.5-78.3-42.1-107.5c-16.5-20.5-43.6-27.9-59.2-47.7
					l-2-2.2c11.3-3.4,22.1-10.9,35.4-13.6C1041,79.4,1054,75.1,1067.3,76.1z"/>
				<path class="st3" d="M982.9,122.7c11.9-4.2,25.6-9.2,37.8-8.1c12.6,1.1,26,6,38.2,10.8c36.1,14.3,58.2,52,70,86.1
					c3.8,11.1,12.5,30.7-5.4,30.7c-17,0.1-31.1-20.1-44.6-28.3c-33.4-20.2-62.7-48.2-86.8-78.4c-2.8-3.6-6.8-6.9-8.1-11.3
					L982.9,122.7z"/>
				<path class="st4" d="M1022,88.4c1.5,0,3,0,4.4,0h1.3c9.9,0.4,19.7,1.4,29.5,3.1c1.9,0.3,3.9,0.7,5.8,1.1
					c14.6,2.8,28.9,7,42.7,12.4l0,0c3,1.2,5.9,2.4,8.8,3.7c1.2,0.5,2.4,1,3.6,1.6c4,1.8,8,3.6,12,5.3c2.7,1.2,5.4,2.4,8.2,3.5
					c13.3,5.6,26.5,11.1,39.4,17.2c4.2,2,8.3,4,12.3,6.1c14,7.4,27.3,15.9,39.6,26.7c0.8,0.7,1.6,1.4,2.3,2.1c1,0.9,2,1.9,3,2.8
					c8.4,8.3,15.8,17.6,21.9,27.8l0,0c1.6,2.6,3.2,5.3,4.6,8c2.5,4.7,4.8,9.6,6.9,14.6c1.3,3.3,2.6,6.5,3.8,9.9
					c1.1,3.1,2.1,6.2,2.9,9.3l0,0c1.3,4.4,2.3,8.7,3.2,13.1c1,5.2,1.9,10.4,2.4,15.6l0,0c0.6,5.3,0.9,10.6,1,15.9l0,0
					c0,3.4,0,6.8-0.2,10.2c-0.5,8.2-3.1,16.5-6.2,24.6l0,0c-1.3,3.4-2.7,6.8-4,10c-0.9,2.1-1.7,4.2-2.6,6.2
					c-6,14.9-12.8,29-25.4,39.4l0,0l-0.4,0.4c-2.9,2.3-6.1,4.2-9.4,5.6c-12,5-27.6,5.7-42.4,3.9c-2.5-0.3-5-0.7-7.5-1.1l0,0
					c-7.2-1.3-14.3-3.2-21.1-5.9l0,0c-0.8-0.3-1.7-0.7-2.4-1s-1.8-0.8-2.6-1.2c-8.4-4.1-16.2-9.1-23.4-15c-1.7-1.3-3.4-2.7-5-4.1
					c-5.2-4.4-10.3-9.2-15.5-13.9c-4-3.6-7.9-7.2-11.9-10.8c-5-4.6-10-9.2-14.8-13.9c-0.7-0.7-1.3-1.3-2-2c-2.1-2.1-4.1-4.2-6.1-6.4
					c-2.3-2.5-4.5-5-6.6-7.5c-0.8-1-1.6-2-2.4-3c-0.8-1.1-1.6-2.1-2.4-3.2l0,0c-1.7-2.2-3.4-4.5-5.1-6.8l0,0
					c-1.3-1.7-2.5-3.5-3.7-5.2c-9.1-12.9-17.4-26.4-25.2-40.1c-0.9-1.5-1.7-3.1-2.6-4.6l0,0c-3.7-6.4-7.3-12.9-10.7-19.6
					c-1.3-2.6-2.6-5.1-3.9-7.7c-4.5-9-8.9-18-13.1-27.1c-1.1-2.3-2.1-4.6-3.2-6.9c-2.8-6.1-5.6-12.1-8.3-18.2
					c-0.5-1.2-1.1-2.3-1.6-3.5c-0.2-0.5-0.4-0.9-0.6-1.4c-3.2-7-14-28.6-5.8-34.8c1.5-1.1,3.3-1.6,5.2-1.7c4.5-0.3,9.3,2.3,13.7,5.9
					c0.6,0.5,1.2,1,1.8,1.5c4.6,4.2,8.6,9,12,14.1l0.1,0.1c1.1,1.7,2.2,3.3,3.3,4.8c4.8,6.5,10.4,12.3,16.6,17.4
					c1.7,1.4,3.5,2.9,5.4,4.4l0.3,0.2c3.8,3,7.2,6.4,10.2,10.1c1.2,1.5,2.4,2.9,3.6,4.5c3.4,4.3,6.7,8.8,10.6,12.9
					c0.7,0.8,1.4,1.5,2.1,2.1c1.2,1.1,2.4,2.1,3.7,3.1c6.2,4.7,13.2,7.8,19.8,12.1c1.1,0.7,2.3,1.5,3.4,2.3c0.3,0.2,0.6,0.4,0.9,0.7
					c6.7,5.1,14.7,11.5,22.5,16.2c2,1.2,4,2.3,6,3.3c0.7-0.6,1.3-1.1,1.8-1.6l0,0c0.8-0.7,1.4-1.6,2-2.5l0,0
					c1.6-2.7,1.1-4.9-0.4-7.1c-1.9-2.9-5.3-5.7-7.7-9.3c-2.9-4.4-5.3-9.1-7.2-14c-0.6-1.4-1.1-2.8-1.7-4.2c-1.3-3.3-2.5-6.6-3.9-9.9
					c-2.6-6-6.1-11.6-10.4-16.6c-1.2-1.5-2.5-3-3.9-4.4c-4.2-4.3-8.6-8.4-13.4-12c-1.4-1.1-2.9-2.2-4.3-3.2c-5.1-3.6-10.4-7-15.8-10
					c-1.9-1-3.8-2.1-5.6-3l-1.3-0.7c-7.2-3.6-14.6-7.3-21.8-11.1l-1.6-0.8c-3.6-1.9-7.2-3.8-10.7-5.8c-1.8-1-5-2.4-8.6-4l-2.6-1.2
					l-1.2-0.6c-11.8-5.5-24.9-13.4-12.4-21.2C1000.7,90,1012.6,88.6,1022,88.4z"/>
				<path class="st5" d="M1036,165.6c1.7,1.4,3.5,2.9,5.4,4.4c-1.6,2.4-3.1,4.7-4.6,7.1c-5.5,8.6-12,17.7-13.6,28
					c-1,6.2-1.7,12.1-3.3,17.8c-1.3-2.6-2.6-5.1-3.9-7.7c-0.1-5,0.4-10.1,1.4-15c2-9.1,7.7-17.7,12.6-25.5
					C1032,171.7,1034,168.6,1036,165.6z"/>
				<path class="st5" d="M1105.7,105L1105.7,105c3,1.2,5.9,2.4,8.8,3.7c-15.8,4.7-31.2,10.3-43.8,21.5c-4.2,3.8-7.9,8-11.2,12.6
					c-1.9-1-3.8-2.1-5.6-3c3.4-4.8,7.3-9.2,11.6-13.2C1077.1,116.3,1091.1,109.9,1105.7,105z"/>
				<path class="st5" d="M1051.9,180.3c1.2,1.5,2.4,2.9,3.6,4.5c-12,18.9-19.7,40.3-22.5,62.6c-0.9-1.5-1.7-3.1-2.6-4.6l0,0
					C1030.5,220.2,1039.1,199,1051.9,180.3z"/>
				<path class="st5" d="M1130.1,115.6c2.7,1.2,5.4,2.4,8.2,3.5c-1.3,0.5-2.6,1.1-3.8,1.6c-17.8,7.8-34.4,18.1-49.4,30.5
					c-1.8,1.5-3.7,3.1-5.4,4.8c-1.4-1.1-2.9-2.2-4.3-3.2c1.7-1.6,3.3-3.2,5-4.7C1095.1,134.7,1111.9,123.7,1130.1,115.6z"/>
				<path class="st5" d="M1068.2,199.9c1.2,1.1,2.4,2.1,3.7,3.1c-0.9,1.6-1.8,3.2-2.6,4.8c-13.4,26-17.3,56.8-7.3,84.9
					c-1.3-1.7-2.5-3.5-3.7-5.2c-4.3-10.6-6.2-22-5.7-33.4c0.7-14.5,4-28.8,9.8-42.1c1-2.3,2-4.6,3.2-6.8
					C1066.3,203.4,1067.2,201.6,1068.2,199.9z"/>
				<path class="st5" d="M1207.6,173.4c4.7,2.6,9.4,4.9,12.4,9.5c2.4,3.5,3.9,7.5,4.5,11.7c1.3,11-1.9,19.8-6.2,29.7
					c-4.6,10.4-9,20.1-16.7,28.7c-7.1,7.9-15.3,14.7-22.7,22.3c-0.8,0.8-1.5,1.6-2.3,2.4c-7.6,8-14.4,16.5-23.1,23.5
					c-9.3,7.4-19.6,13.9-30.9,17.6c-10.5,3.4-21.7,5.2-32.7,3.5c-0.3,0-0.7-0.1-1-0.2c-0.7-0.1-1.5-0.3-2.3-0.4
					c-0.7-0.7-1.3-1.3-2-2c-2.1-2.1-4.1-4.2-6.1-6.4c5.4,1.9,10.8,3.5,17,3.5c10.3,0,20.4-2.2,29.8-6.4c9.8-4.4,18.9-10.1,27-17.1
					c7.2-6.1,13-13.4,19.9-19.9c0.1-0.1,0.2-0.2,0.3-0.3c14.1-13.2,33.1-24.4,40.5-43.2c7.1-17.9,11.7-42-6.1-55.3
					C1206.2,174.2,1206.8,173,1207.6,173.4z"/>
				<path class="st5" d="M1091.6,215.1c1.1,0.7,2.3,1.5,3.4,2.3c-1,1.1-1.8,2.3-2.6,3.5c-0.5,0.8-1,1.6-1.5,2.4
					c-2.2,3.8-4,7.7-6.3,11.4c-3.2,5.3-6.9,10.4-9.3,16.1c-3.7,8.7-5.1,18.7-5.4,28.1c-0.3,8.5-0.2,18.5,2,26.9c-0.8-1-1.6-2-2.4-3
					c-0.8-1.1-1.6-2.1-2.4-3.2l0,0c-1.8-6.8-1.8-13.8-1.2-21.2c0.8-9.6,2-20.1,6.3-28.9c3.2-6.3,7-12.2,10.3-18.5
					c1.8-3.4,3.4-7,5.3-10.4c0.7-1.2,1.4-2.3,2.2-3.4C1090.5,216.5,1091,215.8,1091.6,215.1z"/>
				<path class="st5" d="M1075.9,271.1c3.3,4.9,5.7,7.9,11.7,9.1c5.7,1.2,11.6-0.3,17.3-0.6c0.7,0,0.6-1,0-1.1
					c-9.8-1.6-21.5,1.1-28.3-7.9C1076.3,270,1075.6,270.5,1075.9,271.1L1075.9,271.1z"/>
				<path class="st5" d="M1074,287.9c2.6,5.4,7.7,9.2,13.6,10.1c0.4,0,0.8-0.2,0.8-0.6c0-0.3-0.1-0.5-0.3-0.7
					c-4-3.7-9.7-4.8-12.9-9.6C1074.8,286.4,1073.6,287.1,1074,287.9L1074,287.9z"/>
				<path class="st5" d="M1016,143.4l0.1,0.1c1.1,1.7,2.2,3.3,3.3,4.8c-2,2.8-3.8,5.8-5.4,8.8c-2.6,5.3-4.8,10.7-6.6,16.2
					c-1.6,4.9-3,9.9-4.4,14.9c-1.1-2.3-2.1-4.6-3.2-6.9c1.3-4.6,2.7-9.1,4.3-13.6C1006.7,160.6,1010.3,150.2,1016,143.4z"/>
				<path class="st5" d="M1057.2,91.6c1.9,0.3,3.9,0.7,5.8,1.1c-0.8,0.7-1.7,1.4-2.5,2.1c-11.3,9.8-21.3,21-29.8,33.3l-1.6-0.8
					C1036.9,114.1,1045.9,101.9,1057.2,91.6z"/>
				<path class="st5" d="M1002.3,127.8c0.6,0.5,1.2,1,1.8,1.5c-5,11-8.8,22.4-12.6,33.9c-0.5-1.2-1.1-2.3-1.6-3.5
					C993.5,148.9,997.8,138.3,1002.3,127.8z"/>
				<path class="st5" d="M1022,88.4c1.5,0,3,0,4.4,0c-5.7,9.5-11.4,19.1-16.5,29l-2.6-1.2C1011.6,106.6,1016.5,97.4,1022,88.4z"/>
				<path class="st6" d="M464.2,419.3c10.3-58.5,65.8-93.1,105.1-132.3c28.2-28,58.8-58.8,92.7-78.5c29.7-17.3,67.6-25.8,101.2-20.8
					c34.6,5.2,47.5,30.1,69.6,55.5c67.4,77.5,31.5,207.6-47.3,263.6L464.2,419.3z"/>
				<path class="st7" d="M842.7,342.5c1.1,29.4,5.4,60.6,3.5,90.2c-0.3,4-1,8-2.3,11.8c-3,9.5-8.5,18.2-15,25.8
					c-4.9,5.7-10.2,10.9-16,15.7c-9.6,8-19.3,16.1-29.3,23.7c-7.4,5.7-14.8,11.1-22.4,16.2c-2.3,1.5-4.8,3.2-7.6,5
					c-14.9,9.6-36,21.5-51.2,20.7c-4.1-0.3-8.2-1.1-12.1-2.3c-5.3-1.4-10.7-2.9-16.5-2.7c-13.7,0.4-28.2,3.6-42.7,3.2
					c-4.6-0.1-9.1-0.5-13.6-1.1c-9.3-1.1-18.4-2.7-27.8-3.2c-12.8-0.7-25.5,2.2-38.7,0.8c-23-2.3-43.8-9.2-60.6-27.3
					c-12.4-13.3-26-41.5-29.7-60.9c-0.3-1.6-0.5-3.1-0.7-4.6c-4.7-42.3,15.5-72.8,40.9-98.9c11.9-12.1,24.9-23.4,37-34.3
					c15.1-13.7,27.8-29,45.5-39.5c9-5.3,18.1-10.3,27.2-15.1c10.2-5.5,20.5-10.9,30.7-16.7c12.9-7.4,28.3-15.6,44.5-21.5
					c16.5-6,33.8-9.6,50.1-7.3c1.4,0.2,2.8,0.4,4.2,0.7c29.5,6.1,53.2,29.9,70.9,55c6.5,9.2,12.6,17.1,17.8,25.2
					C836.6,313.4,842,325.7,842.7,342.5z"/>
				<path class="st8" d="M828.8,301.3c4.7,11,7.6,22.7,8.7,34.7c2,23.3,6,47.6,7.1,71.1c0.6,13.8,1,26.1-0.7,37.4
					c-3,9.5-8.5,18.2-15,25.8c-1.4-7.3-5.8-9.5-8.9-17.6c-3.2-8.4-1-22.5-0.5-31c0.8-14,4.1-28.4-0.7-41.7
					c-4.3,11.6-2.6,24.7-5,36.8c-2.3,11.7-6.6,21.6-10.4,31.8c-5.5,14.7-8.7,17.7-20.6,25.2c-8.5,5.3-19.9,17.3-15.5,29.8
					c5.6,2.6,12.2,2.2,16.4,6.2c-7.4,5.7-14.8,11.1-22.4,16.2c-2.3,1.5-4.8,3.2-7.6,5c-1.7-7.6,4-15.4-0.4-23.3
					c-4.2-7.5-11.4-9-19.5-8c-17.3,2.4-33.4,12.8-43.1,24.3c-6,7.1-7.9,6.7-4,18.9c0.5,1.7,2.3,4.1,3.8,6.5
					c-5.3-1.4-10.7-2.9-16.5-2.7c-13.7,0.4-28.2,3.6-42.7,3.2c-4.6-0.1-9.1-0.5-13.6-1.1c8.2-4.6,15.6-10.3,17.4-16.4
					c-8.6-2.5-17.3-1.5-26.6-3.7c-10-2.3-15.8-1.8-25,1c3.9-5.6,9.2-10.1,15.4-13.1c-4.9-2.4-8.6-7.7-2.8-10.4
					c3.4-1.6,11,5.1,13.8,6.2c7.8,2.9,19.8,5.9,27.6,4.3c18.5-3.7,35.8-18.2,55.8-18.7c-6-1-11.8-2.9-17.2-5.7
					c5.5-1.7,15.8-0.8,18-3.3c3.5-3.8,3.7-17,6.7-22.1c-0.9,8.6-2.7,24.1,6,27.9c6,2.6,30.9-3.8,37-8.7c18.4-14.7,3.5-34.5,11.4-53
					c8.3-19.6,21.6-41.8,8.2-61.8c-12.4-18.4-26.8-28.5-47.2-33.2c-13.1-3-25.9-10.4-36.6-7.4c-10.4,2.9-18.2,12.4-26,18.3
					c-8.1,6.1-15.4,10.8-21.3,19c-6.7,9.3-7.1,19.7-10.8,30.4c-36.4-21.1-64-15.2-100.7-6.9c-13.8,3.1-25.9,19.7-34.4,32.1
					c-5.5,7.9-12.2,12.6-18.4,19.8c-3.5,4.1-5.1,9.6-6.9,14.7c-0.3-1.6-0.5-3.1-0.7-4.6c-4.7-42.3,15.5-72.8,40.9-98.9
					c-6.3,12.6-11,26-13.3,35.8c18.4-23.4,51.9-28.6,79.3-37c-26.8,14-53.3,20.3-73,41.7c11.6-11.9,42.7-19.2,58.6-21.2
					c20.1-2.6,40.1-3.6,58.4-10.5c20.4-7.7,38.2-21,53.9-35.7c13.2-12.4,36.2-34.8,55.2-31.3s25.2,25.4,38.5,38.2
					c6.7,6.4,14.4,9.1,19.1,18.2c3.1,5.9,0.5,14.8,3.5,19.6c5.3,8.3,11.7,1.3,14.6,12.7c2,7.6-3.1,11.8-4.8,18.1
					c-2,7.5-1.4,13.7-1.3,21.4c0.1,8.2-2.9,16.2-2.7,24.5c18,0.1,19.4-40.7,20.3-54c1.2-18.2,5-34.5,3.1-53.2
					c-2.4-23.5-15-31.8-24.8-52.8c-7.4-15.8-18.2-36.6-34.4-44.4c0.9,1.9,1.8,3.9,2.5,5.9c-18.4-9.4-45.8-19.9-64.9-15.2
					c-16.9,4.1-51.5,16.9-55.8,36.9c-7.4-2.7-13.6-6.1-21.8-6.4c-0.2,0-0.4,0-0.6,0c10.2-5.5,20.5-10.9,30.7-16.7
					c12.9-7.4,28.3-15.6,44.5-21.5c14.7-3.5,33-8.4,50.1-7.3L828.8,301.3z"/>
				<path class="st9" d="M661.2,274.1c0.4,0.2,0.8,0.4,1.3,0.6c0.4,0.1,0.7-0.2,1-0.4c0.1,0,0.1-0.1,0.1-0.2c0-0.1-0.1-0.1-0.2-0.1
					C662.6,274.2,661.9,274.3,661.2,274.1C661.2,274,661.2,274,661.2,274.1L661.2,274.1z"/>
				<path class="st9" d="M669,272.8c7.6-3.9,16.1-8.6,25.2-5.9c8.1,2.4,15.4,8.4,23.9,8.7c1.1,0,1.1-1.5,0-1.8
					c-4.6-1-9-2.5-13.2-4.6c-3.8-1.8-7.6-3.8-11.7-4.7c-9-2-17.2,3.5-24.6,7.4C668.1,272.2,668.6,273,669,272.8L669,272.8z"/>
				<path class="st9" d="M697,268.3c5.1,0.5,10.2,1.8,15,3.8c2.7,1.1,5.3,2.4,7.8,3.8c2.3,1.2,5,3.3,7.4,2c0.6-0.4,1-1.1,0.8-1.9
					c-0.6-2.9-3.9-4-6.2-5.2c-3-1.5-6.1-2.9-9.3-4.2c-5.2-2-11.5-3.6-16.2-0.8c-0.6,0.4-0.8,1.3-0.4,1.9
					C696.3,268.1,696.6,268.3,697,268.3L697,268.3z"/>
				<path class="st9" d="M687,276.5c3.4-2.1,7.2-3.6,11.2-4.3c2.1-0.4,4.2-0.8,6.3-1c1.6-0.2,2.9-0.1,3.8-1.4c0.1-0.2,0-0.5-0.2-0.7
					c-1.3-1.1-2.7-0.7-4.3-0.5c-2.4,0.3-4.7,0.9-7,1.5c-3.8,1.1-7.4,2.9-10.5,5.3C685.8,275.9,686.5,276.8,687,276.5L687,276.5z"/>
				<path class="st9" d="M723.1,276.3c2.8,1.6,6,2.5,8.9,3.8c3.5,1.5,6.9,3.3,10.2,5.1c3.2,1.8,6.3,3.9,9.3,5.9
					c2.9,1.9,5.1,4.8,8,6.8c0.5,0.4,1.1-0.2,0.8-0.8c-1.6-3.3-4.7-5.6-7.3-7.9c-2.9-2.5-6-4.7-9.4-6.5c-3.3-1.9-6.7-3.5-10.2-5
					c-3.1-1.4-6.5-3-9.8-3.6C722.6,273.9,722.2,275.7,723.1,276.3L723.1,276.3z"/>
				<path class="st9" d="M765.3,309.9C765.3,309.9,765.3,309.9,765.3,309.9c0-0.1,0-0.1,0-0.1S765.2,309.8,765.3,309.9
					C765.2,309.9,765.2,309.9,765.3,309.9L765.3,309.9z"/>
				<path class="st9" d="M772.7,306c4.8,9.3,9,18.9,12.5,28.8c3.2,9.2,6.2,18.5,10.1,27.5c1.7,4,3,8.2,4,12.4
					c1,4.1,2.3,8.1,3.3,12.2c1,4,1.6,8.1,1.8,12.2c0.4,4.5,0.4,9.1-0.1,13.6c-0.5,3.4,3.8,5.1,5,1.8c1.5-4,2.5-8.1,2.8-12.4
					c0.3-4.4-0.7-9.1-1.7-13.5s-2.2-9.2-4.3-13s-4.3-8-6.6-11.9c-2.6-4.5-4.4-9.4-6.7-14.1s-4-9.7-6-14.6c-4.2-10.1-8-20.1-14-29.3
					c0-0.1-0.1-0.1-0.2-0.1C772.6,305.8,772.6,305.9,772.7,306L772.7,306z"/>
				<path class="st9" d="M766.9,317.2c7.5,8.3,14.2,17.3,20,26.8c1.5,2.5,3,5,4.3,7.6c1.5,2.8,3.5,5.2,4.9,8.1
					c2.5,5,3.5,10.4,5.8,15.4c0.1,0.3,0.5,0.5,0.8,0.4c0.3-0.1,0.5-0.5,0.4-0.8l0,0c-1-5.4-4.1-10.4-6.3-15.4
					c-1.3-2.9-2.2-5.9-3.6-8.7s-3.2-5.6-4.8-8.3C782.7,333.2,775.9,323,766.9,317.2C767,317.1,767,317.1,766.9,317.2L766.9,317.2z"
					/>
				<path class="st9" d="M783.5,300.3c0.9,1.9,0.3,3.2-0.5,4.8c-0.1,0.1,0.1,0.3,0.2,0.2c1.3-1.4,1.6-3.5,0.7-5.2
					c0-0.1-0.2-0.1-0.3-0.1C783.5,300,783.4,300.2,783.5,300.3C783.5,300.3,783.5,300.3,783.5,300.3z"/>
				<path class="st9" d="M781,310.6c-0.4,2.6-0.6,5.2-0.7,7.8c0,2.1,0.1,5,1.8,6.5c0.3,0.2,0.7,0.2,0.9-0.1c0.1-0.1,0.1-0.2,0.1-0.3
					c0.6-2-0.6-4.5-0.8-6.6c-0.2-2.4-0.2-4.8,0.1-7.2c0-0.4-0.3-0.7-0.7-0.7C781.4,310,781.1,310.2,781,310.6L781,310.6z"/>
				<path class="st10" d="M606.9,278.8c7.4,0.2,14.8,1.5,22,0.5c5.1-0.7,9.8-3.9,15.2-2.4s8.9,7.9,14.5,9.3
					c6.2,1.6,11.6-3.2,17.8-1.4c20.3,6.2-14.9,34.6-21.5,39.4c-19.6,14.4-37.2,25-60.2,32.8c-4.3,1.5-20.7,6.7-23.7,1.1
					c-1.5-2.7,4.3-9.6,1.7-14.3c-2.3-4.1-9.2-5.6-13.5-5.8c-7.9-0.5-45.3,25.2-46.4,11.3c-0.3-4.2,14.1-19.8,16.8-23.1
					c7.2-9,17-15.1,25.6-22.5C568.9,292,588,278.3,606.9,278.8z"/>
				<path class="st10" d="M669.2,260.9c6.5-4.4,15.9-4.7,23.8-4.5c4.4,0.1,8.9,0.5,13.3,0.9c3.5,0.3,7.1,0.4,10.5,1
					c7.5,1.4,14.6,4.2,21.2,8c5.8,3.4,12.4,8.1,15.3,14.6c1.5,3.3,6.4,2.9,7.1-0.4c1.7-7.6-0.2-15.5-5.2-21.4
					c-5.2-6.5-13.2-10.4-20.5-13c-8.5-3-17.3-4.6-26.3-5c-7.9-0.4-16.1,0.1-23.5,2.5c-2.1,0.7-4.2,1.6-6.1,2.7
					c-2.6,1.7-4.1,3.4-4.3,6.8c0,2.1,1.5,3.8,3.6,4.1c1.7,0.2,3.3-0.1,4.8-0.9c0.6-0.3,1.2-0.6,1.8-0.9l1-0.4l0.7-0.3l0.7-0.2
					c0.3-0.1,1.5-0.5,0.1-0.1l1.1-0.4c0.8-0.2,1.5-0.4,2.3-0.6c1.8-0.4,3.7-0.8,5.5-1c8.1-0.9,16.2-0.6,24.2,0.8
					c4,0.6,7.9,1.6,11.8,2.9c1.9,0.6,3.7,1.4,5.5,2.1c0.9,0.4,1.7,0.8,2.6,1.2c0.1,0,1.5,0.8,0.5,0.2c0.5,0.3,1.1,0.6,1.6,0.9
					c1.5,0.9,3,1.9,4.4,3c0.3,0.3,0.7,0.5,1,0.8c1.1,0.9-0.7-0.7,0.3,0.3c0.7,0.6,1.3,1.3,1.9,2c0.3,0.3,0.5,0.6,0.7,0.9
					c0.8,1-0.5-0.9,0.2,0.2c0.4,0.6,0.8,1.3,1.1,2c0.2,0.3,0.3,0.7,0.5,1c-0.4-1,0,0.1,0.1,0.3c0.3,0.9,0.4,1.8,0.6,2.6
					c0.2,1.3,0.2,2.7-0.2,4.1l7.1-0.4c-3.6-7.7-10.4-13.7-17.1-18.3c-7.6-5.2-16.1-9.7-24.8-11.6c-3.6-0.8-7.3-0.8-11-1.1
					c-4.9-0.4-9.8-0.6-14.8-0.5c-10,0.3-19.8,1.9-27,9.3C662.9,257.6,666.2,262.9,669.2,260.9L669.2,260.9z"/>
				<path class="st10" d="M698.7,285.3c0,0,1,0.9,1.4,1.3c1.2,0.7,2.5,1.1,3.8,1.2c3,0.5,6.2,1.8,9.2,1.8c5.6,0,5.5-7.8,0.1-9
					c-3.5-0.7-7.3-0.3-10.8,0C700.9,280.6,696.6,283,698.7,285.3L698.7,285.3z"/>
				<path class="st10" d="M766.7,285.6c1.5,3.5,2.5,7.4,5.5,9.9c1.2,0.9,2.9,0.6,3.7-0.6c0.4-0.5,0.5-1.1,0.5-1.7
					c-0.4-3.8-3-7-5-10.1S765.2,282.2,766.7,285.6L766.7,285.6z"/>
				<path class="st11" d="M548.4,322.1c0.1,1.9-0.1,3.7,0,5.5c0,1.4,1.1,2.7,2.5,2.9c1.3,0.1,2.4-0.9,2.5-2.2c0-0.1,0-0.1,0-0.2
					c0.1-1.8,0.3-3.7,0.3-5.5c0-1.5-1.1-2.8-2.7-3c-1.4-0.1-2.6,0.9-2.7,2.3C548.3,321.9,548.3,322,548.4,322.1L548.4,322.1z"/>
				<path class="st12" d="M29.1,22.2c-17.3-7.3-36.8,7.1-53.2,13.6c-14.7,5.8-30.4,9.2-45.2,15.7c-16.7,7.3-34.7,9.4-50.1,17.3
					c-14.4,7.3-28.2,17.8-40.2,26.9c-2.8,6.6-8.9,14.5-12.3,22c40.2,8,88.2-4.2,125.6-24c15.3-8.1,90.1-43.5,77.5-67L29.1,22.2z"/>
				<path class="st13" d="M-252,429.8c-14.5-10.6-15.1-33.2-11.3-50.4c6.4-29.1,29.4-43.9,46.9-65.9c12.1-15.1,17.2-37.6,19.3-56.2
					c2.6-23.3,10-44.3,13.6-67.3c2.8-17.5,1.6-35.2,4.1-51.8c2.3-15.8,4.9-25.3,19.4-33.1c11.5-6.2,24.9-8.1,36.9-13.6
					c8.8-4.1,17.3-8.9,26-13.3c6.2-3.2,12.7-6.1,19.3-8.4c1.5-0.5,2.9-1,4.4-1.4c18-5.7,36.4-9.3,53-18.8
					c9.4-5.3,22.7-9.4,30.5-16.3c-10.3-12,21.2-18,28.2-18.2c9.7-0.2,16.4,5.2,20.9,12.9c3.5,5.9,5.6,13,6.7,19.9
					c7.4,43.1-6.3,87.8-28,124.6C18.6,205.2-9.9,231-39.2,254.8c-14.9,12.1-30.1,23.8-44.8,36.1c-11.4,9.5-28.3,18.6-37.5,30.1
					c-10.1,12.7-24.7,23.1-33.1,37.6c-3.1,5.6-5.4,11.7-6.9,18c-3,12.1-4.1,25.3-6.6,36.8c-2.6,12.3-15.7,27-28.8,28
					c-6.1,0.5-13.7-2.9-19.9-3.6c-8.7-1-17.4-1.1-25.9-3.5C-246,433.4-249.2,431.9-252,429.8z"/>
				<path class="st12" d="M-67.9,72.4c-2.1-1-3.9-2.4-5.4-4.2c18-5.7,36.4-9.3,53-18.8c9.3-5.3,22.6-9.4,30.4-16.3
					c-10.3-12,21.2-18,28.2-18.2c9.7-0.2,16.4,5.2,20.9,12.9c-7.1-2-15.3,7-21.8,12.2C25.9,49.3,15,52.3,0.4,53
					c-11,0.6-25.7,2.4-35.4,7.5C-46.2,66.4-54.1,79.5-67.9,72.4z"/>
				<path class="st14" d="M-144.1,113.1c10.4-1.9,20.5-5.4,29.9-10.4c8.6-4.4,16.6-9.8,25.5-14.5C-71.3,78.9-56.6,67-38,59.3
					c8.5-3.5,16.3-8,25.2-10.1c6.7-1.6,12.9-1.2,19.3-4.6c8.1-4.3,19.3-8.4,24.1-16.3c1.3-2-18.6,1.4-19.9,1.8
					c-7.3,2.4-15.9,4.2-23.2,7.2c-5.4,2.2-10.2,5.9-15.5,8.4c-24.4,11.5-49.9,23.5-75.9,32C-116.1,81.6-128,86-139.8,91
					c-10.4,4.6-30.6,12.9-32.9,25.6C-165.6,120.3-151.8,114.4-144.1,113.1z"/>
				<path class="st15" d="M49.6,60.6c0,0.2-0.2,1.5,0,1c-0.3,0.7-0.4,1.5-0.5,2.3c-0.1,1.5,0,3,0.1,4.5c0.3,1.9,1.8,3.3,3.7,3.5
					c2.5,0.3,4.1-1.5,4.6-3.7c0.9-3.3,0-6.8-2.4-9.2C53.4,57.3,49.7,57.6,49.6,60.6z"/>
				<path class="st15" d="M34.7,68.3c-1.5,1.2-2.5,2.9-3,4.7c-0.2,0.8-0.2,1.6,0,2.3c0.1,0.4,0.2,0.8,0.5,1.1
					c0.9,1.1,0.1-0.7,0.3,0.8c0.1,0.4,0.4,0.7,0.8,0.6c0.1,0,0.2-0.1,0.3-0.1c0.7-0.3,0.8-0.4,0.2-0.3c0.4,0,0.9,0,1.2-0.2
					c0.9-0.4,1.7-1.2,2.1-2.1c1-1.7,1.4-3.6,1.1-5.5c-0.2-1.2-1.4-2.1-2.6-1.9C35.3,67.9,35,68,34.7,68.3L34.7,68.3z"/>
				<path class="st15" d="M20,76.1c-0.5,0.6-0.6,1.5-0.3,2.2l0.3,0.6c0.2,0.4,0.7,0.6,1.1,0.4l0.6-0.2c0.7-0.3,1.2-1,1.3-1.8
					c0.1-0.9-0.5-1.7-1.5-1.8C20.9,75.4,20.3,75.6,20,76.1L20,76.1z"/>
				<path class="st15" d="M5.8,82.3L5.3,83c-0.7,0.9-0.9,2-0.5,3.1c0.6,1.3,2.1,1.9,3.4,1.3c0,0,0,0,0,0c1-0.4,1.7-1.4,1.7-2.5
					c0-0.3,0-0.6,0.1-1c0.1-1.3-0.8-2.4-2.1-2.5C7.1,81.3,6.3,81.7,5.8,82.3z"/>
				<path class="st15" d="M48.8,90.4c-0.2,1.3-0.4,2.7-0.7,4c-0.5,1.7-1.5,3.1-1.3,4.9c0.2,1.6,1.7,2.7,3.3,2.4c0,0,0,0,0,0
					c4.8-1.3,4.8-8.4,2.8-12C51.9,88,49.2,88.2,48.8,90.4z"/>
				<path class="st15" d="M29.4,96.2c-0.2,0.2-0.4,0.3-0.5,0.4l0.7-0.4c-0.2,0.1-0.4,0.2-0.6,0.3c-0.9,0.4-1.7,1.1-2,2.1
					c-0.3,0.8-0.3,1.7,0.1,2.4c0.2,0.5,0.6,1,1,1.3c0.5,0.3,1,0.6,1.6,0.6c1.4,0.2,2.8-0.4,3.5-1.6c0.5-0.7,0.8-1.6,1-2.5
					c0.2-1.6-1-3.1-2.6-3.2C30.8,95.5,30.1,95.7,29.4,96.2L29.4,96.2z"/>
				<path class="st15" d="M10,103.7c-0.1,0.2-0.2,0.3-0.4,0.4l0.6-0.4c-0.9,0.2-1.7,0.8-2.1,1.6c-0.2,0.8-0.3,1.6-0.3,2.4
					c0,0.3,0.4,0.6,0.7,0.3c0.3-0.3,0.6-0.5,1-0.7c0.4-0.2,0.9-0.3,1.2-0.7c0.3-0.4,0.4-0.8,0.6-1.2c0.1-0.3,0.1-0.6,0.1-0.8
					c-0.1-0.7-0.1,0.2,0-0.5c0-0.4-0.3-0.8-0.7-0.9C10.4,103.4,10.1,103.5,10,103.7L10,103.7z"/>
				<path class="st15" d="M38,124.3c-0.6,0.5-1.1,1.1-1.6,1.7c-0.4,0.5-0.6,1.1-0.9,1.7c-0.6,1.3,0.7-1.1-0.1,0.2
					c-1.2,1.8-2.6,3.1-2.8,5.4c-0.3,2.9,1.8,5.5,4.7,5.9c3.6,0.4,6.4-2.2,7.9-5.3c1.1-2.3,1.9-5.3,0.5-7.6c-0.6-1.2-1.6-2.1-2.8-2.7
					C41.3,122.9,39.4,123.2,38,124.3z"/>
				<path class="st15" d="M20.8,128.6c-1.4,0.2-2.6,0.9-3.5,1.9c-1.7,1.7-1.8,4.3-0.4,6.1c0.9,1.1,2.3,1.7,3.7,1.4
					c1.2-0.2,2.3-0.9,3-1.9c0.8-1.2,1.1-2.6,0.8-3.9C24.2,130.5,23,128.3,20.8,128.6L20.8,128.6z"/>
				<path class="st15" d="M4.8,133l-0.2,0.1l1-0.4c-1.1,0.2-2,0.7-2.6,1.6c-0.7,1.1-0.8,2.5-0.2,3.6c0.6,1.3,2.1,1.9,3.5,1.4
					c1.2-0.5,2.1-1.5,2.3-2.8c0.1-1.1-0.2-2.2-0.9-3l0.4,1v-0.2c-0.1-0.7-0.6-1.3-1.3-1.6C6.2,132.4,5.4,132.5,4.8,133L4.8,133z"/>
				<path class="st16" d="M91.8,94.9c-5.2,7.3-7.5,16.2-11,24.4c-6.1,14-7.8,27.3-11.8,42c-2.3,8.6-4.9,17.6-11.5,23.6
					c-4.1,3.7-9.4,5.8-14.3,8.4s-9.8,6-11.9,11.1s-0.4,12.2,4.8,14.1c17.1,6.1,31.8-8.1,49.9-10.4c9.6-1.3,33.9,3.4,23.8-14.2
					c-2.4-4.2-6.1-7.8-7.4-12.5c-0.6-2.6-0.8-5.3-0.6-8c0.5-19,1-38,1.5-57c0.1-5.1,0.6-10.8,4.4-14.1c2.2-1.9,5.1-2.6,7.8-3.7
					c8.9-3.4,8-11-0.2-13.5C106.3,82.3,97.1,87.5,91.8,94.9z"/>
				<g>
					<defs>
						<path id="SVGID_3_" d="M91.8,94.9c-5.2,7.3-7.5,16.2-11,24.4c-6.1,14-7.8,27.3-11.8,42c-2.3,8.6-4.9,17.6-11.5,23.6
							c-4.1,3.7-9.4,5.8-14.3,8.4s-9.8,6-11.9,11.1s-0.4,12.2,4.8,14.1c17.1,6.1,31.8-8.1,49.9-10.4c9.6-1.3,33.9,3.4,23.8-14.2
							c-2.4-4.2-6.1-7.8-7.4-12.5c-0.6-2.6-0.8-5.3-0.6-8c0.5-19,1-38,1.5-57c0.1-5.1,0.6-10.8,4.4-14.1c2.2-1.9,5.1-2.6,7.8-3.7
							c8.9-3.4,8-11-0.2-13.5C106.3,82.3,97.1,87.5,91.8,94.9z"/>
					</defs>
					<clipPath id="SVGID_4_">
						<use xlink:href="#SVGID_3_"  style="overflow:visible;"/>
					</clipPath>
					<g class="st17">
						<path class="st18" d="M138.8,100.1c-0.1-0.4-0.2-0.8-0.3-1.3c-0.8-3.6-4-6.2-7.3-7.3c-11-3.4-19.4-0.3-28.1,6.6
							c-9.7,7.6-6.9,24.1-7.7,34.7c-1.8,24.2-11.1,71.1,18.3,81.7c5.1,1.8,12-3.1,11.4-8.7c-1.2-10.2-4.7-19.6-5.3-29.9
							c-0.6-10.4-0.5-20.7,0.3-31.1c0.7-9.8,1.3-19.4,1.4-29.2c0-3.9,10.6-3.9,13.2-5.8C138.1,107.3,139.7,104.2,138.8,100.1z"/>
						<path class="st18" d="M121.8,79.9c-10.2-5.8-19.4-2-28,5.1c-9.7,8-11.2,21.3-10.9,32.9c0.5,19.6,0.8,37.4-2.2,57
							c-2.6,16.9-6.9,34.6-5.4,51.7c0,1.6,1.3,2.9,2.9,2.9c1.6,0,2.9-1.3,2.9-2.9c1.8-24.9,6-49.3,8.3-74.1
							c1.1-11.6-0.1-23-0.8-34.6c-1.2-19,10-40.8,32.5-36.3c0.5,0.1,1-0.2,1.1-0.7C122.2,80.5,122.1,80.1,121.8,79.9L121.8,79.9z"/>
						<path class="st18" d="M73.3,122.6C74.7,157.8,72.8,190,60,223c-1,2.5,2.9,3.9,4.2,1.8c19-30,15.4-68.6,11.1-102.2
							C75.2,121.3,73.2,121.3,73.3,122.6L73.3,122.6z"/>
						<path class="st18" d="M57.8,173.1c-9.9,15.3-16.4,35.2-14.5,53.5c0.1,1.2,1.1,2.1,2.3,2c1.1-0.1,1.9-0.9,2-2
							c1.2-17.8,4.5-36,13.1-51.8c0.4-0.8,0.2-1.8-0.6-2.3C59.2,172,58.2,172.3,57.8,173.1z"/>
					</g>
				</g>
				<path class="st19" d="M263,382c13-18.5,17.8-51.1,18.5-74.3c0.9-27.8-13.8-53.6-30.9-74.7c-9.9-12.2-20.9-23.7-34-31.7
					s-28.6-12.2-43.4-9.4c-10.2,2-20,7.3-30.4,7.3c-13.1,0-27.1-8.3-38.7-1.8c-2.9,1.6-5.5,4.1-8.8,4.3c-7,0.3-12.9-10.2-19.2-7
					c-1.8,0.9-3,2.9-4.4,4.5c-6.3,7.6-17,9-26.4,7s-18-6.6-27.1-9.6c-36-11.8-81.1-7-110.9,17.3c-21.6,17.6-32.8,43.4-37,72.2
					c-3,20.5,0.1,50.9,6.6,70.6s14.4,38.8,26.1,55.3s27.2,30.5,45.6,37.1c25.6,9.2,53.4,3.5,80.3,4.1c29.3,0.6,58.4,8.8,87.6,7.3
					C172.9,457.5,229.3,430,263,382z"/>
				<g>
					<defs>
						<path id="SVGID_5_" d="M263,382c13-18.5,17.8-51.1,18.5-74.3c0.9-27.8-13.8-53.6-30.9-74.7c-9.9-12.2-20.9-23.7-34-31.7
							s-28.6-12.2-43.4-9.4c-10.2,2-20,7.3-30.4,7.3c-13.1,0-27.1-8.3-38.7-1.8c-2.9,1.6-5.5,4.1-8.8,4.3c-7,0.3-12.9-10.2-19.2-7
							c-1.8,0.9-3,2.9-4.4,4.5c-6.3,7.6-17,9-26.4,7s-18-6.6-27.1-9.6c-36-11.8-81.1-7-110.9,17.3c-21.6,17.6-32.8,43.4-37,72.2
							c-3,20.5,0.1,50.9,6.6,70.6s14.4,38.8,26.1,55.3s27.2,30.5,45.6,37.1c25.6,9.2,53.4,3.5,80.3,4.1c29.3,0.6,58.4,8.8,87.6,7.3
							C172.9,457.5,229.3,430,263,382z"/>
					</defs>
					<clipPath id="SVGID_6_">
						<use xlink:href="#SVGID_5_"  style="overflow:visible;"/>
					</clipPath>
					<g class="st20">
						<g class="st21">
							<path class="st22" d="M144.9,161.5c-15.2-23.6-41.2-27.5-65.3-14.6c-21.4,11.5-198.2,14.2-209,35.2
								c-24.7,48-58.9,188.6-38.8,238.2c23,56.9,264.6,43.3,321.1,68.6c30.3,13.6,61.5,21.8,95,20.9c16.5-0.5,33.5-2.5,49.1-7.7
								c18.4-6.2,31.9-14.9,47-26.6c10.2-7.9,12.9-24.9,9.7-36.6c-4.7-16.7-19.5-26.8-36.3-27.6c-9.9-0.5-19.8-1.7-29.7-2.1
								c-5.6-0.3-11.1-1-16.6-1.5c-3.8-0.3-23-2.5-6.1-0.1c-21.6-3-43-9.5-63.4-17.1c-5.5-2.2-4.1-1.6,4,1.8c-2-0.9-4-1.8-6-2.7
								c-5-2.3-9.9-4.9-14.8-7.5s-9.5-5.5-14.2-8.4c-3.1-2-18.5-13.4-5.2-3.1c-8.6-6.8-16.7-14.2-24.2-22.3
								c-2.4-2.6-14.2-17.3-4.5-4.5c-3.4-4.3-6.5-8.9-9.6-13.4c-5.6-8.2-10.4-16.7-14.6-25.7c-2.2-4.8-1.8-4,1,2.5
								c-1.3-3.1-2.4-6.2-3.6-9.4c-1.9-5.3-3.4-10.6-4.9-16.1s-2.4-11-3.3-16.6c2,12.3-0.1-4.1-0.2-6.9c0-2.8,0.1-5.7,0.4-8.5
								c0.9-11-1.8,10.2,0.3-1.8c1.5-8.6,3-17.1,5.2-25.5c1.1-4.3,2.5-8.6,4-12.8c1.4-3.7,1.2-3.3-0.7,1.2c1-2.4,2.2-4.7,3.4-7
								c1.8-3.6,3.9-7,6.1-10.4c-5.7,8.5,7.7-5.2-0.5,0.6c2.6-1.8,5.1-3.8,7.4-5.9c4.7-4.1-5.2,3.1,0.3,0c2.1-1.2-2.1,0,2.2-0.2
								C142.3,187.6,152.4,173.3,144.9,161.5L144.9,161.5z"/>
						</g>
						<g class="st21">
							<path class="st22" d="M107.5,160.1c-15.2-23.6-73.8-9.3-97.8,3.6c-21.4,11.5-198.2,14.2-209,35.2
								c-24.7,47.9-58.9,188.6-38.9,238.3c23,56.9,264.6,43.3,321.1,68.6c30.3,13.6,61.5,21.8,95,20.9c16.5-0.5,33.5-2.5,49.1-7.7
								c18.4-6.2,31.9-14.9,47-26.6c10.2-7.9,12.9-24.9,9.7-36.6c-4.6-16.8-19.5-26.8-36.3-27.6c-9.9-0.5-19.8-1.7-29.7-2.1
								c-5.6-0.3-11.1-1-16.6-1.5c-3.8-0.3-23-2.5-6.1-0.1c-21.6-3-43-9.5-63.4-17.1c-5.5-2.2-4.1-1.6,4,1.8c-2-0.9-4-1.8-6-2.7
								c-5-2.3-9.9-4.9-14.7-7.4s-9.5-5.5-14.2-8.4c-3.2-2-18.5-13.4-5.2-3.1c-8.6-6.8-16.7-14.2-24.2-22.3
								c-2.4-2.6-14.2-17.3-4.5-4.5c-3.3-4.4-6.5-8.9-9.6-13.4c-5.6-8.1-10.4-16.7-14.6-25.6c-2.2-4.8-1.8-4,1,2.5
								c-1.3-3.1-2.5-6.2-3.6-9.4c-1.9-5.3-3.5-10.6-4.9-16.1s-2.4-11-3.3-16.6c2,12.3-0.1-4.1-0.2-6.9c0-2.8,0.1-5.7,0.4-8.5
								c0.9-11-1.8,10.2,0.3-1.8c1.5-8.6,3-17.1,5.2-25.5c1.1-4.3,2.5-8.6,4-12.8c1.4-3.7,1.2-3.3-0.7,1.2c1-2.4,2.2-4.7,3.4-7
								c1.8-3.6,3.9-7,6.1-10.4c-5.8,8.5,7.7-5.2-0.5,0.6c2.6-1.8,5.1-3.8,7.4-5.9c4.7-4.1-5.2,3.1,0.3,0.1
								C59.6,204,107.5,160.1,107.5,160.1z"/>
						</g>
						<g class="st23">
							<path class="st22" d="M38,150.7c-15.8-28.9-85.7-17.1-114.9-4c-26.1,11.7-233.4-0.1-247.9,23.6c-33,54.1-84.9,216-65.6,275.9
								C-368.3,514.8-84,519.3-20,553.6c34.4,18.5,70.2,30.7,109.5,32.4c19.4,0.8,39.4-0.1,58.2-4.9c22.1-5.7,38.6-14.7,57.3-27.2
								c12.6-8.4,17.2-28.1,14.4-42.1c-4-20-20.5-33-40.2-35.4c-11.6-1.4-23-3.6-34.6-5c-6.5-0.8-12.9-2.1-19.3-3.1
								c-4.4-0.7-26.8-4.8-7.1-0.6c-25.1-5.4-49.6-14.7-72.9-25.4c-6.2-3-4.7-2.2,4.6,2.5c-2.3-1.2-4.6-2.4-6.8-3.7
								c-5.7-3.1-11.2-6.5-16.6-10s-10.7-7.2-15.9-11c-3.6-2.6-20.6-17.2-5.9-4.1c-9.5-8.7-18.4-18.1-26.5-28.1
								c-2.6-3.2-15.2-21.4-4.9-5.7c-3.5-5.4-6.9-10.9-10.2-16.5c-5.8-10-10.8-20.5-15-31.3c-2.1-5.8-1.8-4.8,0.9,3.1
								c-1.2-3.7-2.3-7.5-3.4-11.3c-1.8-6.3-3.1-12.8-4.3-19.2s-1.9-13.1-2.5-19.7c1.3,14.6,0.2-4.8,0.3-8.1
								c0.2-3.3,0.6-6.6,1.1-9.9c2-12.8-2.9,11.8,0.5-2.1c2.5-9.9,4.9-19.7,8.2-29.4c1.7-5,3.7-9.8,5.8-14.6c2-4.2,1.7-3.8-0.9,1.3
								c1.4-2.7,3-5.3,4.6-7.9c2.4-4,5.1-7.9,8-11.6c-7.5,9.4,9.5-5.4-0.7,0.6c3.2-1.9,6.3-4,9.2-6.3c5.9-4.4-6.3,3.2,0.3,0.1
								C-22,198.2,38,150.7,38,150.7z"/>
						</g>
					</g>
				</g>
				<g>
					<defs>
						<path id="SVGID_7_" d="M263,382c13-18.5,17.8-51.1,18.5-74.3c0.9-27.8-13.8-53.6-30.9-74.7c-9.9-12.2-20.9-23.7-34-31.7
							s-28.6-12.2-43.4-9.4c-10.2,2-20,7.3-30.4,7.3c-13.1,0-27.1-8.3-38.7-1.8c-2.9,1.6-5.5,4.1-8.8,4.3c-7,0.3-12.9-10.2-19.2-7
							c-1.8,0.9-3,2.9-4.4,4.5c-6.3,7.6-17,9-26.4,7s-18-6.6-27.1-9.6c-36-11.8-81.1-7-110.9,17.3c-21.6,17.6-32.8,43.4-37,72.2
							c-3,20.5,0.1,50.9,6.6,70.6s14.4,38.8,26.1,55.3s27.2,30.5,45.6,37.1c25.6,9.2,53.4,3.5,80.3,4.1c29.3,0.6,58.4,8.8,87.6,7.3
							C172.9,457.5,229.3,430,263,382z"/>
					</defs>
					<clipPath id="SVGID_8_">
						<use xlink:href="#SVGID_7_"  style="overflow:visible;"/>
					</clipPath>
					<g class="st24">
						<g class="st25">
							<path class="st22" d="M-30.3,366.4c-13.7-33.8-14.8-79.4,5-111.5c18.2-29.4,43.7-55.3,69.3-78.3c8.2-7.4,17.7-17.7,28.4-21.3
								c14.3-4.8,31.1-3.6,45.9-3.4c17.8,0.3,35.6,1.5,53.4,2c13,0.3,28.4,0.3,38.6-8.8c5.4-4.8,2.7-14.9-4.3-16.4
								c-13.9-2.9-28.9-1.4-43.1-1.5c-20.1-0.1-40.1-0.9-60.2,0c-15,0.7-31,2.5-44.5,9.8c-12.3,6.6-23,19.7-32.5,29.6
								c-24.9,25.7-52.9,53.4-69,85.8c-18.1,36.3-12.5,82.5,6.8,116.8C-34.7,372.3-28.9,370-30.3,366.4L-30.3,366.4z"/>
						</g>
						<g class="st26">
							<path class="st22" d="M33.9,266.1c-8.9,14.5-10.1,31.6-10,48.2c0.1,21,2.1,42.1,7.9,62.3c13.2,45.7,41.7,84.1,71.9,120.1
								c3.7,4.4,10.4-0.3,9.1-5.3c-4.4-17.2-18.7-30.6-29.6-43.9c-14.8-18.1-25.6-39.9-34.3-61.6c-7.8-19.5-11.4-40-13.6-60.8
								c-1.8-17.8-4-39.4,3.4-56.2C40.2,265.7,35.9,263,33.9,266.1L33.9,266.1z"/>
						</g>
						<g class="st26">
							<path class="st22" d="M41.4,250.1c4-12.6,8.9-24.5,16-35.6c6.1-9.4,15.7-16.8,24.1-24.1c3.1-2.7-0.8-7-4.1-5.3
								c-25.9,13-35.6,36.5-40.9,63.8C35.8,252,40.4,253.3,41.4,250.1L41.4,250.1z"/>
						</g>
						<g class="st27">
							<path class="st22" d="M143.4,197.7c20.4,9.2,43.6,17.7,56.5,37.1s17.6,48.4,19,71c4,63.8-39.1,110.1-72.9,158.9
								c-3.8,5.5,4.4,11.2,9,6.9c48.2-44.6,87.4-105.8,81.8-173.8c-2-24.9-8.3-53.2-23.2-73.7c-15.5-21.3-41.6-30.7-66.6-34.8
								C142.3,188.5,138.3,195.4,143.4,197.7L143.4,197.7z"/>
						</g>
						<g class="st28">
							<path class="st22" d="M107.7,163.4c-4.3,2.5-7.2,6.8-8,11.6c-0.8,5.9,5.9,9.6,9.9,12.9c15.4,12.3,16.4,27.4,23.5,44.9
								c2.4,5.9,10.7,5.2,11.2-1.5c1.1-16.3-3.3-35.7-16.4-46.6c-4.3-3.6-9.2-6.2-13.9-9c-1.2-0.8-2.4-1.5-3.6-2.4
								c-4.4-2.9-0.1,2.7,0.4-1.4c0.4-2.6,0.1-5.2-0.7-7.6c-0.2-0.9-1.2-1.4-2-1.2C108,163.3,107.8,163.3,107.7,163.4L107.7,163.4z"
								/>
						</g>
						<g class="st28">
							<path class="st22" d="M142.1,263.2c16,42.4,13.1,91.9,0.4,134.8c-6.6,22.3-15.4,43.8-22.9,65.7c-5.3,15.3-8.2,31.8-3.8,47.6
								c1.5,5.5,10.9,6.3,11.9,0c2.8-17.3,3.4-32.7,9.2-49.5c8.2-23.7,17.1-47,23.5-71.3c11.1-42.8,10.4-91.1-12.6-129.7
								C146,257.8,140.8,259.8,142.1,263.2L142.1,263.2z"/>
						</g>
					</g>
				</g>
				<g class="st29">
					<path class="st19" d="M126.7,403.7c6.8-31.1,17.4-59.8,17.6-92.1c0.3-30.4-8.1-60-20.8-87.4c-14.5-31.4-68.3-8.7-55.9,23.6
						c9.3,24.1,19.3,45.2,23.9,71c5.1,28.2-1.4,56.9,5.8,85C101.1,417.9,123.4,418.5,126.7,403.7L126.7,403.7z"/>
				</g>
				<g class="st29">
					<path class="st19" d="M166.1,235.5c9.7,21,20.1,40.7,20.2,64.4c0.1,21.8-10,41.5-12.2,62.9c-0.9,9,12.3,14.3,18,7.5
						c34.9-41.5,26.7-112.1-18.2-142.5C168.6,224.1,163.8,230.8,166.1,235.5L166.1,235.5z"/>
				</g>
				<g class="st29">
					<path class="st19" d="M258.4,358.1c18.9-29.8,27-84.4-4-109.3c-5.9-4.8-16.1-0.6-13.6,7.9c9.9,33.1,19.1,63.6,10.7,98.5
						c-0.5,2,0.8,4.1,2.8,4.6C255.9,360.2,257.5,359.5,258.4,358.1L258.4,358.1z"/>
				</g>
				<g class="st29">
					<path class="st19" d="M29.1,221.1c-11.5-9.2-25.2,1.8-31.8,12c-10.4,15.8-11.6,33.7-1.4,49.8c5,7.9,17.4,6.8,20-2.6
						c2.7-9.8,2.9-18.5,3.5-28.5c0.5-7.7,4.1-17.6,9.8-23C31.1,226.8,31.4,222.9,29.1,221.1L29.1,221.1z"/>
				</g>
				<g class="st29">
					<path class="st19" d="M127.6,366.4c5-13.6,10.8-24.9,13.1-39.5c2.1-13.1,3.7-26.4,2.6-39.6c-1.9-22.2-11-51.7-29.3-65.4
						c-6.4-4.8-15.6,1.8-15.5,8.9c0.1,11.4,5.3,21.3,9.6,31.6c4.4,10.6,7,21.6,8.9,32.9c4,23.6-1.8,47.9,2.8,71.3
						C120.7,370.6,126.3,369.8,127.6,366.4z"/>
				</g>
				<path class="st30" d="M125.3,238.1c-0.6-2.7-1.1-5.4-1.4-8.1c-0.5-2.6-1.2-5.2-2-7.8c-1.2-4-5.3-6.3-9.4-5.2
					c-0.6,0.2-1.1,0.4-1.6,0.7c-5,2.9-4.7,9.9,0,12.9c0.9,0.6,2.2,3.4,3,4.6c1.5,2.4,3.3,4.5,5.4,6.4
					C122,243.9,126.3,241.8,125.3,238.1z"/>
				<path class="st30" d="M166.7,219.4c-2.6,0.7-4.7,2.8-5.3,5.5c-0.5,2.8,0.1,5.9,2.5,7.8c1.9,1.5,4,2.4,6.5,1.7
					c2-0.6,4.3-2.4,4.6-4.6c0.4-2.4,0.6-4.7-0.7-6.9C172.9,220.3,169.7,218.5,166.7,219.4L166.7,219.4z"/>
				<path class="st31" d="M375,289.3c2.2,1.1,3.6,3.3,4.9,5.5c12.5,21.5,19.5,46.4,19.1,71.2s-8.6,49.8-23.9,69.4
					c-5.9,7.4-12.5,14.2-19.6,20.5c-8.6,7.8-17.8,15.3-28.2,20.5c-16.4,8.1-113.4,28.8-150.9-20.4c-13.5-17.7-31.2-36.8-36.7-58.4
					c-9.2-36.1-10.1-45.5-11.4-64.2c-1.6-23.2,19.5-20.2,32-13.8c3.8,1.9,7.1,4.9,11.1,6.2c7.5,2.5,15.6-0.8,23-3.8s16.1-5.4,23-1.3
					c2.2,1.3,4.1,3.3,6.5,4.2c2.6,1,5.6,0.7,8.3,0.1c8.5-1.8,16.3-6.2,22.3-12.5c4-4.3,7.4-9.6,12.9-11.9c4.8-2,10.3-1.2,15.5-1.4
					s11.2-2.1,13.1-6.9c1.1-2.8,0.6-6,1.6-8.9c2.2-6.8,10.9-8.5,18-9c11.8-0.9,23.8-1.6,35.3,1s22.7,8.9,28.7,19L375,289.3z"/>
				<g>
					<defs>
						<path id="SVGID_9_" d="M375,289.3c2.2,1.1,3.6,3.3,4.9,5.5c12.5,21.5,19.5,46.4,19.1,71.2s-8.6,49.8-23.9,69.4
							c-5.9,7.4-12.5,14.2-19.6,20.5c-8.6,7.8-17.8,15.3-28.2,20.5c-16.4,8.1-113.4,28.8-150.9-20.4c-13.5-17.7-31.2-36.8-36.7-58.4
							c-9.2-36.1-10.1-45.5-11.4-64.2c-1.6-23.2,19.5-20.2,32-13.8c3.8,1.9,7.1,4.9,11.1,6.2c7.5,2.5,15.6-0.8,23-3.8
							s16.1-5.4,23-1.3c2.2,1.3,4.1,3.3,6.5,4.2c2.6,1,5.6,0.7,8.3,0.1c8.5-1.8,16.3-6.2,22.3-12.5c4-4.3,7.4-9.6,12.9-11.9
							c4.8-2,10.3-1.2,15.5-1.4s11.2-2.1,13.1-6.9c1.1-2.8,0.6-6,1.6-8.9c2.2-6.8,10.9-8.5,18-9c11.8-0.9,23.8-1.6,35.3,1
							s22.7,8.9,28.7,19L375,289.3z"/>
					</defs>
					<clipPath id="SVGID_10_">
						<use xlink:href="#SVGID_9_"  style="overflow:visible;"/>
					</clipPath>
					<g class="st32">
						<g class="st29">
							<path class="st19" d="M134.5,308.5c-6.1,4.7-8.6,10.8-9.2,18.5c-1.1,13.6,0.4,28.4,1.3,42c1.8,25.9,12.6,50.7,28,71.3
								c13.7,18.4,30.4,34.8,52.1,43.3c28.1,10.9,55.4,12.4,84.8,7c25.8-4.7,51-13.4,70.1-31.9c17.8-17.1,27.7-41.8,33.6-65.2
								c6.3-25.1,5.9-51.8,0-76.9c-5-21.1-17.6-49-38.2-59c-4.3-2.1-8.1,1.3-7.5,5.7c1.1,8.1,6.5,12.6,11.9,18.3
								c8.1,8.5,12.9,20.3,16.6,31.2c7.4,21.9,7.7,46.1,3.9,68.7c-3.4,20.1-11.1,39.2-22.5,56c-14,20.4-36.5,29.6-59.5,35.5
								c-46.4,11.8-93.9,4.1-126.2-33.2c-14.3-16.3-24.4-35.8-29.4-56.9c-2.9-11.9-3-24.4-4.3-36.6c-1.2-10.7-6.2-23.3-1.3-33.6
								C139.9,310.2,137.2,306.4,134.5,308.5L134.5,308.5z"/>
						</g>
					</g>
				</g>
				<path class="st33" d="M181.9,333.5c-3.5,24.2,14.1,46.9,32.4,60.5c21.2,15.8,52,21.1,77.9,18.3c27-3,49.2-17.1,63.1-40.6
					c14.9-25.2,16.4-63.9-1.1-88.5c-11.7-16.4-43.2-6.9-35,14.7c7.3,19.2,14.1,34.9,4.3,55.2c-7,14.6-20.6,22.1-35.8,25.9
					c-17.7,4.4-36.3,0.8-53.4-4.5c-15.5-4.9-37.1-21.7-38.6-39.1C195.1,328,183.1,325.1,181.9,333.5L181.9,333.5z"/>
				<g>
					<defs>
						<path id="SVGID_11_" d="M375,291.9c2.2,1.1,3.6,3.3,4.9,5.5c12.5,21.5,19.5,46.4,19.1,71.2s-8.6,49.8-23.9,69.4
							c-5.9,7.4-12.5,14.2-19.6,20.5c-8.6,7.8-17.8,15.3-28.2,20.5C311,487,214,507.7,176.4,458.5c-13.5-17.7-31.2-36.8-36.7-58.4
							c-9.2-36.1-10.1-45.5-11.4-64.2c-1.6-23.2,19.5-20.2,32-13.8c3.8,1.9,7.1,4.9,11.1,6.2c7.5,2.5,15.6-0.8,23-3.8
							s16.1-5.4,23-1.3c2.2,1.3,4.1,3.3,6.5,4.2c2.6,1,5.6,0.7,8.3,0.1c8.5-1.8,16.3-6.2,22.3-12.5c4-4.3,7.4-9.6,12.9-11.9
							c4.8-2,10.3-1.2,15.5-1.4s11.2-2.1,13.1-6.9c1.1-2.8,0.6-6,1.6-8.9c2.2-6.8,10.9-8.5,18-9c11.8-0.9,23.8-1.6,35.3,1
							s22.7,8.9,28.7,19L375,291.9z"/>
					</defs>
					<clipPath id="SVGID_12_">
						<use xlink:href="#SVGID_11_"  style="overflow:visible;"/>
					</clipPath>
					<g class="st34">
						<g class="st35">
							<path class="st33" d="M258.5,245.3l2.5,0.4c-8.3-1.4-15.1,3.4-15.7,11.9c-0.6,8.8-2.5,17.5-3.1,26.3
								c-0.8,11.1,1.1,22.9,2.4,34c3.2,26.6,10.5,53,19,78.4c8.4,24.3,18.2,48.1,29.5,71.1c9.9,20.5,18.4,42,40.8,51.1
								c18.3,7.4,33.3-10.8,35-26.7c2.1-19.1-6-38.3-10.3-56.7c-4.2-18-7.9-36.1-10.3-54.4c-5.5-41-3.6-83.8-12-122.4
								c-3.5-16.2-20.9-23.1-35.6-20.2c-43.2,8.5-25,84.6-20.4,112c3.6,21.6,8.5,43,14.8,64.1c4.9,16.1,10.7,37.2,24.1,48.6
								c20.8,17.7,49.8,5.6,51.9-21.6c2.4-30.8-4.3-61.2-8.8-91.4c-4.5-30.1-9.3-60.1-14.4-90.1L288.8,276
								c8,32.4,17.5,64.3,26.5,96.4c8.2,29.1,13.6,58.2,27,85.5c10.1,20.6,42.6,19.4,53.1,0c9.2-17.1,4-31.6,2-49.2
								c-1.9-16.8-3.8-33.6-5.4-50.4c-1.5-16.7-2.7-33.4-3.6-50c-0.9-15.5-3.2-31.8-1.4-47.4l-60.5,8.2c10.5,40.5,7.9,83.2,19,123.8
								c6.3,23.2,34.7,29,51.6,13.6c14.4-13.1,16.1-34.4,15.8-52.7c-0.3-19.3,0-39.4-5.5-58c-3.8-13.3-15.9-22.6-29.8-22.7
								c-18.4,0-28.9,14.2-30.9,30.9c-3.4,27.8-2.9,55.8-1.6,83.7c0.8,16.9,13.5,31,31,31c16.3,0,31.7-14.1,31-31
								c-1.3-27.9-1.7-55.9,1.6-83.7l-60.7,8.2c3.1,10.6,2.8,22.5,3.1,34.7c0.1,5.2,0.3,10.4,0.2,15.6c0,0.8-1.4,10.3-0.2,3.6
								c-1.2,6.6,1-1.9,2.5-3.3l51.5,13.6c-11-40.5-8.5-83.2-19.1-123.8c-3.4-13.3-16.2-22.6-29.7-22.6c-18.3,0-28.9,14.1-30.8,30.8
								c-1.5,12.4,0.3,24.9,0.9,37.3c0.8,16.7,2,33.4,3.3,50.1c2.7,32.2,7.3,64.2,11.8,96v-16.3l0.9-1.1h53.1
								c-11.4-23.3-15-50-22-74.8c-8.7-30.8-17.8-61.4-25.5-92.4c-4-16.2-21.9-25.8-37.7-21.4c-17.3,4.8-24.2,21.3-21.4,37.7
								c4.8,28.3,9.4,56.7,13.7,85.1c4.1,26.6,9.6,53.1,7.8,80.2l51.9-21.5c-5.4-4.5,3.1,5,0.8,1.5c-1.3-2-2.5-4.1-3.5-6.2
								c-3.6-7.3,2.1,5.6-1.2-2.7c-1.6-4-2.9-8-4.3-12.1c-5.7-17.2-9.9-34.9-13.6-52.7c-1.8-8.8-3.4-17.6-4.9-26.5
								c-0.3-1.7-0.5-3.4-0.8-5.1c-1.3-8.4,0.8,6.2-0.3-2c-0.6-4.6-1-9.2-1.5-13.8c-0.6-6.8-0.8-13.7-0.5-20.6
								c0.1-1,0.1-1.9,0.3-2.9c0.5-5.5-1.3,7.8-0.4,2.9c0.5-2.6,2.6-5.9-1.8,3.4c-0.4,0.8-9.4,9.4-14.5,10.9l-35.6-20.2
								c4.3,15.5,4.3,31.6,5.2,47.6c1.1,19.9,3,39.7,5.6,59.5c2.6,20.3,6.1,40.3,10.5,60.2c2,9.3,4.3,18.5,6.6,27.7
								c2,7.8,5.4,15.1,5.1,23.2l35-26.7c5.2,1.6,7.8,6.2,4.3,0.9c-1.9-2.8-3.4-5.8-5.1-8.7c-5.6-9.5-11.3-18.9-16.6-28.5
								c-10.3-18.8-19.5-38.3-27.4-58.2c-15-37.7-25.2-76.9-34.1-116.3L257.7,270c1.4-0.1,2.7-0.3,4-0.6
								C275.8,266.1,271.8,246.1,258.5,245.3L258.5,245.3z"/>
						</g>
					</g>
				</g>
				<path class="st36" d="M217.8,328.4c3.1,3,7.2,6.6,11.5,7.4c5.5,1,8.2-6.9,3.8-9.9c-3.8-2.6-8.5-1.4-12.8-2.1
					C218.1,323.3,216,326.6,217.8,328.4L217.8,328.4z"/>
				<path class="st36" d="M295.5,298.1c3.1,3,7.2,6.6,11.5,7.4c5.5,0.9,8.2-6.9,3.8-9.9c-3.8-2.6-8.5-1.4-12.8-2.1
					C295.8,293.1,293.7,296.4,295.5,298.1z"/>
				<path class="st36" d="M263.9,304.3c-5,3.8-11.1,8.9-13.1,15c-2.5,7.6,8.1,13.3,13.4,7.6c4.6-4.9,3.8-11.9,5.8-17.9
					C271,305.8,266.8,302.1,263.9,304.3L263.9,304.3z"/>
				<path class="st36" d="M285,326.6c3.1,5.4,7.5,12.1,13.2,14.8c7.2,3.5,14.2-6.4,9.3-12.3c-4.3-5.2-11.3-5.3-17.1-8
					C287.3,319.7,283.2,323.4,285,326.6L285,326.6z"/>
				<g class="st26">
					<path class="st36" d="M289.7,311.6c3.4,3.4,8,7.5,12.8,8.3c6.1,1.1,9.2-7.6,4.4-11.1c-4.2-3-9.5-1.6-14.3-2.4
						C290,306,287.7,309.7,289.7,311.6L289.7,311.6z"/>
				</g>
				<g class="st26">
					<path class="st36" d="M270.9,305.8c1.2,4.7,3,10.5,6.7,13.8c4.6,4.1,11.9-1.7,9.5-7.2c-2.1-4.7-7.3-6.3-11-9.5
						C274,301.2,270.2,303.1,270.9,305.8L270.9,305.8z"/>
				</g>
				<g class="st37">
					<path class="st36" d="M261.7,318.9c4.3,4.3,10.2,9.4,16.3,10.5c7.7,1.4,11.7-9.7,5.5-14c-5.4-3.8-12-2-18.1-3
						C262.1,311.8,259.2,316.4,261.7,318.9L261.7,318.9z"/>
				</g>
				<path class="st38" d="M243.4,320.5c-2.5,6.4,1.1,10.6,6.6,13.6c7.2,3.9,16.6,6.3,18.7,15.4c0.2,0.6,0.9,1,1.5,0.8
					c0.5-0.2,0.8-0.6,0.8-1.1c0-7.1-5.4-11.2-11.4-14c-6.3-3-17.6-5.1-15.2-14.3C244.7,320,243.6,319.8,243.4,320.5L243.4,320.5z"/>
				<path class="st38" d="M287.4,317.6c4.5,3,9.6,4.4,14.4,6.8c3.4,1.7,6.1,4.6,7.5,8.2c1.7,4.2-0.4,7.9-2.5,11.3
					c-0.8,1.3,0.9,3.3,2.3,2.3c5.9-4.5,6-11.8,2.5-17.9c-4.7-8.3-15.5-8.7-23.2-12.5c-0.5-0.3-1.1-0.1-1.4,0.4
					C286.8,316.8,287,317.4,287.4,317.6L287.4,317.6z"/>
				<path class="st38" d="M267.1,332.5c-1.1-6.2,6.3-10.4,4.5-16.9c-0.2-0.5-0.8-0.7-1.3-0.5c-0.3,0.1-0.5,0.4-0.6,0.8
					c-0.1,5.9-5.6,11.1-4.1,17C265.9,333.9,267.3,333.5,267.1,332.5L267.1,332.5z"/>
				<path class="st38" d="M235.3,334c3.9-3.8,7.6-10.3,5.3-15.8c-0.4-1-2.1-1-2,0.3c0.6,5.2-0.9,10.5-4.1,14.7
					C234,333.8,234.8,334.5,235.3,334L235.3,334z"/>
				<path class="st38" d="M245.1,315.5c-2.9,5.8,1.7,13.3,7.6,14.9c1.1,0.3,2.2-1.3,1.2-2.1c-3.6-3-8.7-7-7.6-12.3
					C246.5,315.3,245.4,314.8,245.1,315.5z"/>
				<path class="st38" d="M201,316.5c9.9,8.6,1.8,23.3,10.6,33c0.9,0.9,2.3-0.3,1.7-1.3c-2.1-3.6-3.7-6.9-4.2-11.1
					c-0.4-3.1,0.1-6.3-0.4-9.4c-0.8-5.1-2.9-8.8-7.4-11.5C201.1,316,200.8,316.4,201,316.5L201,316.5z"/>
				<path class="st38" d="M287.6,294.8c0.8,10.5,14.6,11.3,22.1,14.3c1.1,0.4,1.6-1.2,0.8-1.8c-6.3-4.4-19.5-3.7-21.3-12.8
					c-0.1-0.4-0.6-0.7-1-0.5C287.8,294.1,287.6,294.4,287.6,294.8L287.6,294.8z"/>
				<path class="st38" d="M283.1,300c2.1,2.5,4.9,4.2,8.1,5c0.4,0.1,0.8-0.1,0.9-0.5c0.1-0.3-0.1-0.7-0.3-0.9
					c-2.6-1.4-5.5-2.6-7.6-4.6c-0.3-0.3-0.7-0.3-1,0S282.9,299.7,283.1,300L283.1,300z"/>
				<path class="st38" d="M295,363c16.9-4.6,30.5-20,28-38.4c-0.2-1.4-2.5-1.3-2.7,0c-1.5,7.9-2.3,14.9-6.6,22s-11.6,12.2-19.1,15.6
					C294.2,362.4,294.5,363.2,295,363L295,363z"/>
				<path class="st38" d="M310.5,320.1c0.9,0.8,1.7,1.8,2.3,2.9c0.6,1.2,0.7,2.5,1.2,3.7c0.3,0.4,0.8,0.6,1.3,0.3
					c0.2-0.1,0.3-0.3,0.4-0.5c0.5-3-2.1-5.8-4.5-7.2C310.6,319,310,319.8,310.5,320.1z"/>
				<path class="st38" d="M311.6,314c1.7,2.1,3.1,4.4,4.1,6.9c0.2,0.6,0.8,1,1.4,0.8c0.5-0.1,0.8-0.6,0.8-1.1c0-3.6-2.5-6-5.6-7.4
					C312,313,311.2,313.5,311.6,314L311.6,314z"/>
				<path class="st38" d="M276.9,323.9c2.8,3,5.1,6.4,6.8,10.1c0.5,0.9,1.8,0.3,1.5-0.6c-1.1-4.3-3.8-7.8-7.1-10.8
					C277.4,321.7,276.1,323,276.9,323.9L276.9,323.9z"/>
				<path class="st39" d="M460.1,272.4c-18.8,14.2-35.5,30.8-50.9,48.7c-6.5,7.6-11.3,16.4-16,25.2c-4.8,9.1-11.8,18.8-13.3,29
					c-0.4,2.5,2.6,3.6,4.4,2.3c6.9-4.9,10-13.2,13.8-20.5c5-9.8,10.3-19.4,16.7-28.4c13.6-19.1,31.4-36.5,48.7-52.3
					c1.1-0.9,1.3-2.6,0.4-3.8S461.3,271.4,460.1,272.4L460.1,272.4z"/>
				<path class="st40" d="M556.6,173.2c-26.1,46-63.6,84.4-101.6,120.7c-18.9,18-38.7,35-55.9,54.8c-8.7,10-16.4,20.8-24.2,31.5
					c-4.5,6.2-8.8,12.8-14.2,18.3c-4.3,4.2-8.4,8.8-12,13.6c-2.1,2.9,2,7,4.7,4.4c4-4,8.8-7.2,12.9-11.2c4.6-4.5,8.1-9.8,11.8-15.1
					c8.3-11.7,16.3-23.5,25.4-34.6c17.4-21.2,38.4-39.1,58.1-58.2C499.5,260.7,534,221,559,174.5
					C559.7,173.1,557.4,171.8,556.6,173.2L556.6,173.2z"/>
				<path class="st40" d="M520.3,253.1c-15.9,9.7-28.4,22.5-41,36c-15.4,16.6-30.8,33.1-46.7,49.2c-14.1,14.4-26.6,30.1-41.8,43.5
					c-7.8,6.9-16,13.8-25.4,18.3c-6.9,3.3-14.2,5.7-18,12.8c-1.4,2.7,2.1,5.5,4.6,4.3c16.1-8.1,30.8-16.6,44.5-28.5
					c15.3-13.2,27.9-28.8,41.9-43.3s28.1-29.3,41.8-44.3c13.5-14.9,26.7-31.3,43.3-42.8C526.4,256.2,523.3,251.3,520.3,253.1
					L520.3,253.1z"/>
				<path class="st40" d="M512.5,179c-16.3,19.7-30,40.8-49.2,58c-18.8,16.6-35.6,35.3-50.2,55.7c-14.9,21.1-29.9,42.2-41.7,65.1
					c-5.1,9.8-8.3,20.7-11.6,31.2c-1.7,5.7-3.8,11.2-6.3,16.6c-2.1,4.6-5.8,8.5-6.3,13.7c-0.1,0.9,0.6,1.8,1.6,1.9
					c0.3,0,0.6,0,0.8-0.1c8.1-2.6,12.2-14.7,15.3-21.9c4.4-10.3,7.2-21.1,11.3-31.4c9.8-24.4,27-46.4,42.1-67.6
					c7.8-11,15.5-21.9,24.7-31.9c8.8-9.4,18.4-18,27.8-26.9c8.7-8.1,16.5-17,23.4-26.7c7.7-10.8,13.8-22.6,21.9-33.2
					C517.9,179.3,514.3,176.8,512.5,179L512.5,179z"/>
				<path class="st40" d="M611.5,221.4c-16.6,20.1-33.2,40.2-52.8,57.5c-20,17.8-43.4,30.7-63.4,48.4c-20.9,18.4-42.4,36-63.7,53.9
					c-10.3,8.7-20.9,17.2-30.3,26.9c-4,4.1-7.4,8.8-11.5,12.8s-8.8,7.6-12,12.6c-3,4.7,3.4,9.1,7,5c4-4.6,8.5-8.4,12.8-12.6
					c4.9-4.6,8.7-10.2,13.5-15c9.7-9.7,20.7-18.3,31.1-27.2c21.1-18,42.3-35.8,63.1-54.1c20-17.6,43.3-30.4,62.7-48.8
					c17.8-17.1,33.3-36.4,46.2-57.4c0.6-0.8,0.4-1.8-0.4-2.4S612,220.7,611.5,221.4L611.5,221.4z"/>
				<path class="st40" d="M552.3,255.3c-15.1,16.1-30.3,32.4-47.7,45.9c-16.2,12.6-34.2,22.7-49.3,36.9
					c-15.4,14.4-27,32.6-40.6,48.6c-7.6,8.9-15.7,17.3-23.2,26.3c-5.9,7.1-14,11.9-19.7,19.2c-3,3.9,2.9,7.7,6,4.3
					c5.6-6.1,13.3-9.8,18.9-15.9c7.9-8.6,15.5-17.5,23.2-26.3c14.7-16.9,26.6-36.3,42.8-51.9c14.9-14.2,33.1-24.5,49.2-37.3
					c16.8-13.4,30.8-29.7,44.3-46.3C558.3,256.6,554.5,253,552.3,255.3L552.3,255.3z"/>
				<path class="st41" d="M525.3,197.6c-6.6,6.6-12.2,13.8-17.9,21.2c-7.7,10.1-16.7,19-26.1,27.6c-18.4,17-37.2,33.6-55.5,50.6
					c-16.5,15.3-32,32.2-43.3,51.7c-5.4,9.4-9.1,19.6-13.7,29.3c-5.2,10.7-11.6,20.7-19.1,29.9c-2.9,3.7,0.9,7.9,4.8,7.7l2.5-0.1
					c3.5-0.2,4.6-5.6,1.7-7.3l-2.2-1.3c0.4,2.3,0.8,4.5,1.1,6.8c13.9-17,21.3-36.1,30.7-55.5c10.1-20.8,26.7-38.4,43.1-54.3
					c17.3-16.7,34.8-33.2,51.9-50.2c8.1-8,16.1-16.3,23.1-25.3c7.2-9.4,11.9-20.5,20.2-29C527.7,198.3,526.3,196.6,525.3,197.6
					L525.3,197.6z"/>
				<path class="st41" d="M475.3,281.1c-22.7,30.5-49.5,58-74.5,86.6c-10,11.5-19.6,23.4-32.4,31.8c-4.4,2.9-19.8,10-17.9,17.1
					c0,1.7,1.4,3,3.1,2.9s3-1.4,2.9-3.1c0.2-0.8,6.4-5,8.2-6.3c4.5-3.1,9.1-6,13.6-9.1c11.5-8,20.6-21.3,29.6-31.9
					c24-28.3,48.1-56.1,68.9-86.8c0.3-0.5,0.2-1.1-0.2-1.4S475.6,280.6,475.3,281.1L475.3,281.1z"/>
				<path class="st41" d="M517.7,302.6c-29.1,15.2-47.7,41.5-71.9,62.9c-14.7,13-32.1,22.6-47.2,35c-10.5,8.6-22.7,18.7-26.9,32.1
					c-1.1,3.4,2.3,7.4,5.9,5.5l2.1-1.1c2.4-1.2,2.9-5.6-0.2-6.4l-2.2-0.6l2.5,5.6c4.3-13.9,18.2-24.1,29-33
					c13.5-11,28.5-20,41.6-31.6c23.5-20.9,40.5-50.5,68-66.7C519.6,303.7,518.8,301.9,517.7,302.6L517.7,302.6z"/>
				<path class="st42" d="M447.6,248.3c-12.9,9.7-25.7,18.4-35.5,31.4c-10.3,13.7-16.3,30.1-26.8,43.9
					c-9.3,12.3-18.3,23.9-22.9,38.8c-2.6,8.4-3.6,17.4-8.2,25c-3.5,5.8-8.5,10.4-11.4,16.7c-2.7,5.9,6.3,9,9.2,3.5
					c3.1-5.9,8-10.7,11.5-16.5c3.5-5.9,4.9-13,6.6-19.6c4.2-16.5,12.5-29.1,22.3-42.8c9-12.6,14.6-26.6,22-40.2
					c8.2-15.1,21.8-27.3,34-39.2c0.3-0.3,0.2-0.7,0-1C448.2,248.1,447.9,248.1,447.6,248.3L447.6,248.3z"/>
				<path class="st42" d="M594.5,281.4c-20.4,11.6-38.1,27.1-58.1,39.3c-10.4,6.3-19.5,14.8-30.4,20.3c-10.2,5.2-19.5,9.5-28.5,16.9
					c-8,6.6-15.3,14.2-23.4,20.8c-8.7,7.1-18.3,12.6-26.5,20.4c-14.4,13.9-27.7,28.8-39.8,44.6c-3.8,4.9,4,10.6,7.9,5.6
					c11.8-15.1,24.4-29.5,37.9-43.1c7.3-7.4,15.8-12.8,23.9-19.1c9-7,16.7-15.5,25.2-23c8.8-7.8,18.9-12.2,29.1-17.7
					c10-5.4,18.5-14,27.9-20.4c19.5-13.3,36.4-29.6,55.6-43.2C596,282.3,595.2,281,594.5,281.4L594.5,281.4z"/>
				<path class="st43" d="M589.4,198.1c-13.8,21.6-30.8,41.7-48.1,60.6c-19.7,21.5-43.3,37.5-66.4,55.1c-21.3,16.2-40.1,35.4-56,57
					c-14.7,19.9-41,35.6-47.9,60.4c-2,7.2,7.7,11,10.9,4.1c10.7-23.9,33.3-39.1,48.6-59.9c16.6-22.3,35.9-42.5,57.5-60.2
					c20.6-17.1,41.9-31.8,59.9-51.9c17.8-19.8,32.2-40.2,42.2-64.9c0.1-0.2,0-0.4-0.2-0.5C589.7,197.9,589.5,198,589.4,198.1
					L589.4,198.1z"/>
				<path class="st44" d="M437.1,269.2c-5.2,5.7-9.9,11.6-14.3,17.9c-4.2,5.8-9.8,11.3-12,18.2c-0.1,0.2,0,0.4,0.2,0.5
					c0.2,0.1,0.3,0,0.4-0.1c8.8-11.8,16.7-24.6,26.6-35.6C438.5,269.6,437.6,268.7,437.1,269.2L437.1,269.2z"/>
				<path class="st44" d="M490.6,281.9c-6.1,10.8-16.3,18.4-25.1,26.9c-8.5,8.3-17.6,18.1-23.7,28.4c-0.2,0.4,0.2,0.9,0.6,0.6
					c9.9-8.3,17.1-19.8,26.4-28.9c8.3-8.2,17.1-15.8,22.7-26.2C491.9,281.9,490.9,281.2,490.6,281.9L490.6,281.9z"/>
				<path class="st44" d="M536,301.5c-12.9,6.9-27.3,15.2-36.3,27c-0.1,0.2-0.1,0.4,0.1,0.5c0.1,0.1,0.3,0.1,0.4,0
					c11.9-9.4,23.6-18.4,36.1-26.9C536.7,301.9,536.4,301.4,536,301.5L536,301.5z"/>
				<path class="st44" d="M557.9,284.4c-2.6,2-5.4,3.8-8.2,5.5c-2.7,1.7-5.9,3.3-7.5,6.2c-0.3,0.5,0.1,1.1,0.7,0.9
					c2.9-1.4,5.5-3.6,8.2-5.4c2.8-1.8,5.3-4,7.4-6.6C558.8,284.5,558.3,284.1,557.9,284.4L557.9,284.4z"/>
				<path class="st43" d="M478.7,224.8c-4.4,5-9.1,9.8-14.1,14.2c-4.2,3.7-9,6.6-12.4,11.1c-0.3,0.4,0.2,0.8,0.6,0.6
					c9.7-7.5,19.3-15.3,26.4-25.4c0.1-0.1,0.1-0.3-0.1-0.4C479,224.6,478.8,224.7,478.7,224.8L478.7,224.8L478.7,224.8z"/>
				<path class="st43" d="M579.6,262.1c-3.5,2.7-6.8,5.8-9.7,9.1c-3.6,4-7.7,7.4-11.4,11.3c-0.2,0.2-0.2,0.4,0,0.6
					c0.1,0.1,0.3,0.2,0.5,0.1c9.2-3.2,14.7-14,21.1-20.6c0.1-0.1,0.2-0.3,0-0.5C579.9,262,579.7,262,579.6,262.1L579.6,262.1z"/>
				<path class="st44" d="M487.6,246.3c-7,3.8-11.5,10.1-17,15.6c-6.8,6.8-14.2,13.2-21.3,19.6c-0.3,0.3,0,0.8,0.4,0.6
					c7.6-4.5,13.5-11.6,20.1-17.4c6.4-5.6,10.9-13.1,18.2-17.8C488.4,246.7,488,246,487.6,246.3L487.6,246.3z"/>
				<path class="st39" d="M307,265.6c-10.1,21.3-17.1,43.8-22.4,66.8c-2.2,9.7-2.4,19.8-2.4,29.7c0,10.3-1.7,22.1,1.7,31.9
					c0.8,2.4,3.9,2,4.9,0c3.9-7.5,2.8-16.3,2.7-24.6c-0.1-11,0.1-22,1.6-32.9c3.2-23.3,10.8-46.9,18.8-68.9c0.5-1.4-0.3-2.9-1.7-3.4
					C309,263.8,307.6,264.4,307,265.6L307,265.6z"/>
				<path class="st40" d="M346.3,132.9c-1.7,52.9-17,104.3-33.8,154.1c-8.4,24.7-18,49-24,74.5c-3,12.9-4.8,26-6.7,39.1
					c-1.1,7.6-1.8,15.4-4,22.8c-1.9,5.8-3.3,11.7-4.3,17.6c-0.5,3.6,5.1,5.3,6.2,1.7c1.7-5.4,4.5-10.5,6.2-15.9
					c2-6.1,2.6-12.5,3.4-18.8c1.9-14.2,3.5-28.4,6.3-42.5c5.5-26.9,15.8-52.5,24.4-78.5c16.4-50,28.5-101.2,29-154
					c0-1.6-2.7-1.6-2.7,0L346.3,132.9z"/>
				<path class="st40" d="M351.3,220.5c-9.5,15.9-14.7,33.1-19.5,50.9c-5.9,21.9-11.9,43.6-18.4,65.3c-5.8,19.3-9.5,39-16.8,57.9
					c-3.7,9.7-7.8,19.6-14,28c-4.6,6.1-10,11.6-10,19.7c0,3,4.5,3.9,6,1.7c10.5-14.7,19.5-29,26.2-45.9
					c7.5-18.8,11.3-38.5,16.9-57.9c5.7-19.5,11.2-39,16.3-58.7c5-19.5,9.1-40.1,18.5-58C358.2,220.5,353.1,217.6,351.3,220.5
					L351.3,220.5z"/>
				<path class="st40" d="M309.9,158.6c-5.3,25-7.6,50.1-16.6,74.2c-8.9,23.4-15.1,47.8-18.5,72.7c-3.4,25.6-6.8,51.2-6.6,77.1
					c0.1,11.1,2.3,22.2,4.3,33c1.1,5.8,1.8,11.7,2.2,17.6c0.3,5.1-1.1,10.3,0.8,15.1c0.4,0.9,1.4,1.3,2.2,0.9
					c0.3-0.1,0.5-0.3,0.7-0.5c6-6,4-18.7,3.4-26.5c-0.9-11.1-3.5-22-4.6-33.1c-2.7-26.1,2.4-53.6,5.8-79.5
					c1.8-13.4,3.5-26.6,7.1-39.7c3.4-12.4,7.9-24.5,12.1-36.7c3.9-11.2,6.7-22.7,8.3-34.5c1.8-13.2,1.7-26.4,4-39.6
					C314.9,156.3,310.5,155.7,309.9,158.6L309.9,158.6z"/>
				<path class="st40" d="M417.3,150.1c-5.3,25.5-10.8,51-20,75.4c-9.4,25-24.1,47.4-33.6,72.4c-9.9,26-20.8,51.6-31.3,77.3
					c-5.1,12.5-10.5,24.9-14.3,37.9c-1.6,5.5-2.4,11.2-4.3,16.7s-4.3,10.8-4.8,16.7c-0.4,5.6,7.2,6.5,8.5,1.2
					c1.4-5.9,3.6-11.4,5.5-17.1c2.1-6.4,3-13.1,5-19.5c4.1-13.1,9.8-25.8,14.9-38.5c10.4-25.7,20.8-51.3,30.7-77.2
					c9.5-24.9,24.2-47,32.8-72.4c7.8-23.4,12.6-47.7,14.2-72.3c0.1-0.9-0.6-1.7-1.6-1.8C418.3,148.7,417.5,149.3,417.3,150.1
					L417.3,150.1z"/>
				<path class="st40" d="M380.7,207.6c-5.8,21.3-11.8,42.7-20.9,62.9c-8.5,18.7-19.7,36-26.5,55.5c-6.9,19.9-8.8,41.5-13.4,62
					c-2.5,11.4-5.8,22.6-8.3,34.1c-1.9,9-6.9,17-8.5,26.1c-0.9,4.8,6.1,5.5,7.4,1c2.2-8,7.2-14.8,9.4-22.8c3-11.3,5.6-22.8,8.3-34.1
					c5.2-21.8,6.7-44.5,13.8-65.8c6.5-19.5,17.9-37.1,26.2-55.9C377,250.9,381.8,230,386,209C386.6,206,381.6,204.6,380.7,207.6
					L380.7,207.6z"/>
				<path class="st40" d="M409.4,277.2c-4.5,13.2-12.2,25-19,37.1c-8,14.5-15.3,29.3-23,44c-7.9,15.1-15.9,30-23.3,45.4
					c-6.9,14.2-16.1,31.3-17.4,47.2c-0.3,2.8,1.7,5.3,4.5,5.6c2.2,0.2,4.3-1,5.2-3c3.5-7.3,5.3-15.6,8.1-23.1s6.2-15.1,9.7-22.5
					c7.1-15.4,15.2-30.4,22.8-45.6c7.4-14.8,14.4-29.7,22.1-44.3c6.6-12.5,12.9-25.3,16.2-39.1C416.2,275.4,410.5,273.9,409.4,277.2
					L409.4,277.2z"/>
				<path class="st41" d="M329.9,169.1c-2.8,8.9-4.4,17.9-5.9,27.1c-2.1,12.6-6,24.6-10.3,36.6c-8.4,23.6-17.3,47-25.6,70.6
					c-7.5,21.2-13.3,43.4-14.3,65.9c-0.5,10.8,1.1,21.5,1.5,32.4c0.3,11.9-0.7,23.7-3.1,35.3c-0.9,4.6,4.5,6.6,7.8,4.6l2.2-1.3
					c3-1.8,1.5-7.1-1.9-7.3l-2.5-0.1l4.2,5.5c4.4-21.5,2-41.8,1.4-63.5c-0.7-23.1,5.8-46.4,13-68.1c7.5-22.9,15.4-45.6,22.6-68.6
					c3.5-10.9,6.7-21.9,8.7-33.2c2-11.6,1-23.7,4.4-35.1C332.4,168.6,330.4,167.7,329.9,169.1L329.9,169.1z"/>
				<path class="st41" d="M324.5,266.2c-5.9,37.6-16.9,74.3-25.6,111.3c-3.5,14.8-6.4,29.8-13.9,43.3c-2.5,4.6-12.9,18.1-7.8,23.5
					c1,1.3,2.9,1.6,4.2,0.6c1.1-0.8,1.5-2.3,1-3.6c-0.2-0.8,3.3-7.4,4.3-9.4c2.5-4.9,5.3-9.6,7.8-14.4c6.5-12.5,8.3-28.5,11.4-42.1
					c8.1-36.2,16.5-72,20.6-108.9c0.1-0.6-0.3-1.1-0.9-1.1C325.1,265.3,324.6,265.7,324.5,266.2L324.5,266.2L324.5,266.2z"/>
				<path class="st41" d="M372,265.6c-18.7,27-22.9,58.9-34.4,89.1c-7,18.3-17.9,34.9-25.5,53c-5.3,12.5-11.4,27.1-8.9,40.9
					c0.6,3.5,5.5,5.5,7.8,2.1l1.4-2c1.5-2.2,0-6.3-3.2-5.6l-2.2,0.5l4.9,3.8c-2.7-14.3,4.9-29.8,10.4-42.7c6.8-16,15.9-31,22.1-47.3
					c11.1-29.4,12.3-63.5,29.2-90.7C374.3,265.7,372.7,264.5,372,265.6L372,265.6z"/>
				<path class="st42" d="M284.7,250.1c-6.9,14.6-14.2,28.2-16.8,44.3c-2.7,16.9-0.5,34.2-3.3,51.3c-2.5,15.2-5,29.7-2.2,45
					c1.6,8.6,4.9,17.1,4.4,25.9c-0.4,6.8-2.7,13.2-2.3,20c0.4,6.5,9.8,5,9.8-1.2c0-6.7,2.1-13.3,2.5-20c0.4-6.9-1.7-13.8-3.3-20.5
					c-4-16.6-2.5-31.5-0.2-48.2c2.1-15.4,0.6-30.4,0.8-45.8c0.2-17.1,6.6-34.3,11.9-50.5c0.1-0.3,0-0.7-0.4-0.9
					c-0.3-0.1-0.7,0-0.9,0.4V250.1z"/>
				<path class="st42" d="M430.2,211.1c-12.6,19.8-21.1,41.7-33.2,61.8c-6.3,10.4-10.3,22.1-17.4,32.1c-6.6,9.3-12.9,17.5-17.4,28.2
					c-4,9.6-6.9,19.7-11,29.3c-4.4,10.4-10.4,19.6-14,30.4c-6.3,19-11.1,38.3-14.5,58c-1.1,6.2,8.5,7.5,9.6,1.3
					c3.4-18.8,7.9-37.5,13.5-55.8c3-10,8-18.7,12.3-28.1c4.7-10.4,7.6-21.5,11.6-32.1c4.2-11,11-19.6,17.6-29.2
					c6.4-9.4,9.9-21,15.2-31c11-20.9,18.5-43.2,29.1-64.1C431.9,211.1,430.6,210.4,430.2,211.1L430.2,211.1z"/>
				<path class="st43" d="M386.9,139.8c-2.2,25.5-7.9,51.2-14.4,76c-7.4,28.2-20.9,53.3-33.1,79.7c-11.3,24.3-19,50-23,76.5
					c-3.8,24.4-19.7,50.6-14.3,75.8c1.6,7.3,12,6.2,11.5-1.4c-1.6-26.1,11.3-50.1,15.2-75.6c4.3-27.5,12-54.4,22.8-80
					c10.3-24.6,22.3-47.6,28.9-73.8c6.5-25.8,9.8-50.5,7.2-77.1c0-0.2-0.3-0.4-0.5-0.3C387,139.5,386.9,139.6,386.9,139.8
					L386.9,139.8z"/>
				<path class="st44" d="M285.2,273.5c-1.9,7.4-3.4,14.9-4.3,22.5c-1,7.1-3.4,14.5-2.1,21.7c0,0.2,0.2,0.4,0.4,0.4
					c0.2,0,0.4-0.2,0.4-0.4c2.3-14.6,3.3-29.5,7-43.9C286.6,273.1,285.5,272.9,285.2,273.5L285.2,273.5z"/>
				<path class="st44" d="M338.4,259.9c-0.4,12.4-5.9,23.8-9.7,35.5c-3.7,11.3-7.2,24.2-7.8,36.1c0,0.2,0.2,0.4,0.4,0.4
					c0.2,0,0.3-0.1,0.4-0.2c4.9-12,6-25.5,9.9-37.9c3.5-11.1,7.8-21.9,7.9-33.8C339.6,259.3,338.4,259,338.4,259.9L338.4,259.9z"/>
				<path class="st44" d="M387.8,256.1c-8.3,12.1-17.1,26.1-19.6,40.8c0,0.2,0.1,0.4,0.3,0.4c0.2,0,0.4-0.1,0.4-0.2
					c6.2-13.8,12.3-27.2,19.4-40.6C388.5,256.1,388,255.8,387.8,256.1L387.8,256.1z"/>
				<path class="st44" d="M399.2,230.7c-1.4,3-3,5.9-4.7,8.7c-1.6,2.8-3.7,5.7-3.8,9c0,0.3,0.2,0.6,0.6,0.6c0.2,0,0.3-0.1,0.4-0.2
					c1.9-2.6,3.2-5.8,4.8-8.6c1.7-2.9,2.8-6,3.5-9.3c0-0.2-0.1-0.4-0.3-0.5C399.4,230.4,399.2,230.5,399.2,230.7L399.2,230.7z"/>
				<path class="st43" d="M301.3,214.8c-1.6,6.5-3.5,12.8-5.8,19.1c-2,5.2-4.9,10-5.8,15.5c0,0.2,0.1,0.4,0.3,0.5
					c0.2,0,0.4-0.1,0.5-0.3c5.1-11.1,10-22.5,11.5-34.8c0-0.2-0.1-0.3-0.3-0.4C301.5,214.5,301.3,214.6,301.3,214.8L301.3,214.8
					L301.3,214.8z"/>
				<path class="st43" d="M398.4,306.4c-2.9,2.2-4.8,5.6-6.5,8.8c-1.8,3.4-3.8,7.5-4,11.4c0,0.4,0.6,0.8,0.9,0.4
					c3.8-6.2,4.5-14.7,10.4-19.5c0.3-0.2,0.4-0.7,0.1-1C399.2,306.2,398.8,306.2,398.4,306.4L398.4,306.4z"/>
				<path class="st43" d="M408,201c-1.9,4-3.3,8.3-4.4,12.6c-1.3,5.2-3.4,10.1-4.8,15.3c-0.1,0.2,0,0.5,0.2,0.6
					c0.2,0.1,0.4,0,0.5-0.1c6.6-7.1,6.5-19.2,9.1-28.1c0-0.2-0.1-0.4-0.2-0.4C408.2,200.8,408.1,200.9,408,201L408,201z"/>
				<path class="st44" d="M319.2,229.7c-4.4,6.6-5.5,14.2-7.8,21.7c-2.8,9.2-6.4,18.3-9.8,27.3c-0.1,0.4,0.4,0.7,0.6,0.4
					c4.6-7.5,6.5-16.5,9.7-24.7c3.1-8,3.6-16.7,7.9-24.2C320.1,229.7,319.5,229.3,319.2,229.7L319.2,229.7z"/>
				<path class="st45" d="M1158.5,304c4.7,6.4,7.6,13.9,8.4,21.8c0.3,3.3,0.2,7-1.8,9.7c-2.8,3.8-8.1,4.5-12.7,4.2
					c-6.5-0.5-12.7-2.4-18.4-5.6c-5-2.9-9.4-6.8-13.8-10.6l-53.2-47.1c-3.2-2.9-6.5-5.8-8.6-9.5c-4.9-8.8-2.2-19.7,0.6-29.4
					c1.5-5.5,3.3-10.9,5.5-16.2c0.5-1.5,1.4-2.8,2.6-3.8c2.4-1.8,5.8-1.1,8.6,0c10.7,4.3,18.9,13.1,26.3,21.9
					c14.6,17.3,27.7,35.8,43.9,51.5C1150.3,295,1154.9,299.1,1158.5,304z"/>
				<path class="st46" d="M1069.5,242.9c1.4-2.8,3-5.5,4.8-8.1c1-1.3,2.2-2.5,3.6-3.4c1.3-0.9,2.8-1.3,3.6-2.7
					c0.2-0.4,0.1-1-0.3-1.2c-0.1,0-0.1-0.1-0.2-0.1c-3.2-0.8-6.7,2.8-8.5,5.1c-2.3,2.9-3.1,6.4-4,10
					C1068.3,243.1,1069.2,243.5,1069.5,242.9L1069.5,242.9z"/>
				<path class="st46" d="M1074.8,248.8c1.7-3.3,4.3-6.1,7.5-8c2.7-1.7,6.2-2.4,8.2-5c0.2-0.3,0.1-0.7-0.2-0.9
					c-0.1,0-0.1-0.1-0.2-0.1c-3.5-0.6-7.2,2-10,4c-3.4,2.4-5.8,5.4-6.5,9.6C1073.5,249,1074.4,249.6,1074.8,248.8L1074.8,248.8z"/>
				<g>
					<defs>
						<path id="SVGID_13_" d="M1158.5,304c4.7,6.4,7.6,13.9,8.4,21.8c0.3,3.3,0.2,7-1.8,9.7c-2.8,3.8-8.1,4.5-12.7,4.2
							c-6.5-0.5-12.7-2.4-18.4-5.6c-5-2.9-9.4-6.8-13.8-10.6l-53.2-47.1c-3.2-2.9-6.5-5.8-8.6-9.5c-4.9-8.8-2.2-19.7,0.6-29.4
							c1.5-5.5,3.3-10.9,5.5-16.2c0.5-1.5,1.4-2.8,2.6-3.8c2.4-1.8,5.8-1.1,8.6,0c10.7,4.3,18.9,13.1,26.3,21.9
							c14.6,17.3,27.7,35.8,43.9,51.5C1150.3,295,1154.9,299.1,1158.5,304z"/>
					</defs>
					<clipPath id="SVGID_14_">
						<use xlink:href="#SVGID_13_"  style="overflow:visible;"/>
					</clipPath>
					<g class="st47">
						<path class="st48" d="M1067.7,221.6c6.9-0.2,13.2,9,16.8,13.9c5.3,7.3,10.3,13.9,14.3,22.1c7.8,16,28.7,38.4,48.8,32.4
							c8.3-2.5,14.3-13.5,8.7-21.3c-6.6-9.2-17.2-9.9-25.2-17.3c-3.3-3.1-5.2-8-7.5-11.8c-3.1-4.8-6.6-9.3-10.7-13.4
							c-12.9-13.7-29.6-24.1-48.1-15.2C1059.7,213.4,1062.2,221.8,1067.7,221.6L1067.7,221.6z"/>
					</g>
				</g>
				<path class="st49" d="M939,399.7c-1.3-0.7-2.4-1.6-3.4-2.7c-8.5-8.4-17.1-16.8-24.4-26.2c-4.7-6-9-12.5-15.3-16.8
					c-12.2-8.4-29.8-7-40.6-17.1c-4.1,4.4-5.4,10.7-6.4,16.6c-1.8,10.1-3.4,20.3-4.8,30.5c-1.3,9.3-2.4,19,0.3,28
					c1.8,5.9,5.1,11.1,8.1,16.4c10.5,18.4,19.5,39.5,38.1,49.6c10,5.4,21.7,6.8,33.1,7.9c12.3,1.2,25.2,2.2,36.7-2.2
					c4.3-1.6,8.4-4.1,11.1-7.9c3.5-4.9,4-11.3,4.1-17.4c0.2-12-0.8-24.3-5.8-35.1s-14.5-20.2-26.3-22.4
					C941.9,400.6,940.4,400.2,939,399.7z"/>
				<g>
					<defs>
						<path id="SVGID_15_" d="M939,399.7c-1.3-0.7-2.4-1.6-3.4-2.7c-8.5-8.4-17.1-16.8-24.4-26.2c-4.7-6-9-12.5-15.3-16.8
							c-12.2-8.4-29.8-7-40.6-17.1c-4.1,4.4-5.4,10.7-6.4,16.6c-1.8,10.1-3.4,20.3-4.8,30.5c-1.3,9.3-2.4,19,0.3,28
							c1.8,5.9,5.1,11.1,8.1,16.4c10.5,18.4,19.5,39.5,38.1,49.6c10,5.4,21.7,6.8,33.1,7.9c12.3,1.2,25.2,2.2,36.7-2.2
							c4.3-1.6,8.4-4.1,11.1-7.9c3.5-4.9,4-11.3,4.1-17.4c0.2-12-0.8-24.3-5.8-35.1s-14.5-20.2-26.3-22.4
							C941.9,400.6,940.4,400.2,939,399.7z"/>
					</defs>
					<clipPath id="SVGID_16_">
						<use xlink:href="#SVGID_15_"  style="overflow:visible;"/>
					</clipPath>
					<g class="st50">
						<path class="st51" d="M849.6,323.4c-0.8,4.6-2.9,8.7-3.8,13.3c-1.1,5.7-2.4,11.3-3.7,16.9c-2.3,10.4-4.7,20.8-6.5,31.3
							c-3.3,19.7,3.2,36.4,12,53.7s21.8,30.2,37,42c9.2,7.1,18.3,9.8,29.6,12c10.6,2,16.6,11,27,12.9c10.7,2,25.3-7.4,20.1-20.1
							c-8.2-19.9-26.8-25.6-46.5-28.4c-8.6-1.2-14.3-7.4-21.2-12.3c-6.6-4.7-12.7-10.2-18-16.3c-11.1-12.6-19.7-26.5-19.5-43.5
							c0.1-9.7,0-19.6,0.9-29.2c0.4-4.6,0.9-9.2,1.2-13.8c0.5-6.5-1.1-11.2-1.9-17.6C855.9,320.8,850.3,319.3,849.6,323.4
							L849.6,323.4z"/>
					</g>
				</g>
				<path class="st52" d="M1114.2,276.3c42.7,9.5,69.6,51.8,60.1,94.5c-1.7,7.6-4.5,15-8.4,21.8c-7,12.3-17.3,23.1-20.1,37
					c-0.8,4.2-0.9,8.6-1.8,12.8c-4.1,20.3-24.6,32.8-44.3,39.4c-20.9,7-44.4,10.2-64.5,1.2c-3-1.3-5.9-2.9-9.1-3.4
					c-4.3-0.7-8.6,0.6-12.8,1.7c-14,3.9-28.3,7-42.7,9.3c-14.8,2.3-31.1,3.4-43.7-4.8c-10.3-6.7-16.2-18.4-20.4-30
					c-4.9-13.3-8.2-27.6-5.6-41.5c1.2-6.4,3.7-12.7,2.9-19.1c-1-8-6.9-14.5-11.7-21c-7.3-9.9-12.6-21-15.8-32.8
					c-2.1-8-3.2-16.8,0.3-24.4c6.4-14.2,24.7-17.6,37.5-26.5c7.3-5,12.8-12.2,15.6-20.5c1-3.1,1.5-6.3,3.2-9.1
					c3.9-6.7,12.7-8.8,20.4-8.7s15.6,1.8,23.2,0c9.8-2.4,18-10.5,28-10.5c9.2,0,17.7,6.8,26.8,5.4c5.5-0.8,10.2-4.6,15.7-5.6
					c3.6-0.5,7.4-0.2,10.9,0.9c12.5,3.2,23.8,10.2,32.3,19.9c2.9,3.3,5.5,7,9.2,9.4C1103.8,274.5,1109.1,275.2,1114.2,276.3z"/>
				<path class="st53" d="M990.9,286.5c3.9-15.6-18.2-14.2-26.9-11.5c-16.6,5.2-31,14.3-41.2,28.6c-23.5,33.1,3.6,79.5,35.7,94.2
					c7.8,3.6,18.3,5.7,26.4,2.3c8.4-3.5,12.7-13.5,5.5-20.7c-6-6-15.9-8.2-23.2-12.3s-12.7-10.4-16.9-17.4
					c-8.1-13.6-6.9-29.9,6.1-39.8c5.6-4.2,11.7-7.7,17.4-11.7c3.8-2.7,8.1-6,12.2-6.8C988.3,290.8,990.2,288.9,990.9,286.5
					L990.9,286.5z"/>
				<g>
					<defs>
						<path id="SVGID_17_" d="M1114.2,276.3c42.7,9.5,69.6,51.8,60.1,94.5c-1.7,7.6-4.5,15-8.4,21.8c-7,12.3-17.3,23.1-20.1,37
							c-0.8,4.2-0.9,8.6-1.8,12.8c-4.1,20.3-24.6,32.8-44.3,39.4c-20.9,7-44.4,10.2-64.5,1.2c-3-1.3-5.9-2.9-9.1-3.4
							c-4.3-0.7-8.6,0.6-12.8,1.7c-14,3.9-28.3,7-42.7,9.3c-14.8,2.3-31.1,3.4-43.7-4.8c-10.3-6.7-16.2-18.4-20.4-30
							c-4.9-13.3-8.2-27.6-5.6-41.5c1.2-6.4,3.7-12.7,2.9-19.1c-1-8-6.9-14.5-11.7-21c-7.3-9.9-12.6-21-15.8-32.8
							c-2.1-8-3.2-16.8,0.3-24.4c6.4-14.2,24.7-17.6,37.5-26.5c7.3-5,12.8-12.2,15.6-20.5c1-3.1,1.5-6.3,3.2-9.1
							c3.9-6.7,12.7-8.8,20.4-8.7s15.6,1.8,23.2,0c9.8-2.4,18-10.5,28-10.5c9.2,0,17.7,6.8,26.8,5.4c5.5-0.8,10.2-4.6,15.7-5.6
							c3.6-0.5,7.4-0.2,10.9,0.9c12.5,3.2,23.8,10.2,32.3,19.9c2.9,3.3,5.5,7,9.2,9.4C1103.8,274.5,1109.1,275.2,1114.2,276.3z"/>
					</defs>
					<clipPath id="SVGID_18_">
						<use xlink:href="#SVGID_17_"  style="overflow:visible;"/>
					</clipPath>
					<g class="st54">
						<path class="st53" d="M988.8,266.5c3.3-9.1,12.5-13.5,21.3-15.5c6.3-1.4,12.6-0.6,16.6-6.9c4.2-6.6-0.1-14.5-6.9-16.9
							c-20.5-7.1-53.8,18.6-42.3,40.8C980.1,273.1,987.1,271.2,988.8,266.5L988.8,266.5z"/>
						<path class="st53" d="M966.2,241.8c-9.9-17.3-35.3-8.8-45.2,3.6c-12.7,15.9-14.2,47,9.5,54c11,3.2,20-7.3,17.7-17.7
							c-1-4.4-4-9.1-4.9-11.9c-0.3-0.9-0.4-2.8-0.5-2c0.1-1.6,0.6-3.2,1.4-4.6c3.6-7.1,12.6-8.2,19.5-12
							C967,249.3,968.1,245.1,966.2,241.8L966.2,241.8z"/>
						<path class="st53" d="M874.2,306.8c-12.6,17.6-11.8,38.6-1.9,57.4c9.4,17.7,31.5,40.5,53.6,37.5c8-1.1,13.2-12,4.5-16.6
							c-15.2-8.1-28.8-14.5-39.6-28.8c-9.9-13.1-19.1-31.4-12.6-47.9C879.2,306,875.5,304.9,874.2,306.8L874.2,306.8z"/>
						<path class="st53" d="M1035.6,289.2c12.5-9.8,31.6-10,46.7-10.8c11-0.6,22,0.9,32.5,4.3c9.4,2.9,17.9,8.4,27.8,4.8
							c1.6-0.6,3.3-2.1,3-4c-3.1-24.4-44.6-27.3-63.4-26.1c-19.9,1.2-45.8,5.3-55,25.4C1024.6,288.4,1030.8,292.9,1035.6,289.2
							L1035.6,289.2z"/>
					</g>
				</g>
				<path class="st55" d="M971.1,310.7c5.8,0,10.6-4.7,10.6-10.6s-4.7-10.6-10.6-10.6c-5.8,0-10.6,4.7-10.6,10.6l0,0
					C960.5,305.9,965.2,310.6,971.1,310.7z"/>
				<path class="st55" d="M943.1,322.2c0.5,1.7,1.4,3.2,2.6,4.5c1.4,1.8,4.2,2.6,6.3,2.6c3.2,0,6.1-1.7,7.7-4.4l0.1-0.1
					c-0.5,0.6-1,1.2-1.4,1.8c0.1-0.1,0.2-0.2,0.3-0.3c2.5-2.1,3.2-6.1,2.4-9.1c-1.4-5-6.5-7.9-11.5-6.5c-1.6,0.4-3,1.3-4.1,2.4
					C943.3,315.3,941.9,319.1,943.1,322.2z"/>
				<path class="st55" d="M981.2,327.5c2,0.3,3.8,0.7,5.8,0c2.6-0.7,4.8-2.5,6.2-4.8l-1.6,2.1v0l-2.2,1.6c3.3-2,5.4-5.5,5.4-9.4
					c0-6-4.9-10.8-10.8-10.8c-6,0-10.8,4.9-10.8,10.8c0,1.9,0.5,3.8,1.5,5.4C976,324.7,978.6,327.1,981.2,327.5L981.2,327.5z"/>
				<path class="st55" d="M1048.9,324.8l0.5,0.1c4.8,1.4,9.8-1.4,11.1-6.2c0.5-1.6,0.5-3.3,0-4.9l-0.1-0.5c-0.9-3.2-3.4-5.7-6.5-6.5
					c-5-1.4-10.1,1.6-11.5,6.5c-0.4,1.6-0.4,3.3,0,5C1043.2,321.4,1045.7,323.9,1048.9,324.8z"/>
				<path class="st55" d="M1061.2,309.2c3.4,0.1,6.6-1.2,8.9-3.6c3.6-3.8,3.6-9.8,0-13.5c-2.3-2.4-5.6-3.7-8.9-3.6
					c-5.7-0.2-10.5,4.3-10.7,10.1s4.3,10.5,10.1,10.7C1060.7,309.2,1061,309.2,1061.2,309.2L1061.2,309.2z"/>
				<path class="st55" d="M1078.2,306.8l0.2,0.1c2.4,1.4,5.3,1.4,7.7,0c3-1.8,4.4-5.3,3.5-8.6l-0.1-0.2c-1.1-4.1-5.4-6.5-9.5-5.4
					c-3.4,0.9-5.7,4-5.7,7.5C1074.3,302.6,1075.8,305.7,1078.2,306.8L1078.2,306.8z"/>
				<path class="st55" d="M1021.3,321.7c4.7,0,8.5-3.8,8.5-8.5s-3.8-8.5-8.5-8.5c-4.7,0-8.5,3.8-8.5,8.5l0,0
					C1012.8,317.9,1016.6,321.7,1021.3,321.7z"/>
				<path class="st55" d="M1026.9,262.5l0.2,0.1c3,2.9,7.7,2.9,10.7,0l0.2-0.1c2-2,2.8-4.9,2-7.6c-1.1-4.2-5.4-6.6-9.6-5.5
					c-2,0.5-3.6,1.8-4.7,3.6C1024,255.9,1024.3,260.2,1026.9,262.5L1026.9,262.5z"/>
				<path class="st55" d="M1014.8,276.8c11.3,0,11.3-17.5,0-17.5S1003.6,276.8,1014.8,276.8z"/>
				<path class="st55" d="M999.8,281.1c1.3,1.2,2.8,2.2,4.5,2.8c1.9,0.8,4.7,0.2,6.4-0.8c3.9-2.3,5.3-7.3,3-11.3c0,0,0,0,0,0
					c-1.2-2-2.8-2.9-4.9-3.8l-0.2-0.1l2,0.8l-0.2-0.1l1.7,1.3c-0.2-0.1-0.3-0.2-0.4-0.4c-3.2-3.2-8.5-3.2-11.7,0
					S996.7,277.9,999.8,281.1L999.8,281.1z"/>
				<path class="st55" d="M1022.8,292.9l1.4-0.2c1.3-0.4,2.5-1,3.5-2c2.5-2.5,3-6.4,1.2-9.5c-1-1.8-2.7-3.1-4.7-3.6l-1.4-0.2
					c-2.1-0.5-4.3-0.2-6.2,0.8c-3.9,2.2-5.2,7.2-2.9,11c1.1,1.8,2.8,3.2,4.8,3.7C1019.9,293.3,1021.4,293.3,1022.8,292.9
					L1022.8,292.9z"/>
				<path class="st55" d="M994.5,294.9c0,0.2,0.1,0.4,0.1,0.6c1.1,3.9,5.1,6.2,9.1,5.2c2.5-0.7,4.5-2.6,5.2-5.2l0.2-0.6
					c1.1-4-1.3-8.2-5.3-9.3s-8.2,1.3-9.3,5.3C994.1,292.2,994.1,293.6,994.5,294.9z"/>
				<path class="st55" d="M1048,263.3c0.8,0.6,1.8,1,2.8,1.1c4.1,1.1,8.4-1.3,9.5-5.4c0.4-1.3,0.4-2.8,0-4.1
					c-0.6-1.9-1.8-3.6-3.6-4.6l-0.2-0.1l1.6,1.2l-0.2-0.2l1.2,1.6c-0.1-0.1-0.2-0.3-0.3-0.4c-2.3-4.6-9.1-5.1-12.5-1.6
					c-1.5,1.5-2.3,3.5-2.3,5.6C1044.1,259.2,1045.6,261.8,1048,263.3L1048,263.3z"/>
				<path class="st55" d="M920.6,308.5c-1.8-1-3.8-1.2-5.8-0.7c-4.3,0.8-6.8,5.8-5.7,9.8c1.6,4.1,6.2,6.2,10.3,4.7
					c3.6-1.4,5.7-5.1,5.1-8.9c-0.8-2.7-2.9-4.8-5.6-5.6L920.6,308.5C920.6,308.5,920.6,308.5,920.6,308.5l1.4,1.1
					c0,0-0.1-0.1-0.1-0.1l1,1.4C922.3,309.9,921.5,309.1,920.6,308.5L920.6,308.5z"/>
				<path class="st55" d="M891.3,320.5c-0.2,0.1-0.4,0.3-0.6,0.4l1.7-0.7c-1.7,0.6-3.8,1.7-4.5,3.5s-1.3,3.6-0.8,5.7
					c1.2,4,5.4,6.4,9.4,5.2c0.7-0.2,1.4-0.5,2-0.9c1.6-0.9,2.7-2.4,3.2-4.2c0.6-2.2,0.1-5.3-1.8-6.8c-0.1-0.1-0.2-0.2-0.3-0.3
					l1.1,1.5c-0.3-0.6-0.7-1.2-1.3-1.7c-1.4-1.4-3.3-2.1-5.3-2.2l3.7,1h-0.1l1.5,1.1l-0.1-0.1l1.1,1.4l-0.1-0.1l0.7,1.6v-0.2
					l0.2,1.8v-0.2l-0.2,1.8V328c0.6-2.3,0-4.7-1.7-6.4C897.2,319.5,893.9,319.1,891.3,320.5L891.3,320.5z"/>
				<path class="st55" d="M910.3,315c2.3,0.1,4.6-0.8,6.4-2.3c3.1-3.1,1.7-8.9-2.6-10c-0.9-0.2-1.9-0.3-2.8-0.3l1.7,0.2
					c-0.3-0.1-0.6-0.1-0.9-0.2c-3.4-0.9-6.9,1.3-7.8,4.7c-0.9,3.4,1.3,6.9,4.7,7.8C909.4,314.9,909.9,315,910.3,315z"/>
				<path class="st55" d="M925.3,299.9c2.8,0,5-2.3,5-5c0-2.8-2.3-5.1-5-5.1c-2.8,0-5,2.3-5,5v0
					C920.3,297.7,922.6,299.9,925.3,299.9z"/>
				<path class="st55" d="M958.1,279.3l0.1-0.2c1.2-1.2,1.8-2.8,1.9-4.5c0-1.7-0.7-3.3-1.9-4.5l-0.1-0.1c-4.1-4.1-11.3-1-11.3,4.7
					c0,3.6,3,6.6,6.6,6.6C955.2,281.3,956.9,280.6,958.1,279.3L958.1,279.3z"/>
				<path class="st55" d="M961.5,275.1h0.2l-1.6,0.2c0.2,0,0.3,0,0.5,0c3.1,0.3,5.7-2.3,6.6-5c0.2-0.7,0.3-1.5,0.3-2.2
					c0-3.7-3-6.3-6.5-6.5c-1.3,0-2.7,0.3-3.8,1c-2.6,1.2-4.1,5.1-3.1,7.7c0.2,0.7,0.5,1.5,0.9,2.1c0.5,0.9,1.2,1.6,2.1,2.1
					C958.4,275.3,960,275.5,961.5,275.1L961.5,275.1z"/>
				<path class="st55" d="M968.5,272.1c2.6,0,4.7-2.1,4.7-4.7c0-2.6-2.1-4.7-4.7-4.7s-4.7,2.1-4.7,4.7c0,0,0,0,0,0
					C963.8,270,965.9,272.1,968.5,272.1z"/>
				<path class="st55" d="M972.5,281.3l0.2-0.1l-1.6,1.2l0.2-0.1l-1.9,0.8l0.2-0.1c1.3-0.4,2.6-1.1,3.6-2.1c1.5-1.5,2.3-3.6,2.4-5.7
					v-0.2c-0.1,0.7-0.2,1.4-0.3,2.1c0-0.1,0-0.1,0-0.2c-0.3,0.6-0.5,1.2-0.8,1.9c0.1-0.1,0.1-0.3,0.2-0.4c2.5-3.9,0.2-10.1-4.5-11.1
					c-1.6-0.4-3.3-0.4-4.9,0c-2,0.6-3.8,1.9-4.8,3.7l-0.8,1.9c-0.4,1.4-0.4,2.9,0,4.3c0.2,0.8,0.5,1.6,0.9,2.4c1,1.7,2.6,3,4.6,3.5
					c1.3,0.4,2.7,0.4,4,0c1.3-0.4,2.4-1,3.4-2L972.5,281.3z"/>
				<path class="st55" d="M937.5,273c-0.1,0.2-0.2,0.4-0.3,0.5c-1.4,2.8-1.2,6,1.1,8.3s5.5,2.4,8.3,1.1l0.5-0.3
					c4.2-2,4.5-8.1,1.4-11.1S939.5,268.8,937.5,273L937.5,273z"/>
				<path class="st55" d="M932.2,286.6c0.1,1.1,0.4,2.1,0.9,3c0.8,1.6,2.3,2.2,3.8,2.8c1.7,0.5,3.5,0,4.7-1.3c1.2-1.2,1.9-2.7,2-4.4
					c0-1.1-0.1-2.2-0.4-3.2c-0.4-1.5-1.3-2.7-2.7-3.5c-2.7-1.6-6.3-0.7-7.9,2c0,0,0,0,0,0C932,283.5,931.8,285.1,932.2,286.6
					L932.2,286.6z"/>
				<path class="st56" d="M938.5,319.7c0-0.4,0-0.8,0-1.1c0-0.4-0.1-0.8-0.1-1.1c0.1,0.4,0.1,0.5,0,0.1c0-1.6-1.3-2.9-2.9-2.8
					c-0.5,0-1,0.1-1.4,0.4c-1.6,0.9-2.5,2.8-2.2,4.6c0.2,1.8,1.3,3.3,3.3,3.3C936.8,323,938.7,321.5,938.5,319.7L938.5,319.7z"/>
				<path class="st56" d="M944.6,306.5l-0.2-0.1c-1.9-0.5-3.9,0.5-4.4,2.4s0.5,3.9,2.4,4.4c0.3,0.1,0.6,0.1,1,0.1h0.2
					C947.6,313.5,948.4,307.5,944.6,306.5L944.6,306.5z"/>
				<path class="st56" d="M946.3,312l0.2-0.2c1.8-1.1,2.3-3.4,1.2-5.2c-0.3-0.5-0.7-0.9-1.2-1.2l-0.2-0.2c-2.5-1.7-5.9,0.6-5.9,3.4
					S943.8,313.7,946.3,312L946.3,312z"/>
				<path class="st56" d="M953.7,304.9c0.8-0.1,1.6-0.4,2.3-0.9c1.6-1,2.2-3.1,1.3-4.8c-0.2-0.3-0.3-0.5-0.5-0.7
					c-0.9-0.9-2.2-1.2-3.4-0.9c-0.2,0-1.4,0.3-0.5,0.2c-2,0.2-3.6,1.5-3.6,3.6c0,2,1.7,3.6,3.7,3.6C953.2,305,953.5,305,953.7,304.9
					L953.7,304.9z"/>
				<path class="st56" d="M959,299.4c-1.6,0.9-2.6,2.6-2.7,4.4c-0.1,3.1,4.1,4,5.6,1.5c0.1-0.2,0.2-0.5,0.4-0.7
					c-0.3,0.6,0.4-0.1-0.1,0.2c1.5-0.9,2-2.8,1.1-4.3S960.5,298.5,959,299.4L959,299.4L959,299.4z"/>
				<path class="st56" d="M953.4,308.8c0,0.1-0.1,0.2-0.1,0.3c-1,2.6,1.5,5.4,4.1,5.4s5.1-2.8,4.1-5.4c0-0.1-0.1-0.2-0.1-0.3
					c-0.6-2.2-2.8-3.5-5-3C954.8,306.2,953.7,307.3,953.4,308.8L953.4,308.8z"/>
				<path class="st56" d="M943.7,318.4c-0.3,0.3-0.3,0.3-0.2,0.1l1.5-0.4c-0.6,0-1.2,0.1-1.8,0.3c-1.9,0.7-3.5,2.7-2.8,4.9
					c0.1,0.5,0.1,0.4,0-0.3c0.1,0.4,0.1,0.8,0.2,1.2c-0.1-0.7-0.1-0.9-0.1-0.4c0,1.1,0.3,2.1,0.8,3.1c1,1.8,3.1,2.6,5.1,2.1
					c1.9-0.6,3.3-2.3,3.3-4.4c0.1-2.8-1.8-5.3-4.5-6.1l2.9,3.8c-0.1-0.6-0.2-1.3-0.3-1.9v1.6c-0.1,0.2-0.1,0.1,0.1-0.3
					c0.7-1.3,0.2-3-1.1-3.7C945.8,317.5,944.5,317.7,943.7,318.4L943.7,318.4z"/>
				<path class="st56" d="M972.7,281.4c-0.1,0.2-0.2,0.3-0.3,0.5c-0.9,1.6-0.3,3.6,1.3,4.5c1,0.6,2.2,0.6,3.2,0l0.5-0.3
					c1.6-1,2.2-3.1,1.2-4.7c-1-1.6-3.1-2.2-4.7-1.2C973.4,280.5,973,280.9,972.7,281.4z"/>
				<path class="st56" d="M977,289.6c0.7,1.3,2.1,2,3.5,2.1c2-0.1,4-2.1,3.2-4.2c-0.1,0.7-0.2,1.5-0.2,2.2c1.8-2.4-0.6-5.7-3.3-5.7
					S975.3,287.2,977,289.6z"/>
				<path class="st56" d="M972.6,291.1c0.1-0.2,0.2-0.3,0.4-0.4c1.2-0.8-1.1,0.6-1.2,0.7c-0.9,0.9-1.2,2.2-0.9,3.4
					c0.4,1.5,1.8,2.6,3.4,2.6c1.5-0.1,2.9-0.8,3.8-1.9c1.3-1.4,1.3-3.6,0-5C976.4,288.7,973.9,289.3,972.6,291.1L972.6,291.1z"/>
				<path class="st56" d="M972,291.9c-1.5-1.6-3.8-2.2-5.8-1.5c-3.2,0.9-5.1,4.2-4.2,7.4c0.9,3.2,4.2,5.1,7.4,4.2
					c2-0.6,3.6-2.1,4.2-4.2C974.1,295.7,973.5,293.5,972,291.9L972,291.9z"/>
				<path class="st56" d="M934.5,282.5l0.3-0.4c-1.4,1.5-1.4,3.8,0,5.3c1.6,1.6,3.7,1.3,5.3,0c0.1-0.1,0.3-0.2,0.4-0.4
					c1.5-1.5,1.4-3.9-0.1-5.4c-1.5-1.5-3.9-1.4-5.4,0.1C934.8,282,934.6,282.3,934.5,282.5L934.5,282.5z"/>
				<path class="st56" d="M938.3,273.2c1.8-0.7,3.2-1.4,4.2-3.2c1.3-2.2,0.5-5-1.6-6.2c-1.1-0.6-2.3-0.8-3.5-0.5
					c-1.4,0.3-2.7,1.1-3.5,2.2c-1.3,1.7-1.9,3.6-0.7,5.6C934.1,272.7,936.4,273.9,938.3,273.2z"/>
				<path class="st56" d="M949.3,266.4c-0.6,0.9,0,0.1,0.2-0.1c-0.7,0.7-0.2,0.1,0.1,0c1.1-0.7,1.9-1.7,2.3-3c0.4-1.3,0-2.7-1-3.6
					c-0.6-0.6-1.3-1-2.1-1.2c-1.2-0.3-2.4-0.1-3.5,0.5c-1.1,0.5-2,1.3-2.8,2.2c-1.6,1.7-1.6,4.4,0,6.1c0.8,0.8,1.9,1.3,3.1,1.3
					C947.1,268.4,948.5,267.6,949.3,266.4L949.3,266.4z"/>
				<path class="st56" d="M947.8,259.9l-0.4,0.5c-1.2,1.3-1.2,3.3,0,4.6c1.3,1.4,3.2,1.1,4.6,0l0.5-0.4c1.4-1.1,1.2-3.5,0-4.7
					S948.9,258.5,947.8,259.9z"/>
				<path class="st56" d="M929.4,281.8v1.6c0,1.8,1.4,3.2,3.2,3.2c1.8,0,3.2-1.4,3.2-3.2v-1.6c0-1.8-1.4-3.2-3.2-3.2
					C930.9,278.6,929.4,280.1,929.4,281.8L929.4,281.8z"/>
				<path class="st56" d="M929.8,283.1c0,0.5-0.1,1-0.2,1.5c-0.1,0.6,0,1.3,0.4,1.8c0.3,0.5,1,0.8,1.6,0.6c1.6-0.5,2-1.9,2.3-3.4
					c0.3-1.1-0.4-2.2-1.5-2.5c-1.1-0.3-2.3,0.4-2.5,1.5C929.8,282.8,929.8,283,929.8,283.1L929.8,283.1z"/>
				<path class="st56" d="M1026.8,269l-0.1,0.1l1.3-1c-0.2,0.1-0.4,0.2-0.6,0.4c-1,0.6-1.9,1.4-2.5,2.4c-0.9,1.5-1.1,3.3-0.6,5
					c0.5,1.7,1.6,3.1,3.2,4c2.4,1.4,5.4,1,7.3-1c0.4-0.5,0.8-1,1.2-1.6c1.1-1.8,1.1-4.1,0-5.9c-1-1.6-3.1-3.1-5-2.9
					c-0.1,0-0.3,0-0.4,0l5.8,4.4c-0.2-0.7-0.5-1.3-0.8-1.9l0.6,1.5v-0.1c0.1,0.5,0.2,1.1,0.2,1.6v-0.1l-0.8,3.1l0.1-0.1l-1,1.3
					l0.1-0.1l-1.3,1c0.8-0.4,1.5-0.9,2.1-1.5c2.4-2.4,2.4-6.3,0-8.7C1033.1,266.5,1029.2,266.5,1026.8,269L1026.8,269z"/>
				<path class="st56" d="M1043.5,272.5c2.9,0.2,6.3-1.1,7.1-4.2c-0.4,0.7-0.8,1.4-1.2,2c1.2-1.4,2-2.9,1.5-4.8c-0.3-1.1-1-2-2-2.5
					c-0.7-0.4-1.4-0.6-2.2-0.6c-1.4,0.2-1.5,0.2-0.5,0.1l2.3,0.6c-1.3-0.7-2.8-1-4.2-0.6c-0.4,0.1-1.3,0.2,0.2,0c-0.3,0-0.6,0-0.9,0
					c-2.7-0.3-5,2.5-5,5C1038.6,270.2,1040.8,272.4,1043.5,272.5L1043.5,272.5z"/>
				<path class="st56" d="M1060.9,267.8c1.6-1.5,3.3-3.7,2.3-6v2.2c0.2-0.5,0.3-1,0.2-1.6c-0.2-1.6-1-3.4-2.8-3.7
					c-0.9-0.2-1.8-0.2-2.6,0l3.3,0.4c-1.2-0.7-2.6-0.9-3.9-0.5c-1.3,0.6-1.5,0.6-0.6,0.2c-0.3,0.1-0.6,0.2-0.9,0.3
					c-2.7,0.8-4.3,3.6-3.6,6.3c0.8,2.7,3.6,4.3,6.3,3.6C1059.5,268.8,1060.3,268.4,1060.9,267.8L1060.9,267.8z"/>
				<path class="st56" d="M1073.3,262.3c-0.2,0.5-0.5,1-0.8,1.4c0.3-0.4,0.6-0.7,0.8-1.1c1.4-2,0.4-5.1-1.6-6.3
					c-1.4-0.8-3.2-1-4.7-0.4c-1.7,0.5-3.1,1.9-3.6,3.6c-0.6,2.8,1.1,5.6,3.9,6.2C1069.9,266.4,1072.5,264.9,1073.3,262.3
					L1073.3,262.3z"/>
				<path class="st56" d="M1044.7,265.4l-0.2,0.2c-2.5,1.5-3.3,4.7-1.8,7.2c0.4,0.8,1.1,1.4,1.8,1.8l0.2,0.2c1.7,1,3.8,1,5.5,0
					c2.6-1.5,3.4-4.8,1.9-7.4c-0.5-0.8-1.1-1.5-1.9-1.9C1048.5,264.4,1046.4,264.4,1044.7,265.4L1044.7,265.4z"/>
				<path class="st56" d="M1037,282.7c4.6,0,4.6-7.1,0-7.1S1032.4,282.7,1037,282.7z"/>
				<path class="st56" d="M1029.8,291.1c0.7,0.4,1.6,0.7,2.4,0.7c1.5-0.2,3.2-1,3.5-2.6c0.5-1.9-0.6-3.9-2.6-4.4
					c-0.3-0.1-0.5-0.1-0.8-0.1l1.8,0.5l0.6,0.5l0.9,1.6c-0.1-0.1-0.1-0.3-0.1-0.4c-0.4-2.5-3.7-3.5-5.7-2.3
					C1027.5,285.7,1027,289.9,1029.8,291.1L1029.8,291.1z"/>
				<path class="st56" d="M1029,289.2l0.7-0.3h2.2l0.7,0.3c-1.2-0.7-2.8-0.7-4,0c-1.5,0.9-2.3,2.8-1.8,4.5c0.3,1.3,1.1,2.3,2.3,2.9
					c1.4,0.7,3,0.7,4.4,0c2.1-1.2,2.8-3.8,1.6-5.9c-0.4-0.6-0.9-1.2-1.6-1.6C1032.1,288.4,1030.4,288.4,1029,289.2L1029,289.2z"/>
				<path class="st56" d="M1022,278.9c0.2-0.3,0.3-0.5,0.5-0.8c0.3-0.4,0.5-0.9,0.6-1.4c-0.3,0.6-0.3,0.7-0.1,0.3
					c1.1-2,0.5-4.5-1.4-5.8c-3-1.8-6,0.5-7.6,3c-1.3,2.2-0.5,5,1.7,6.3C1017.9,281.8,1020.7,281.1,1022,278.9L1022,278.9L1022,278.9
					z"/>
				<path class="st56" d="M1018.7,270.6c3.3,0,3.3-5,0-5S1015.5,270.6,1018.7,270.6z"/>
				<path class="st56" d="M1020.8,262.5c0.8-0.4,1.4-1.1,1.9-1.8c0.9-1.5,0.6-3.5-0.6-4.7c-1.3-1.2-3.2-1.5-4.7-0.6l1.4-0.5
					c-2.7-0.2-4.6,2.8-3.9,5.2c0.6,2.2,2.9,3.4,5.1,2.8C1020.2,262.8,1020.5,262.6,1020.8,262.5L1020.8,262.5z"/>
				<path class="st56" d="M996,264.1l-0.4,0.1c-7.8,2.2,6,8.9,3.3,1.9l-0.2-0.5C998.3,264.4,997.1,263.8,996,264.1L996,264.1z"/>
				<path class="st56" d="M987.9,269.5c0.3,1.5,1.6,2.6,3.2,2.6c2.2,0.1,3.2-2.4,2.3-4.1c-0.3-0.5,0.1,0.7,0-0.1
					c-0.4-1.5-2-2.4-3.5-2C988.4,266.4,987.5,268,987.9,269.5L987.9,269.5z"/>
				<path class="st56" d="M989.5,277c0.1,0.6,0.2,1.1,0.4,1.6c0.4,1.5,1.5,2.6,3,3.1c1.6,0.4,3.3-0.2,4.1-1.7
					c0.6-0.9,0.8-2.1,0.5-3.2c-0.1-0.2-0.1-0.4-0.2-0.6c-0.2-1.1,0,0.8,0-0.3c0-2.2-1.8-4-4-4c-1,0-2,0.4-2.8,1.2
					C989.5,274.2,989.1,275.6,989.5,277L989.5,277z"/>
				<path class="st56" d="M988.6,277.2c-0.3-1.1-0.8-2.2-1.6-3c-0.8-0.8-2.2-0.8-3,0.1c-0.2,0.2-0.4,0.5-0.5,0.8
					c-0.3,1.1-0.3,2.3,0,3.5C984.2,281.9,989.5,280.5,988.6,277.2L988.6,277.2z"/>
				<path class="st56" d="M986.7,268.8C986.8,268.8,986.8,268.8,986.7,268.8c0-0.1,0-0.1,0-0.1S986.7,268.7,986.7,268.8
					C986.7,268.8,986.7,268.8,986.7,268.8z"/>
				<path class="st56" d="M995.3,260.9c0.9-0.4,1.7-1.1,2.3-1.9c0.3-0.6,0.1-1.3-0.5-1.6c-0.4-0.2-0.8-0.2-1.2,0
					c-0.7,0.4-1.4,0.8-2.1,1.1c-0.7,0.4-0.9,1.3-0.5,2C993.7,261,994.6,261.2,995.3,260.9z"/>
				<path class="st56" d="M1004.2,259.2c0.8-0.3,1.6-0.7,2.4-1.1c1-0.7,1.8-1.6,2.3-2.6c1.8-2.8-1.2-6.3-4.2-5.4
					c-0.5,0.1-0.9,0.2-1.4,0.3c-0.4,0.2-0.9,0.4-1.3,0.6c-1,0.5,0.8-0.3-0.1,0c-2.3,0.7-3.6,3-3,5.3
					C999.5,258.1,1002,260,1004.2,259.2L1004.2,259.2z"/>
				<path class="st56" d="M1011.5,252.4h-0.7c0,0,0,0,0,0.1s0,0.1,0,0.1l0,0h0.7C1011.6,252.5,1011.6,252.5,1011.5,252.4
					C1011.6,252.4,1011.6,252.4,1011.5,252.4z"/>
				<path class="st56" d="M978,270.8c0.7,1.2,1.7,2.1,2.9,2.7c1.8,0.8,4.5,0.9,5.9-0.9c1.5-2,1.5-4.5-0.8-5.8
					c-0.3-0.2-0.7-0.4-1.1-0.5c-0.8-0.2,0.8,0.5,0.1,0.1c-1.2-0.5-1.3-0.5-0.5-0.2l0.4,0.3c-0.3-0.3-0.3-0.3,0.1,0.1
					c-1.3-1.8-3.5-2.7-5.6-1.5C977.5,266.4,976.9,268.9,978,270.8L978,270.8z"/>
				<path class="st56" d="M982.6,277.7c0.8,2.6,2.7,4.9,5.6,4.7c2.1-0.1,4.1-2.1,3.3-4.4c-0.1-0.4-0.2-0.7-0.3-1
					c-0.5-1.1-0.5-1.3-0.2-0.5c-0.1-0.3-0.1-1.1,0,0.1c0-2.4-1.9-4.3-4.3-4.3c-2.4,0-4.3,1.9-4.3,4.3
					C982.5,277,982.6,277.4,982.6,277.7L982.6,277.7z"/>
				<path class="st56" d="M987.6,281.3c-2.2,1.4-4.2,4.1-3.6,6.8c0.3,1.2,1.4,2,2.7,2c1.5,0,2.7-1.2,2.7-2.8c0-0.4,0-0.9-0.1-1.3
					c0.1,0.4,0-0.5,0-0.6c0,0.5,0.2-0.1,0.3-0.3c0.2-0.2,0.4-0.4,0.6-0.6C991.9,283,989.6,280,987.6,281.3L987.6,281.3z"/>
				<path class="st56" d="M985.9,287c-0.1-0.2-0.2-0.5-0.3-0.7c-0.8-2-2.3-3.6-4.7-3.6s-3.9,1.5-4.7,3.6l-0.3,0.7
					c-0.4,1.3-0.2,2.8,0.5,4c1.5,2.5,4.6,3.3,7.1,1.8c0.4-0.2,0.7-0.5,1-0.8C985.7,290.8,986.5,288.6,985.9,287L985.9,287z"/>
				<path class="st56" d="M936.8,288.8c-0.3,0.6-0.6,1.3-0.8,2c-0.6,2.4,0.4,5,2.5,6.3c2.7,1.5,6,0.6,7.6-2c0.2-0.4,0-0.2-0.5,0.6
					c2-2.4,2.3-5.7,0-8c-1.1-1.1-2.5-1.7-4-1.6C939.7,285.9,937.8,287,936.8,288.8L936.8,288.8z"/>
				<path class="st56" d="M929.6,294.6c-1.7,0.4-3.1,1.5-4,3.1c-1.2,2-0.5,4.7,1.5,5.9c1,0.6,2.2,0.7,3.3,0.4c1.5-0.4,2.6-1.5,3-3
					c0.1-0.5,0.4-2.3,0.1-0.8l0.1-0.2c-0.1,0.3-0.2,0.6-0.5,0.8c1.1-1.2,1.4-3,0.6-4.5C932.9,294.9,931.2,294.2,929.6,294.6
					L929.6,294.6z"/>
				<path class="st56" d="M921.7,306.6c0,0.6,0.1,1.3,0.2,1.9c0.6,1.9,2.6,2.9,4.5,2.4c1.1-0.3,2-1.2,2.4-2.4
					c0.2-0.6,0.2-1.3,0.2-1.9c0.1-2-1.4-3.7-3.4-3.8c-2-0.1-3.7,1.4-3.8,3.4C921.7,306.4,921.7,306.5,921.7,306.6L921.7,306.6z"/>
				<path class="st56" d="M920.8,310.6c-1.4,1.3-2,3.3-1.6,5.2c0.4,1.5,1.8,2.6,3.5,2.6c1.6,0,3-1.1,3.4-2.6
					c0.1-0.4,0.1-0.8,0.2-1.2v0.5c-0.7,0.9-0.8,1.2-0.3,0.7c1.4-1.5,1.3-3.8-0.2-5.1C924.4,309.3,922.3,309.3,920.8,310.6
					L920.8,310.6z"/>
				<path class="st56" d="M914.6,325.7c-0.5,2.6-0.5,5.2,1,7.5c1,1.7,3.1,2.6,5.1,2.1h0.1l-3.2-0.4l0.2,0.2c2.4,1.8,6.3-0.6,6.1-3.5
					c0-0.1,0-0.2,0-0.3l-2.1,3.6l0,0c1.7-1.1,2.5-3.1,2.1-5.1c-0.1-0.6-0.2-1.1-0.4-1.7c-0.1-0.3-0.2-0.7-0.3-1c0.2,1.2,0,0.1,0-0.2
					c0-2.4-1.9-4.4-4.4-4.4C916.8,322.4,915.1,323.8,914.6,325.7L914.6,325.7z"/>
				<path class="st56" d="M1087.7,328.9c0.1-0.2,0.1-0.3,0.2-0.5c0.2-1.4,0.2-1.7,0.1-0.8c1-2.4-1.5-5-3.8-5h-0.3l2.1,0.6
					c-1-0.6-2.1-0.8-3.2-0.8c-2.8,0-5.2,2.3-5.2,5.1c0,2.8,2.3,5.2,5.1,5.2c0.9,0,1.8-0.2,2.7-0.7
					C1086.4,331.3,1087.3,330.2,1087.7,328.9L1087.7,328.9z"/>
				<path class="st56" d="M1073.9,296.5l-0.9,0.1c-7.8,1.2,0.8,14,4.9,6.3l0.1-0.2c1.6-3-1.1-7.7-4.8-6.2l-0.2,0.1l5.3,5.3
					c0.1-0.3,0.2-0.5,0.2-0.8C1079.3,298.1,1076.6,296,1073.9,296.5L1073.9,296.5z"/>
				<path class="st56" d="M1069,315.1C1069.4,315.1,1069.4,315.1,1069,315.1c0.1,0,0.3,0.1,0.5,0.2c0.9,0.2,1.8,0.2,2.6,0
					c1.4-0.4,2.4-1.7,2.4-3.2c-0.1-2.7-2.2-4-4.5-4.7c-2.1-0.7-4.4,0.4-5.1,2.4c-0.7,2.1,0.4,4.4,2.4,5.1
					C1067.9,315.1,1068.5,315.2,1069,315.1L1069,315.1z"/>
				<path class="st56" d="M1071.5,311l-0.1-0.3c-0.5-1.7-2.3-2.7-4-2.2c-1,0.3-1.9,1.1-2.2,2.2l-0.1,0.3c-0.5,1.8,0.5,3.6,2.3,4.1
					c1.8,0.5,3.6-0.5,4.1-2.3C1071.7,312.2,1071.7,311.6,1071.5,311L1071.5,311z"/>
				<path class="st56" d="M1061.5,299.9l0.3-0.1c2-0.6,3.1-2.7,2.5-4.7c-0.4-1.2-1.3-2.2-2.5-2.5l-0.3-0.1c-2.1-0.6-4.2,0.6-4.8,2.7
					s0.6,4.2,2.7,4.8C1060.2,300.1,1060.9,300.1,1061.5,299.9z"/>
				<path class="st56" d="M1072.6,289.7c0,0.6,0,0.7,0.1,0.3c0.3-1.2-0.4-2.3-1.6-2.6c-0.7-0.2-1.5,0-2,0.5
					c-0.5,0.5-0.9,1.1-1.1,1.8c-0.3,1.3,0.4,2.6,1.7,2.9c1.3,0.3,2.6-0.4,2.9-1.7C1072.7,290.5,1072.7,290.1,1072.6,289.7
					L1072.6,289.7z"/>
				<path class="st56" d="M1080.8,288.6c1.7,0.1,3.2-0.9,3.7-2.5c0.3-1-0.2-2.1-1.1-2.6c-0.8-0.4-1.7-0.6-2.6-0.5
					c-1.6,0.1-2.8,1.4-2.7,3C1078.2,287.3,1079.3,288.5,1080.8,288.6L1080.8,288.6z"/>
				<path class="st56" d="M1079.4,274.8c3.6,0,3.6-5.5,0-5.5S1075.9,274.8,1079.4,274.8z"/>
				<path class="st56" d="M1074.5,260.9c-0.1,2,1.1,3.8,3,4.4c1.2,0.3,2.4,0,3.3-0.9c1.1-1.1,1.3-2.7,0.5-4.1c0.4,0.8,0.4,1.6,0,2.4
					c1-1.8,0.4-4-1.3-5c-1.8-1-4-0.4-5,1.3C1074.6,259.6,1074.4,260.3,1074.5,260.9L1074.5,260.9z"/>
				<path class="st56" d="M1065.1,280.9c3.1,0,3.1-4.8,0-4.8S1062,280.9,1065.1,280.9z"/>
				<path class="st56" d="M1061.2,278.5c0.3-0.6-0.3,0.3-0.4,0.5c-0.7,1.2-0.2,2.8,1,3.5c0.6,0.3,1.2,0.4,1.9,0.2
					c1.1-0.3,2-1.1,2.5-2.2c0.7-1.3,0.3-2.9-1-3.6c-1.3-0.7-2.9-0.3-3.6,1C1061.3,278.1,1061.3,278.3,1061.2,278.5z"/>
				<path class="st56" d="M961.3,286.5L961,287c-1.4,1.4-1.4,3.6,0,5s3.6,1.4,5,0l0.5-0.4c1.5-1.2,1.3-3.8,0-5.1
					S962.6,285,961.3,286.5L961.3,286.5z"/>
				<path class="st56" d="M950.4,292.3v0.3c-0.1,2,1.4,3.7,3.5,3.8s3.7-1.4,3.8-3.5c0-0.1,0-0.3,0-0.4v-0.3c0.1-2-1.5-3.8-3.5-3.9
					c-2-0.1-3.8,1.5-3.9,3.5C950.3,292,950.3,292.1,950.4,292.3L950.4,292.3z"/>
				<path class="st56" d="M943,313.1c0.2,0.4,0.2,0.3,0-0.1v-1.2c-0.1,0.4-0.1,0.7-0.1,1.1c0.1,2,2.1,4,4.2,3.2c2-0.7,3.3-2.7,3-4.9
					c0-2.1-1.7-3.8-3.8-3.8c-2.1,0-3.8,1.7-3.8,3.8C942.5,311.9,942.7,312.5,943,313.1L943,313.1z"/>
				<path class="st57" d="M945.2,277.7c0,0.5,0.1,0.6,0.2,0.3s0.2-0.5,0.3-0.7c0.2-0.7-0.1-1.4-0.7-1.8c-0.6-0.3-1.4-0.3-1.9,0.2
					c-1,0.8-1.4,2.1-1,3.3c0.3,0.9,1.3,1.4,2.2,1.2c0.9-0.3,1.4-1.3,1.2-2.2C945.3,277.9,945.2,277.8,945.2,277.7L945.2,277.7z"/>
				<path class="st57" d="M941.1,267.9c0.5,0.3,1.1,0.4,1.6,0.4c0.5,0,0.9-0.1,1.3-0.3l0.5-0.4c0.5-0.6,0.5-0.6-0.1,0.1
					c0.9-0.6,1.2-1.8,0.6-2.7c-0.2-0.3-0.4-0.5-0.6-0.6l0.5,0.5c-0.2-0.3-0.5-0.6-0.8-0.8c-0.4-0.2-0.8-0.3-1.3-0.3
					c-0.6,0-1.1,0.2-1.6,0.5c-1,0.6-1.3,1.9-0.7,2.9C940.6,267.5,940.8,267.8,941.1,267.9L941.1,267.9z"/>
				<path class="st57" d="M936.5,281.2c0.3,0.2,0.5,0.4,0.8,0.6c0.9,0.5,2.5,0.1,2.7-1.1c0.1-0.8,0.1-1.5-0.8-1.8l0.7,0.5
					c-0.2-0.3-0.5-0.7-0.8-1C937.6,276.7,934.6,279.6,936.5,281.2z"/>
				<path class="st57" d="M937.1,285.2c0.8-0.1,1.4-0.8,1.3-1.5c-0.1-0.7-0.6-1.2-1.3-1.3c-0.8,0.1-1.4,0.8-1.3,1.5
					C935.9,284.6,936.4,285.1,937.1,285.2z"/>
				<path class="st57" d="M936.4,277.6c0.6,0,1-0.4,1-1s-0.4-1-1-1c-0.6-0.3-1.3-0.1-1.6,0.4c-0.3,0.6-0.1,1.3,0.4,1.6
					C935.6,277.8,936,277.8,936.4,277.6z"/>
				<path class="st57" d="M938,278.7c0.6,0.4,1.3,0.5,2,0.3c0.2-0.1,0.3-0.4,0.1-0.6c0-0.1-0.1-0.1-0.1-0.1
					c-0.3-0.1-0.6-0.4-0.8-0.7C938.7,276.2,936.7,277.8,938,278.7L938,278.7z"/>
				<path class="st57" d="M943,282.5c0.7-0.1,1.3-0.7,1.2-1.5c-0.1-0.7-0.6-1.2-1.2-1.2c-0.7,0.1-1.3,0.7-1.2,1.5
					C941.8,281.9,942.3,282.5,943,282.5z"/>
				<path class="st57" d="M945.4,305.9c0.8-0.5,1.6-1.2,2.2-2c1-1.4-0.7-3.1-2.1-2.7c-0.8,0.2-1.6,0.6-2.3,1.1
					c-1,0.6-1.3,1.9-0.8,2.9C943.1,306.1,944.4,306.5,945.4,305.9L945.4,305.9z"/>
				<path class="st57" d="M948.9,314.5"/>
				<path class="st57" d="M950.2,321.8c0.4,0,0.8-0.4,0.8-0.8c0-0.4-0.3-0.8-0.8-0.8c-0.4,0-0.8,0.4-0.8,0.8
					C949.4,321.4,949.7,321.8,950.2,321.8z"/>
				<path class="st57" d="M1046.2,284.6c1.3,0.1,2.5-0.1,3.7-0.7c1.1-0.5,2.4-2.3,2-3.6c-0.1-0.6-0.5-1-1-1.3
					c-0.3-0.2-0.7-0.3-1.1-0.3c0.3,0-1.3,0.1-0.7,0.1l-1,0.1l-0.3,0.1c0.4,0,0.3,0-0.5,0.1c0.3,0,0.2,0-0.1,0c-0.3,0-0.6,0-0.9,0
					c-1.5,0-2.8,1.2-2.8,2.8v0C1043.4,283.4,1044.6,284.6,1046.2,284.6L1046.2,284.6z"/>
				<path class="st57" d="M1055.5,283.1c0.9,0.6,2,0.7,3,0.2c1-0.5,1.3-1.8,0.8-2.7c0,0,0-0.1,0-0.1c-0.4-0.7-1.2-1.1-2-1l1,0.3
					l0.2,0.3c-0.6-1.1-2-1.4-3.1-0.8c-1.1,0.6-1.4,2-0.8,3.1c0.2,0.3,0.5,0.6,0.8,0.8L1055.5,283.1z"/>
				<path class="st57" d="M1064.8,284.7c0.4-0.6,0.6-1.3,0.6-2c-0.1-1.5-2.2-2.3-3-0.8c-0.2,0.5,0.3-0.1-0.2,0.2
					c-0.9,0.5-1.2,1.7-0.7,2.6c0.1,0.1,0.2,0.3,0.3,0.4c0.8,0.7,2,0.7,2.7,0C1064.6,285,1064.7,284.9,1064.8,284.7L1064.8,284.7z"/>
				<path class="st57" d="M1046.8,289.6c1.1-0.1,1.8-1,1.8-2c-0.1-0.9-0.8-1.7-1.8-1.8c-1.1,0.1-1.8,1-1.8,2
					C1045.1,288.8,1045.9,289.5,1046.8,289.6z"/>
				<path class="st57" d="M1041.4,295.3c0.8-0.2,1.5-0.8,1.7-1.6c0.2-0.7-0.1-1.5-0.8-1.8c-0.7-0.4-1.6-0.2-2.1,0.4l0.7-0.4h0.4
					c-1-0.3-2,0.3-2.3,1.3s0.3,2,1.3,2.3C1040.7,295.5,1041.1,295.5,1041.4,295.3L1041.4,295.3z"/>
				<path class="st57" d="M1038.9,296.7c-0.1-0.2-0.1-0.4-0.2-0.6c-0.1-0.2-0.3-0.3-0.5-0.3c-0.1,0-0.2,0.1-0.3,0.3l-0.2,0.6
					C1037.5,297.6,1039.1,297.6,1038.9,296.7L1038.9,296.7z"/>
				<path class="st57" d="M1038.6,277.5c0.6-0.5,1-1.2,1.2-2c0.1-0.5-0.2-1-0.6-1.1c-0.1,0-0.3,0-0.4,0c-0.8,0.2-1.5,0.6-2,1.2
					C1035.4,276.8,1037.5,278.8,1038.6,277.5z"/>
				<path class="st57" d="M1047.3,269.3l0.3-0.1c0.9-0.3,1.5-1.3,1.2-2.2c-0.2-0.6-0.6-1-1.2-1.2l-0.3-0.1c-1-0.3-2,0.3-2.3,1.3
					c-0.3,1,0.3,2,1.3,2.3C1046.6,269.3,1047,269.3,1047.3,269.3z"/>
				<path class="st57" d="M1054.5,266.7c0.9-0.2,1.6-0.8,1.8-1.6c0.2-0.8-0.1-1.6-0.8-2c-0.8-0.4-1.7-0.3-2.3,0.4l0.8-0.5h0.5
					c-1-0.4-2.2,0.2-2.6,1.2s0.2,2.2,1.2,2.6C1053.6,266.9,1054.1,266.9,1054.5,266.7L1054.5,266.7z"/>
				<path class="st57" d="M1051.4,255.7L1051.4,255.7L1051.4,255.7z"/>
				<path class="st57" d="M1056.4,256.9c0.4-0.1,0.8-0.3,1.2-0.5c0.7-0.4,0.9-1.3,0.5-2c-0.1-0.2-0.3-0.4-0.5-0.5
					c-0.4-0.2-0.8-0.4-1.2-0.6c-1-0.3-2,0.3-2.3,1.3s0.3,2,1.3,2.3C1055.8,256.9,1056.1,256.9,1056.4,256.9z"/>
				<path class="st57" d="M1063.8,263.7c2.7,0,2.7-4.2,0-4.2S1061.1,263.7,1063.8,263.7z"/>
				<path class="st57" d="M1058.3,249.5l0.3-0.1c0.9-0.3,1.4-1.2,1.1-2c-0.2-0.5-0.6-0.9-1.1-1.1l-0.3-0.1c-0.9-0.3-1.8,0.3-2.1,1.2
					s0.3,1.8,1.2,2.1C1057.7,249.6,1058,249.6,1058.3,249.5z"/>
				<path class="st57" d="M1006.6,271.1c-0.1-0.3-0.2-0.5-0.4-0.7c-0.2-0.3-0.7-0.4-1-0.2c-0.1,0.1-0.2,0.1-0.2,0.2
					c-0.2,0.2-0.3,0.5-0.4,0.7C1004.2,272.7,1007.2,272.7,1006.6,271.1L1006.6,271.1z"/>
				<path class="st57" d="M997.5,267.1c1.3-1,2.9-2.5,2.3-4.3c-0.2-0.7-1-1.2-1.8-0.9c-0.1,0-0.1,0.1-0.2,0.1
					c-0.9,0.5-1.3,1.4-2.1,2c-0.9,0.5-1.2,1.6-0.7,2.5C995.5,267.3,996.6,267.6,997.5,267.1L997.5,267.1z"/>
				<path class="st57" d="M997.2,274c0.8,0,1.6-0.2,2.4-0.5c0.8-0.5,1.1-1.5,0.6-2.3c-0.1-0.2-0.3-0.4-0.6-0.6
					c-0.8-0.3-1.6-0.5-2.4-0.5C994.6,269.8,994.6,274.3,997.2,274z"/>
				<path class="st57" d="M901,315c0.5-0.1,0.9-0.2,1.3-0.4c0.8-0.5,1-1.5,0.6-2.2c-0.1-0.2-0.3-0.4-0.6-0.6
					c-0.4-0.2-0.9-0.3-1.3-0.4c-1-0.3-2,0.3-2.3,1.3s0.3,2,1.3,2.3C900.3,315.1,900.7,315.1,901,315L901,315z"/>
				<path class="st57" d="M909.4,305.3l0.3-0.1c0.6-0.2,1-0.9,0.8-1.5c-0.1-0.4-0.4-0.7-0.8-0.8l-0.3-0.1
					C907.3,302.2,907.3,305.9,909.4,305.3L909.4,305.3z"/>
				<path class="st57" d="M889.8,319c0,1.4,1.3,2.7,2.8,1.8c0.6-0.4,0.8-1.2,0.5-1.8c-0.1-0.2-0.3-0.4-0.4-0.5l0.5,1.1
					c0-0.2,0-0.3,0-0.5C893.2,316.9,889.7,316.9,889.8,319L889.8,319z"/>
				<path class="st57" d="M1032.7,322.7c0.7-0.2,1.3-0.8,1.6-1.5c0.1-0.5-0.4-0.8-0.8-0.6c-0.2,0.1-0.5,0.2-0.7,0.1
					C1030.9,320.1,1031.2,323.3,1032.7,322.7L1032.7,322.7z"/>
				<path class="st57" d="M1043.2,321.6c0,0.3,0,0.6,0,1c0.1,0.9,0.9,1.6,1.8,1.5c0.8-0.1,1.4-0.7,1.5-1.5c0-0.3,0-0.7,0-1
					c0-0.9-0.7-1.7-1.7-1.7S1043.2,320.7,1043.2,321.6L1043.2,321.6z"/>
				<path class="st57" d="M1041,316.6c0.5-0.8,0.4-1.9-0.2-2.6c-0.3-0.3-0.7-0.3-1,0c-0.6,0.5,1-0.2-0.1,0.1
					c-0.3,0.1-0.5,0.2-0.8,0.3C1036.6,315.4,1039.5,319,1041,316.6L1041,316.6z"/>
				<path class="st57" d="M1042.6,315c0.5-0.1,1-0.4,1.4-0.8c0.2-0.3,0.2-0.7,0-0.9c-0.4-0.4-0.9-0.6-1.4-0.8
					C1040.5,311.8,1040.5,315.8,1042.6,315L1042.6,315z"/>
				<path class="st57" d="M1032.5,324.3c0.1-0.7,0.1-1.5,0.1-2.2c-0.1-0.4-0.6-0.7-1-0.6c-1,0.4-1.7,1.3-1.7,2.4
					c-0.2,0.7,0.3,1.5,1,1.6c0.7,0.2,1.5-0.3,1.6-1C1032.5,324.5,1032.5,324.4,1032.5,324.3L1032.5,324.3z"/>
				<path class="st57" d="M1040.6,323.5c1,0,2,0,2.9,0.2c0.5,0,0.8-0.4,0.8-0.9c0-0.1,0-0.2-0.1-0.4c-0.8-1.6-2.7-1.8-4.3-1.5
					S1039,323.8,1040.6,323.5L1040.6,323.5z"/>
				<path class="st57" d="M1048.8,320.1c3,0,3-4.7,0-4.7S1045.8,320.1,1048.8,320.1z"/>
				<path class="st58" d="M976.9,300.6c4,0,4-6.2,0-6.2S972.9,300.6,976.9,300.6z"/>
				<path class="st58" d="M971.5,323.4l0.2-0.2l-1.2,1.5c0.6-0.8,1.3-1.5,1.8-2.3l-1.1,1.5c1-1,1.7-2.3,2.2-3.6
					c0.3-1.2,0.3-2.4,0-3.6c-0.5-1.7-1.6-3.1-3.2-4.1c-1.8-1.4-4.3-1.2-6.4-0.7c-2.3,0.6-3.9,2.3-5.1,4.2c-2.3,3.3-0.6,8.1,2.6,10
					c1.7,1,3.8,1.3,5.7,0.7C969,326.2,970.5,325,971.5,323.4L971.5,323.4z"/>
				<path class="st58" d="M898.5,328.7c0.9,0.1-1.1-0.7-0.4-0.2c2.4,1.7,6.4,0,7-2.9c0.3-1.1,0.3-2.3,0-3.5
					c-0.8-2.8-3.7-4.5-6.6-3.7c-2.8,0.8-4.5,3.7-3.7,6.6C895.2,326.6,896.8,328.5,898.5,328.7L898.5,328.7z"/>
				<path class="st30" d="M964.5,264.7c0.7,0,1.3,0,2-0.2c0.9-0.3,1.4-1.2,1.2-2.2c-0.2-0.6-0.6-1-1.2-1.2c-0.7-0.2-1.3-0.2-2-0.2
					c-1,0-1.9,0.8-1.9,1.9C962.7,263.9,963.5,264.7,964.5,264.7z"/>
				<path class="st30" d="M963.9,276.7c2.6,0,2.6-4.1,0-4.1S961.2,276.7,963.9,276.7z"/>
				<path class="st30" d="M953.8,269.6c1,0.5,2.1,0.8,3.2,0.7c0.9,0,1.6-0.8,1.6-1.7c0-0.7-0.5-1.3-1.2-1.5
					c-0.6-0.2-1.2-0.4-1.8-0.6c-0.9-0.5-1.9-0.2-2.5,0.6C952.7,268.1,953,269.1,953.8,269.6L953.8,269.6z"/>
				<path class="st30" d="M961.7,269.2c0.1,0.7,0.7,1.3,1.4,1.5c0.5,0.1,1,0,1.3-0.4l0.1-0.1c0.3-0.3,0.4-0.8,0.3-1.2l-0.2-0.4
					c-0.3-0.5-0.3-0.3,0,0.5C965.3,266.7,961.1,266.6,961.7,269.2L961.7,269.2z"/>
				<path class="st30" d="M964.7,271.9c0,0.1,0,0.2,0,0.3c0.3,1.7,3.3,1.7,3.5,0c0-0.1,0-0.2,0-0.3c0.3-1-0.3-2-1.3-2.3
					c-1-0.3-2,0.3-2.3,1.3C964.5,271.2,964.5,271.5,964.7,271.9L964.7,271.9z"/>
				<path class="st30" d="M955.4,273.3c1.4,0.1,2.6-0.7,3.1-2c0.4-1.5-1.2-2-2.4-1.8h0.9c-0.5,0-1.1,0-1.6,0
					C952.9,269.5,952.9,273.3,955.4,273.3L955.4,273.3z"/>
				<path class="st30" d="M960,276.5l0.5,0.4c0.6,0.6,1.7,0.6,2.3,0c0.6-0.6,0.6-1.7,0-2.3l-0.4-0.5
					C961.1,272.4,958.3,275.1,960,276.5L960,276.5z"/>
				<path class="st30" d="M915.7,314.3l-0.2-0.2c-0.5-0.7-1.4-1-2.2-0.5c-0.2,0.1-0.4,0.3-0.5,0.5l-0.2,0.2
					c-0.5,0.8-0.2,1.9,0.7,2.3s1.9,0.2,2.3-0.7C916.1,315.4,916.1,314.8,915.7,314.3L915.7,314.3z"/>
				<path class="st30" d="M905.8,313.4c2.8,0,2.8-4.4,0-4.4S903,313.4,905.8,313.4z"/>
				<path class="st30" d="M903.5,310.6c-0.4,0.5-0.7,1.1-0.9,1.7c-0.1,0.3,0.1,0.6,0.4,0.7c0.1,0,0.2,0,0.3,0
					c0.6-0.2,1.2-0.5,1.7-0.9c0.5-0.3,0.7-1.1,0.4-1.6c-0.3-0.5-1.1-0.7-1.6-0.4C903.7,310.3,903.5,310.5,903.5,310.6z"/>
				<path class="st30" d="M902.9,325l0.3-0.1c0.7-0.2,1.1-0.9,0.9-1.6c-0.1-0.4-0.5-0.8-0.9-0.9l-0.3-0.1c-0.8-0.2-1.6,0.2-1.8,1
					c-0.2,0.8,0.2,1.6,1,1.8C902.4,325.1,902.6,325.1,902.9,325z"/>
				<path class="st30" d="M893.9,315c0.2-0.3,0.4-0.6,0.6-0.9c0.4-0.8,0.2-1.7-0.6-2.2c-0.2-0.1-0.5-0.2-0.8-0.2
					c-1.2,0.1-2.2,0.8-2.7,1.8c-0.5,0.9-0.2,2.1,0.7,2.6c0.9,0.5,2.1,0.2,2.6-0.7C893.8,315.3,893.8,315.1,893.9,315L893.9,315z"/>
				<path class="st30" d="M901.1,318.8c0,0.1,0,0.2,0,0.3c0.2,0.7,1,1.2,1.7,0.9c0.4-0.1,0.8-0.5,0.9-0.9l0.1-0.3
					c0.2-0.8-0.3-1.5-1.1-1.7c-0.8-0.2-1.5,0.3-1.7,1.1C901,318.3,901,318.6,901.1,318.8L901.1,318.8z"/>
				<path class="st30" d="M886.8,320.3l-0.4,0.5c-0.7,0.7-0.7,1.9,0,2.6c0.7,0.7,1.9,0.7,2.7,0l0.5-0.4
					C891.4,321.4,888.4,318.4,886.8,320.3z"/>
				<path class="st30" d="M897.2,311.2c1.1-0.2,2-1.1,2.1-2.2c0-1-0.8-1.7-1.8-1.7c-0.2,0-0.4,0-0.6,0.1h1c-0.4-0.1-0.8-0.1-1.2-0.1
					c-1.1,0-2,0.9-2,2s0.9,2,2,2C896.9,311.2,897,311.2,897.2,311.2L897.2,311.2z"/>
				<path class="st30" d="M905.8,306"/>
				<path class="st30" d="M914.3,306L914.3,306L914.3,306z"/>
				<path class="st30" d="M1012.2,294.6c3,0,3-4.7,0-4.7S1009.2,294.6,1012.2,294.6z"/>
				<path class="st30" d="M1016.5,300.5l0.1,0.3c0.2,0.8,1.1,1.3,2,1.1c0.5-0.2,0.9-0.6,1.1-1.1l0.1-0.3c0.2-0.9-0.3-1.8-1.2-2
					c-0.9-0.2-1.8,0.3-2,1.2C1016.4,300,1016.4,300.3,1016.5,300.5z"/>
				<path class="st30" d="M1015,308.4c0,0.1,0,0.2,0,0.3c0.3,1.7,3.1,1.7,3.3,0c0-0.1,0-0.2,0-0.3c0.3-1-0.3-1.9-1.2-2.2
					c-1-0.3-1.9,0.3-2.2,1.2C1014.9,307.8,1014.9,308.1,1015,308.4L1015,308.4z"/>
				<path class="st30" d="M1004.3,292.3l-0.2-0.1c-0.6-0.6-1.5-0.6-2.1,0l-0.2,0.1c-0.7,0.7-0.7,1.8,0,2.5c0.7,0.7,1.8,0.7,2.5,0
					S1005,293,1004.3,292.3C1004.3,292.3,1004.3,292.3,1004.3,292.3z"/>
				<path class="st30" d="M985.4,295.4c0.6-0.1,1.1-0.6,1-1.3c-0.1-0.6-0.5-1-1-1c-0.6,0.1-1.1,0.6-1,1.3
					C984.4,294.9,984.9,295.3,985.4,295.4z"/>
				<path class="st30" d="M982.1,310.7c0,0.2,0,0.3,0,0.5l-0.5,0.8c0.6-0.6,0.8-1.5,0.4-2.3c-0.4-0.7-1.3-1.1-2.1-0.8
					c-0.9,0.3-1.5,1-1.7,1.9c-0.3,1,0.2,2.2,1.3,2.5c1,0.3,2.2-0.2,2.5-1.3C982.2,311.5,982.2,311.1,982.1,310.7L982.1,310.7z"/>
				<path class="st30" d="M985.8,315.2c0.6-0.1,1.1-0.5,1.3-1c0.3-0.5,0.2-1.1-0.2-1.6c-0.3-0.4-0.8-0.5-1.3-0.3l-0.3,0.1
					c-0.5,0.3-0.3,0.3,0.4,0c-0.7-0.2-1.5,0.3-1.7,1c-0.2,0.7,0.3,1.5,1,1.7C985.4,315.1,985.6,315.1,985.8,315.2L985.8,315.2z"/>
				<path class="st30" d="M996.5,306c0.4,0,0.6-0.4,0.6-0.8c0-0.3-0.3-0.6-0.6-0.6c-0.4,0-0.6,0.4-0.6,0.8
					C996,305.7,996.2,306,996.5,306z"/>
				<path class="st30" d="M1002.8,306.4l0,0.3c0.3,0.9,1.2,1.3,2,1.1c0.5-0.2,0.9-0.6,1.1-1.1c0-0.1,0-0.2,0-0.3
					c0.2-0.9-0.4-1.8-1.2-1.9c-0.9-0.2-1.8,0.4-1.9,1.2C1002.7,305.9,1002.7,306.2,1002.8,306.4z"/>
				<path class="st30" d="M1005,324.7c3.1,0,3.1-4.8,0-4.8S1001.9,324.7,1005,324.7z"/>
				<path class="st30" d="M1006.3,324.9c0.8,0.1,1.6-0.3,2.1-1c0.4-0.7,0.3-1.5-0.3-2.1c-0.2-0.2-0.6-0.3-0.8-0.1
					c-0.3,0.2-0.5,0.5-1,0.6C1004.6,322.4,1004.6,325,1006.3,324.9L1006.3,324.9z"/>
				<path class="st30" d="M1015.7,320.2l0.5-0.7c0.2-0.4,0.1-1-0.3-1.2c-0.3-0.1-0.6-0.1-0.8,0l-0.7,0.5c-0.4,0.4-0.5,1-0.1,1.4
					c0.4,0.4,1,0.5,1.4,0.1C1015.6,320.3,1015.7,320.2,1015.7,320.2L1015.7,320.2z"/>
				<path class="st30" d="M1016.8,307.9c0-0.5,0-1-0.1-1.5c-0.1-0.3-0.4-0.5-0.7-0.4c-0.2,0.1-0.3,0.2-0.4,0.4
					c-0.1,0.5-0.2,1-0.1,1.5c0,0.4,0.3,0.7,0.7,0.7C1016.5,308.6,1016.8,308.3,1016.8,307.9L1016.8,307.9z"/>
				<path class="st30" d="M1007.9,301.9C1007.9,301.9,1007.9,301.9,1007.9,301.9c-0.2,0.6,0,1.2,0.4,1.7c0.9,0.6,2.2,0.3,2.8-0.6
					c0.1-0.1,0.1-0.2,0.2-0.3c0.1-0.5,0.1-1.1-0.1-1.6C1010.7,298.8,1007.4,299.7,1007.9,301.9L1007.9,301.9z"/>
				<path class="st30" d="M1006.6,308.8c0.3-0.1,0.5-0.2,0.7-0.3c0.3-0.2,0.4-0.6,0.2-0.9c-0.1-0.1-0.1-0.2-0.2-0.2
					c-0.2-0.1-0.5-0.3-0.7-0.3C1005.1,306.6,1005.1,309.3,1006.6,308.8L1006.6,308.8z"/>
				<path class="st30" d="M1010.9,314.3c1-0.1,1.8-1,1.7-2c-0.1-0.9-0.8-1.6-1.7-1.7c-1,0.1-1.8,1-1.7,2
					C1009.3,313.5,1010,314.3,1010.9,314.3z"/>
				<path class="st30" d="M1014,318.1c2-0.6,2-2.8,0-3.4c-0.9-0.3-1.9,0.3-2.2,1.2c-0.3,0.9,0.3,1.9,1.2,2.2
					C1013.4,318.2,1013.7,318.2,1014,318.1z"/>
				<path class="st30" d="M1020.5,316.9c0.9-1,1.4-2.5,0.1-3.5c-0.4-0.2-0.9-0.2-1.3,0c-0.4,0.3-0.6,0.8-0.8,1
					C1016.6,315.8,1019,318.7,1020.5,316.9L1020.5,316.9z"/>
				<path class="st30" d="M1023.5,309.5l-0.1-0.3c-0.3-0.8-1.1-1.2-1.9-1c-0.5,0.1-0.8,0.5-1,1l-0.1,0.3c-0.2,0.9,0.3,1.7,1.1,2
					s1.7-0.3,2-1.1C1023.6,310.1,1023.6,309.8,1023.5,309.5z"/>
				<path class="st30" d="M1027,311.2c0,0.2,0,0.4,0,0.6c0,0.1,0.1,0.2,0.2,0.1c0.1,0,0.1-0.1,0.1-0.1c0-0.2,0-0.4,0-0.6
					c0-0.1-0.1-0.2-0.3-0.2C1027,311.1,1027,311.1,1027,311.2L1027,311.2z"/>
				<path class="st30" d="M1032.8,317.7c0,0.1,0,0.2,0.1,0.3c0.3,1.2,1.6,1.9,2.8,1.5c0.7-0.2,1.3-0.8,1.5-1.5c0-0.1,0-0.2,0.1-0.3
					c0.3-1.2-0.4-2.5-1.7-2.9s-2.5,0.4-2.9,1.7C1032.7,316.9,1032.7,317.3,1032.8,317.7L1032.8,317.7z"/>
				<path class="st30" d="M1012.1,322.7c0.4-0.5,0.7-1.1,0.9-1.7c0.3-1-0.3-2-1.3-2.2c-0.3-0.1-0.6-0.1-0.9,0
					c-0.6,0.2-1.1,0.5-1.7,0.9c-1,0.7-1.2,2-0.6,3s2,1.2,3,0.6C1011.8,323.2,1012,323,1012.1,322.7L1012.1,322.7z"/>
				<path class="st30" d="M997.8,316.3c1-0.1,1.8-0.9,1.7-1.9c-0.1-0.9-0.8-1.6-1.7-1.7c-1,0.1-1.8,0.9-1.7,1.9
					C996.2,315.5,996.9,316.2,997.8,316.3z"/>
				<path class="st30" d="M995.2,309.2c-0.1-0.8-0.3-1.6-0.6-2.4c-0.2-0.4-0.7-0.5-1.1-0.3c-0.1,0.1-0.2,0.2-0.3,0.3
					c-0.3,0.7-0.5,1.5-0.6,2.4C992.5,310.9,995.4,310.9,995.2,309.2z"/>
				<path class="st30" d="M988,302.1c-0.6-0.7-1.6-0.8-2.2-0.2c-0.1,0.1-0.2,0.1-0.2,0.2c-0.7,0.7-0.7,1.8,0,2.4s1.8,0.7,2.4,0
					C988.7,303.9,988.7,302.8,988,302.1z"/>
				<path class="st30" d="M982.4,297.1l-0.3,0.1c-0.6,0.1-1,0.6-1.2,1.2c-0.1,0.3-0.1,0.6,0,0.9c0.2,0.6,0.6,1,1.2,1.2l0.3,0.1
					c0.9,0.2,1.9-0.3,2.1-1.2c0.2-0.9-0.3-1.9-1.2-2.1C983,297.1,982.7,297.1,982.4,297.1z"/>
				<path class="st30" d="M1080.7,300.8l0.2,0.2c1.1,1,2.8,1,3.9,0l0.2-0.2c0.6-0.6,0.9-1.5,0.6-2.4c-0.1-0.1-0.1-0.3-0.1-0.4
					c-0.2-0.8-0.9-1.3-1.7-1.3h-0.2l1,0.3l-0.2-0.1l0.9,0.9c-0.1-0.1-0.2-0.3-0.2-0.4c-0.8-1.3-2.5-1.8-3.8-1
					C1079.9,297.2,1079.3,299.6,1080.7,300.8L1080.7,300.8z"/>
				<path class="st59" d="M1151.1,327c6,16.8,5.3,35.1,4.5,53c-1.1,24.6-2.6,50.3-15.1,71.5c-10,16.8-26.2,29.1-43.1,39
					c-8.3,4.8-16.9,9.3-26.1,11.5c-18.5,4.4-38-0.1-52.8-12c-0.7-7.2-1.3-14.4-1.8-21.6c-1.1-19.1-1.2-38.5,3.9-57
					c3.3-11.9,8.6-23.1,15.8-33.1c3.2-4.7,7.1-8.9,11.5-12.5c4.4-3.5,9.6-6.1,14.6-8.6l75.6-37.9c1-0.6,2.1-1,3.3-1.2
					C1146,317.3,1149.4,322.4,1151.1,327z"/>
				<g>
					<defs>
						<path id="SVGID_19_" d="M1151.1,327c6,16.8,5.3,35.1,4.5,53c-1.1,24.6-2.6,50.3-15.1,71.5c-10,16.8-26.2,29.1-43.1,39
							c-8.3,4.8-16.9,9.3-26.1,11.5c-18.5,4.4-38-0.1-52.8-12c-0.7-7.2-1.3-14.4-1.8-21.6c-1.1-19.1-1.2-38.5,3.9-57
							c3.3-11.9,8.6-23.1,15.8-33.1c3.2-4.7,7.1-8.9,11.5-12.5c4.4-3.5,9.6-6.1,14.6-8.6l75.6-37.9c1-0.6,2.1-1,3.3-1.2
							C1146,317.3,1149.4,322.4,1151.1,327z"/>
					</defs>
					<clipPath id="SVGID_20_">
						<use xlink:href="#SVGID_19_"  style="overflow:visible;"/>
					</clipPath>
					<g class="st60">
						<path class="st51" d="M1006.9,471.6l-2.5,0.6c-5.8,1.4-9.8,9.2-7.3,14.7l0.1,0.3c2.7,6.1,6.9,8.7,13.5,9.1
							c17.3,1,28.8-15.7,36.8-28.5c12.5-20,13-44.2,20.8-65.9c7.1-19.7,17.2-32.6,35.3-43c7.9-4.5,16.4-8.1,24.7-12
							c9.9-4.7,18.5-4.9,29.2-6.1c29.7-3.4,26.6-45.3-2.9-45.9c-25.3-0.6-46.5,9.8-68.5,20.8c-21.2,10.6-38.5,25.3-50.6,45.9
							c-12.9,22.1-17.2,47.4-22.7,72c-1.9,8.8-4.4,21.3-6.6,26.9c-1.6,4-2.5,6.6-4.3,10.8c-1.3,3.1-4.7,5.4-5.1,9.7l22.4-1.3
							l-1.1-2.4C1016,472.5,1011.9,470.4,1006.9,471.6L1006.9,471.6z"/>
					</g>
				</g>
			</g>
		</g>
	</g>
</g>
</svg>
