<?xml version="1.0" encoding="utf-8"?>
<!-- Generator: Adobe Illustrator 25.2.0, SVG Export Plug-In . SVG Version: 6.00 Build 0)  -->
<svg version="1.1" id="Capa_1" xmlns="http://www.w3.org/2000/svg" xmlns:xlink="http://www.w3.org/1999/xlink" x="0px" y="0px"
	 viewBox="0 0 50.5 67.8" style="enable-background:new 0 0 50.5 67.8;" xml:space="preserve">
<style type="text/css">
	.st0{fill:#FFFFFF;}
</style>
<g>
	<g id="GRAF_1">
		<path class="st0" d="M14.3,59.9c0,2,0,4,0,6c0,1.2-0.5,1.9-1.5,1.9s-1.4-0.7-1.4-1.9c0-4,0-8,0-12c0-0.9-0.2-1.3-1.1-1.3
			c-0.3,0-0.5,0-0.8-0.1c-0.8-0.1-1.3-0.8-1.3-1.6c0.1-0.8,0.9-1.3,1.7-1.2c0.3,0,0.5,0.1,0.8,0.1c0.5,0,0.7-0.2,0.7-0.7
			c-0.3-3.8-3.2-6.9-7-7.6c-1.2-0.2-1.3,0-1.3,1.1s-0.5,1.8-1.4,1.8s-1.5-0.6-1.5-1.7c0-0.8,0-1.7,0-2.5c-0.1-0.8,0.5-1.5,1.3-1.6
			c0.7-0.1,0.6-0.5,0.3-1c-1.2-1.9-1.8-4.2-1.6-6.5c0.1-1.1,0.3-1.9,1.5-2.1c0.7-0.1,0.3-0.5,0.1-0.8c-1.2-2-1.8-4.3-1.6-6.6
			c0.1-1.1,0.3-1.9,1.5-2.2c0.7-0.1,0.3-0.5,0.1-0.8c-1.2-2-1.8-4.4-1.6-6.7c0.1-1.4,0.4-1.8,1.8-2c1.5-0.2,3,0,4.4,0.5
			c1.2,0.4,1.3,0.4,1.2-0.9c-0.1-3.3,1.3-6.5,3.9-8.7c1.1-1,1.8-1,2.9,0c2.7,2.3,4.2,5.7,3.9,9.3c0,0.8,0.4,0.5,0.7,0.4
			c1.6-0.6,3.4-0.8,5.1-0.5c0.9,0.1,1.6,0.9,1.5,1.8c0,0,0,0,0,0c0.2,2.4-0.3,4.9-1.6,7c-0.1,0.2-0.5,0.5-0.1,0.7s0.7,0,0.9-0.4
			s0.4-0.7,0.6-1.1c0.3-0.8,1.2-1.3,2.1-1c0,0,0.1,0,0.1,0c0.5,0.2,0.7,0.1,0.6-0.5c-0.3-3,0.7-5.9,2.7-8.2c0.9-1,1.4-1.1,2.5-0.5
			c1,0.5,1.9,1.2,2.6,2c0.5,0.6,0.8,0.5,1.1-0.2c1.4-3.1,4.3-5.4,7.6-6.2C46.4,3,46.9,3.3,47.5,5c1.1,3.1,0.8,6.5-0.9,9.3
			c-0.5,0.8-0.3,1,0.6,1.1c3.4,0.5,3.9,1.4,2.8,4.7c-0.6,1.8-1.7,3.5-3.2,4.7c-0.5,0.5-0.5,0.7,0.1,1c0.8,0.3,1.3,1.3,0.9,2.1
			c0,0,0,0,0,0c-0.5,2.3-1.8,4.4-3.6,5.9c-0.5,0.5-0.6,0.7,0.1,1c1.6,0.8,1.7,1.2,1.1,2.9c-0.7,2-1.9,3.7-3.5,5
			c-0.6,0.5-0.8,0.7,0,1.1c1,0.5,1.9,1.2,2.7,2c1,1,1,1.6,0.2,2.7c-3.2,4.5-9.3,5.9-14.2,3.4c-1-0.5-1-0.5-1.2,0.7
			c-0.6,4.3-0.8,8.7-0.8,13c0,0.3,0,0.7-0.1,1c-0.1,0.7-0.8,1.2-1.5,1.1c0,0-0.1,0-0.1,0c-0.7,0-1.2-0.6-1.2-1.3c0,0,0,0,0,0
			c0-1.7,0-3.5,0.1-5.2c0.2-3.2,0.4-6.3,0.9-9.4c0.1-0.5-0.2-0.7-0.6-0.8c-1.3-0.1-2.6-0.5-3.9-1c-0.4-0.2-0.6,0-0.9,0.3
			c-1.7,1.3-3.8,2.1-5.9,2.3c-0.9,0-1.2,0.5-1.2,1.4C14.3,56,14.3,57.9,14.3,59.9z M35.6,50.4c2.3,0,4.5-0.9,6.1-2.5
			c0.4-0.4,0.5-0.7,0-1.1c-3.4-2.3-7.9-1.9-10.8,1c-0.4,0.5-0.4,0.7,0.1,1C32.3,49.7,33.9,50.3,35.6,50.4z M14.4,48.8
			c0,1,0.2,1.1,1.1,1c3.8-0.5,6.7-3.6,7.2-7.4c0.1-0.8-0.1-0.9-0.8-0.9C18.3,41.5,14.5,45.2,14.4,48.8z M15.3,9.3
			c0-1.9-0.7-3.8-1.9-5.3c-0.4-0.5-0.7-0.7-1.2-0.1c-2.5,3.1-2.5,7.6,0,10.7c0.5,0.5,0.8,0.5,1.2,0C14.6,13.1,15.3,11.2,15.3,9.3z
			 M10.3,40.1c1,0,1.1-0.1,0.9-1c-0.4-3.7-3.3-6.7-7-7.2c-1.1-0.2-1.3,0-1.2,1C3.4,36.7,6.5,39.7,10.3,40.1z M39.4,36.4
			c-3.1,0-5.9,1.6-7.3,4.3c-0.3,0.5-0.3,0.9,0.4,1.2c3.5,1.3,8.4-0.7,9.9-4.1c0.2-0.5,0.2-0.8-0.4-1C41.1,36.5,40.3,36.4,39.4,36.4z
			 M10.3,21c0.5,0,1,0.1,0.9-0.8c-0.4-3.9-3.4-7.1-7.3-7.6c-0.7-0.1-1,0.1-1,0.9C3,17.1,6.7,20.9,10.3,21z M14.4,20
			c0,1,0.2,1.2,1.4,1c3.7-0.7,6.5-3.7,6.9-7.5c0.1-0.7-0.3-0.8-0.8-0.8C18.3,12.7,14.6,16.3,14.4,20z M36.1,17.5
			c0-2.5-1.1-4.8-3-6.4c-0.4-0.3-0.7-0.4-1,0.1c-2,3.5-1.3,7.9,1.8,10.6c0.5,0.4,0.9,0.4,1.2-0.2C35.8,20.3,36.1,18.9,36.1,17.5
			L36.1,17.5z M39.4,24.7c3.4,0.1,6.5-2,7.8-5.2c0.4-1.1,0.3-1.2-0.8-1.4c-3.4-0.4-6.7,1.3-8.3,4.3C37,24.4,37.1,24.6,39.4,24.7
			L39.4,24.7z M36.8,33.7c3.3,0,6.3-1.8,7.7-4.8c0.3-0.8,0.2-1.1-0.6-1.3c-3.4-0.7-7,0.8-8.8,3.8c-1.1,1.8-1,1.8,1,2.2
			C36.3,33.6,36.7,33.6,36.8,33.7L36.8,33.7z M3.9,22.3c-0.8-0.1-1,0.3-0.9,1c0.2,3.2,3.1,6.4,6.6,7.1c1.9,0.4,1.9,0.3,1.6-1.5
			C10.5,25.5,7.2,22.4,3.9,22.3z M14.4,29.7c-0.1,0.8,0.2,1,1,0.9c3.8-0.5,6.8-3.5,7.2-7.3c0.1-0.8,0-1-0.8-1
			C17.9,22.7,14.8,25.8,14.4,29.7z M15.3,40.1c3.2-0.1,6.5-3.1,7.2-6.4c0.4-2.1,0.3-2.2-1.7-1.7c-3.4,0.7-6.3,4-6.4,7.1
			C14.4,39.9,14.6,40.2,15.3,40.1z M45.3,8.7c0-0.5-0.1-1-0.1-1.6s-0.4-0.8-1-0.6c-3.6,1.5-5.8,5.2-5.2,9.1c0.2,1,0.4,1.1,1.4,0.7
			C43.3,15,45.3,12,45.3,8.7L45.3,8.7z M32.2,27.7c0.1-2.9-1.4-5.7-3.9-7.2c-0.6-0.4-0.9-0.4-1.2,0.4c-1.4,3.4,0.3,8.3,3.6,9.9
			c0.5,0.3,0.8,0.2,1-0.4C32,29.5,32.2,28.6,32.2,27.7L32.2,27.7z M25.8,30.6c-0.2,0.2-0.2,0.5-0.1,0.8c0.2,1.4,0,2.9-0.6,4.2
			c-0.7,1.4-0.1,2.3,0.8,3.1c0.6,0.6,1.3,1.1,2,1.5c0.6,0.3,0.9,0.2,1.1-0.5c0.5-1.6,0.4-3.3-0.1-4.9C28.3,33,27.2,31.5,25.8,30.6
			L25.8,30.6z M25.5,43.7c-0.4,1-0.7,1.9-1,2.7c-0.6,1.3-0.6,1.3,0.8,1.6l0.6,0.1c0.3,0.1,0.5,0,0.6-0.3c0-0.1,0-0.2,0-0.3
			C26.6,46.2,26.2,44.8,25.5,43.7z"/>
		<path class="st0" d="M4.2,47c0.8,0,1.4,0.6,1.5,1.3c0,0,0,0,0,0c0,0.8-0.7,1.4-1.4,1.3c-0.7,0-1.3-0.5-1.4-1.2c0,0,0-0.1,0-0.1
			C2.9,47.7,3.4,47,4.2,47C4.2,47,4.2,47,4.2,47z"/>
	</g>
</g>
</svg>
