<?xml version="1.0" encoding="utf-8"?>
<!-- Generator: Adobe Illustrator 25.2.0, SVG Export Plug-In . SVG Version: 6.00 Build 0)  -->
<svg version="1.1" id="Capa_1" xmlns="http://www.w3.org/2000/svg" xmlns:xlink="http://www.w3.org/1999/xlink" x="0px" y="0px"
	 viewBox="0 0 67.7 63.9" style="enable-background:new 0 0 67.7 63.9;" xml:space="preserve">
<style type="text/css">
	.st0{fill:#FFFFFF;}
</style>
<g>
	<g id="GRAF_1">
		<path class="st0" d="M19.7,9l9.3,4.6c1,0.5,2,1,3,1.5c0.6,0.4,1.3,0.4,1.9,0c3.8-1.9,7.6-3.8,11.4-5.7c0.2-0.1,0.5-0.1,0.5-0.4
			s-0.3-0.3-0.5-0.4l-4.1-2.1c-0.2-0.1-0.5-0.2-0.7-0.4c-0.6-0.2-0.8-0.9-0.6-1.5c0,0,0,0,0-0.1C40,4,40.7,3.7,41.2,3.9
			c0.1,0,0.2,0.1,0.2,0.1c2.2,1.1,4.4,2.3,6.7,3.3c1.5,0.6,1.8,1.6,1.7,3.1c-0.1,5.5,0,11,0,16.6c0,0.9,0.3,1.3,1.2,1.2
			c1.3-0.1,2.6,0,3.9-0.1c0.7-0.1,1.5,0.2,1.9,0.8c3.4,4.3,6.8,8.7,10.3,13c0.5,0.6,0.7,1.5,0.3,2.2c-1.2,2.5-2.3,4.9-3.4,7.4
			c-0.2,0.6-0.9,0.9-1.5,0.7c0,0-0.1,0-0.1,0c-0.8-0.3-0.8-1-0.5-1.6c0.8-1.7,1.6-3.3,2.3-5c0.4-1,0.4-1-0.7-1
			c-4.3,0.1-8.5,0.2-12.8,0.2c-0.7-0.1-1.4,0.3-1.6,1c-1.5,3.4-3.1,6.7-4.7,10.1c-0.4,0.9-0.8,1.7-1.2,2.6c-0.5,1-0.4,1.2,0.8,1.2
			c1.6,0,3.2,0,4.8-0.1c2.6-0.2,5.2-0.2,7.8-0.2c0.7,0.1,1.3-0.3,1.5-1c0.5-1.1,0.9-2.2,1.5-3.3s1.6-1.2,2.1-0.3
			c0.2,0.3,0.2,0.8,0,1.1c-0.7,1.6-1.5,3.2-2.2,4.7c-0.2,0.6-0.8,1-1.5,1c-5.7,0-11.5,0.5-17.2,0.4c-0.7,0-1.3-0.4-1.7-1
			c-1.7-2.2-3.5-4.4-5.3-6.6c0.2,1.1-0.5,1.6-1.3,2l-11.8,5.9c-0.8,0.3-1.5,0.7-2.2,1.1c-1.1,0.7-2.4,0.7-3.5,0c-2-1-4-2-6-3
			c-2.7-1.3-5.3-2.7-8-4c-0.8-0.3-1.3-1.1-1.2-1.9c0-2.7,0-5.4,0-8C0,45.7,0.1,45,1.1,45s1.2,0.7,1.2,1.5c0,2.3,0.1,4.5,0,6.7
			c-0.1,0.7,0.4,1.5,1.1,1.7c3.8,1.9,7.7,3.8,11.5,5.7c0.7,0.3,0.9,0.1,0.9-0.6V45.3c0-0.4-0.2-0.8-0.6-1c-4.1-2-8.1-4-12.1-6
			c-0.6-0.3-0.7,0-0.7,0.5c0,0.8,0,1.5,0,2.3c0,0.5-0.2,1-0.6,1.3c-0.7,0.5-1.6,0.3-1.6-0.5c-0.1-2.1-0.1-4.1,0-6.2
			c0-0.4,0.4-0.7,0.8-0.8c4.6-2.3,9.1-4.6,13.7-6.9c0.8-0.3,1.3-1.1,1.2-1.9c0-5.4,0-10.9,0-16.3c-0.1-0.9,0.4-1.8,1.3-2.1
			c4.8-2.4,9.6-4.8,14.4-7.2c0.9-0.6,2-0.6,2.9,0c0.8,0.5,1.7,0.9,2.6,1.3c0.7,0.3,1.1,0.8,0.7,1.6s-1,0.8-1.7,0.5
			c-0.5-0.2-1-0.5-1.5-0.8c-1-0.7-2.3-0.7-3.3,0C27.6,4.9,24,6.7,20.5,8.5C20.2,8.7,20,8.8,19.7,9z M47.4,43.9
			c0-0.3-0.2-0.6-0.4-0.8c-2.7-3.5-5.4-7-8.2-10.4c-0.6-0.8-0.8-0.8-1.2,0.2c-2.1,4.4-4.1,8.9-6.2,13.3c-0.2,0.4-0.1,0.9,0.2,1.3
			c2.8,3.5,5.6,7,8.3,10.6c0.4,0.5,0.6,0.6,0.9-0.1c2-4.4,4.1-8.9,6.2-13.3C47.3,44.3,47.4,44.1,47.4,43.9z M31.6,25.7L31.6,25.7
			c0-2.2,0-4.5,0-6.7c0.1-0.9-0.4-1.8-1.3-2.1c-1.2-0.5-2.4-1.1-3.6-1.7c-2.5-1.3-5.1-2.6-7.6-3.8c-1-0.4-1,0-0.9,0.7
			c0,4.7,0,9.4,0,14.1c-0.1,0.7,0.4,1.5,1.1,1.7c3.8,1.9,7.6,3.8,11.4,5.7c0.7,0.4,1,0.3,1-0.6C31.6,30.5,31.6,28.1,31.6,25.7z
			 M18.2,52.6L18.2,52.6c0,2.4,0,4.8,0,7.1c0,1.1,0.1,1.2,1.1,0.7c3.7-1.9,7.5-3.8,11.2-5.6c0.7-0.3,1.2-1,1.1-1.8
			c0.1-1.4-0.4-2.7-1.4-3.7c-0.4-0.4-0.7-0.8-1-1.2c-0.6-0.6-0.7-1.5-0.3-2.2c0.7-1.5,1.3-3,2.1-4.5c0.4-0.8,0.6-1.7,0.6-2.6
			c0-0.7-0.1-1-0.9-0.6c-3.8,2-7.7,3.9-11.6,5.8c-0.7,0.3-1.1,1-1,1.7C18.2,48.1,18.2,50.3,18.2,52.6z M47.5,19.1c0-2.4,0-4.8,0-7.2
			c0-0.7-0.1-1-0.9-0.6c-4,2-7.9,4-11.9,6c-0.5,0.3-0.9,0.5-0.8,1.1c0.3,1.8-0.1,3.6,0,5.4c0,3.2,0,6.3,0,9.4c0,0.2-0.1,0.5,0.2,0.6
			s0.5-0.2,0.7-0.5c0.6-1.3,1.2-2.5,1.7-3.7c0.3-0.9,1.2-1.4,2.1-1.2c2.2,0.1,4.4,0,6.5-0.1c1.8-0.1,2.3-0.9,2.3-2.7L47.5,19.1z
			 M50.7,42.5c4.5-0.4,8.5-0.1,12.5-0.5c0.3,0,0.6,0.1,0.8-0.1s-0.2-0.5-0.3-0.8c-2.6-3.3-5.3-6.6-7.8-9.9c-0.4-0.6-1.1-0.9-1.8-0.8
			c-4.2,0.1-8.3,0.3-12.5,0.4c-0.3,0-0.7-0.1-0.8,0.2s0.2,0.5,0.4,0.8c2.5,3.1,5.1,6.2,7.5,9.4C49.3,42.2,50,42.6,50.7,42.5z
			 M16.9,42.4c0.5,0,0.9-0.2,1.3-0.4l4.4-2.2l6.8-3.4c0.5-0.2,0.6-0.5,0.1-0.8c-0.2-0.1-0.4-0.3-0.6-0.4c-3.8-1.9-7.5-3.8-11.3-5.6
			c-0.4-0.2-0.8-0.2-1.1,0L4.8,35.4c-0.3,0.1-0.6,0.2-0.6,0.6s0.4,0.3,0.6,0.4c3.2,1.6,6.4,3.3,9.7,4.9C15.2,41.8,16,42.2,16.9,42.4
			z"/>
		<path class="st0" d="M41.4,25c0,0.7-0.5,1.2-1.1,1.3c0,0-0.1,0-0.1,0c-0.8,0-1.1-0.5-1.2-1.2c-0.1-0.6,0.4-1.2,1-1.2
			c0.1,0,0.1,0,0.2,0c0.6-0.1,1.2,0.4,1.2,1C41.4,24.9,41.4,24.9,41.4,25z"/>
		<path class="st0" d="M44.2,18.2c0.7,0,1.3,0.6,1.3,1.3c0,0.6-0.5,1.1-1.1,1.2c0,0-0.1,0-0.1,0c-0.6,0.1-1.2-0.4-1.2-1
			c0,0,0-0.1,0-0.1C43.1,18.8,43.5,18.3,44.2,18.2z"/>
		<path class="st0" d="M44.4,24.7c-0.7,0-1.5-0.6-1.4-1.2c0.1-0.6,0.6-1.1,1.2-1.2c0.7,0,1.3,0.5,1.3,1.2c0,0,0,0,0,0
			C45.5,24.2,45,24.7,44.4,24.7z"/>
	</g>
</g>
</svg>
