<?xml version="1.0" encoding="utf-8"?>
<!-- Generator: Adobe Illustrator 25.2.0, SVG Export Plug-In . SVG Version: 6.00 Build 0)  -->
<svg version="1.1" id="Capa_1" xmlns="http://www.w3.org/2000/svg" xmlns:xlink="http://www.w3.org/1999/xlink" x="0px" y="0px"
	 viewBox="0 0 45.5 84.8" style="enable-background:new 0 0 45.5 84.8;" xml:space="preserve">
<style type="text/css">
	.st0{fill:#FFFFFF;}
</style>
<g>
	<g id="GRAF_1">
		<path class="st0" d="M0,58.2c0-4.9,0-9.7,0-14.6C-0.1,33.2,4.1,23.2,11.5,16c1.4-1.4,1.1-2.8,1.1-4.3c0-0.5-0.5-0.6-0.9-0.8
			C9.1,9.4,8,7.1,8.6,4.4c0.6-2.7,3.1-4.6,5.8-4.4h16.8c3.2,0,5.7,2.6,5.7,5.8c0,2.1-1.1,4-2.9,5c-0.5,0.3-1.4,0.3-1.3,1.3
			c0.1,1.2-0.4,2.5,0.7,3.5c3.3,3.1,6.1,6.9,8.1,11c2.6,5.2,3.9,10.9,4,16.8c0.1,10.3,0.1,20.6,0,30.8c0,5.2-3,9.1-7.7,10.4
			c-0.8,0.2-1.7,0.3-2.5,0.2c-8.4,0-16.8,0-25.2,0C4.6,84.9,0.1,80.6,0,75.2c0-0.2,0-0.4,0-0.5C0,69.2,0,63.7,0,58.2z M3.2,58
			L3.2,58c0,5.5,0,11,0,16.5c0,4.4,2.7,7.2,7.1,7.2c8.3,0,16.5,0,24.8,0c4.4,0,7.2-2.9,7.2-7.3c0-10.2,0-20.4,0-30.6
			c0-2.8-0.4-5.6-1-8.4c-0.2-1.1-0.7-1.4-1.8-1c-2.7,0.9-5.6,1.2-8.4,0.9c-3.7-0.5-7.2-1.6-10.4-3.5c-4.4-2.2-9.4-2.7-14.1-1.2
			c-0.7,0.1-1.2,0.6-1.4,1.2c-1.2,3.2-1.9,6.6-2,10.1C3.2,47.3,3.2,52.6,3.2,58z M7.2,27.1l1-0.1c5.2-0.9,10.6,0.1,15.2,2.7
			c4.6,2.6,10,3.3,15.1,1.8c1.5-0.4,1.5-0.5,0.9-1.9c-1.9-4.6-4.8-8.8-8.5-12.1c-0.9-0.7-1.4-1.8-1.3-3c0-0.5,0-1.1,0-1.6
			c0.1-1.1-0.4-1.4-1.4-1.4c-3.6,0-7.2,0.1-10.8,0c-1.2,0-1.8,0.3-1.6,1.5c0.4,2.1-0.5,4.2-2.2,5.3c-0.2,0.1-0.3,0.3-0.4,0.4
			C10.7,21.3,8.8,24.1,7.2,27.1L7.2,27.1z M22.6,8.3h8c1.9,0,3-1,3-2.6s-1.2-2.6-3-2.6c-5.4,0-10.8,0-16.2,0c-1.8,0-3,1-3,2.5
			s1.2,2.6,3,2.6H22.6z"/>
		<path class="st0" d="M19.3,78.5h-4.7c-1,0-1.7-0.4-1.8-1.4c-0.1-0.8,0.5-1.6,1.3-1.7c0.1,0,0.2,0,0.4,0c3.2-0.1,6.4-0.1,9.6,0
			c0.8-0.1,1.6,0.5,1.7,1.3c0,0.1,0,0.2,0,0.3c-0.1,1-0.8,1.4-1.8,1.4L19.3,78.5z"/>
		<path class="st0" d="M30.8,78.5c-0.5,0.1-1.1,0-1.6-0.2c-0.7-0.4-1-1.3-0.6-2c0.1-0.2,0.2-0.3,0.4-0.5c1-0.6,2.2-0.6,3.2,0
			c0.5,0.3,0.7,0.9,0.6,1.4c-0.1,0.6-0.5,1-1,1.2C31.5,78.4,31.1,78.5,30.8,78.5z"/>
		<path class="st0" d="M12.2,48.1c0.6,0,1.3,0,1.9,0c0.9,0,1.2-0.6,0.7-1.4c-1.2-1.6-1.8-3.4-1.8-5.4c0-0.7,0.2-1.2,1-1.3
			c0.7,0,1.2,0.4,1.3,1.1c0,0,0,0.1,0,0.1c0.1,1.2,0.4,2.3,1,3.4c0.4,0.7,0.7,0.7,1.3,0.3c3.2-2.3,6.6-2.4,10.1-0.8
			c0.4,0.2,0.9,0.5,1.3,0.8c0.6,0.4,0.9,0.3,1.3-0.3c0.5-1,0.9-2.1,1-3.3c0.1-0.9,0.5-1.3,1.2-1.3c0.7,0.1,1,0.6,1,1.4
			c-0.1,1.9-0.7,3.7-1.8,5.1c-0.2,0.3-0.5,0.5-0.3,0.9c0.2,0.4,0.6,0.6,1,0.6c1.2,0,2.4,0,3.5,0s1.6,0.4,1.6,1.7
			c0,0.8,0,1.5-0.1,2.3c-0.3,2.3-2.2,4.1-4.5,4.3c-0.6,0-1,0.4-1.2,0.9c-0.6,1.7-1.2,3.4-1.8,5c-0.1,0.3-0.2,0.5-0.1,0.8
			c0.3,2.4-1,3.9-3,4.8c-2.8,1.3-6.1,1-8.6-0.8c-1.2-0.8-1.8-2.1-1.6-3.5c0.1-0.6,0-1.3-0.3-1.8c-0.6-1.5-1.1-3-1.6-4.5
			c-0.1-0.5-0.5-0.8-1-0.8c-2.7-0.2-4.8-2.4-4.7-5.1c0-0.6,0-1.3,0-1.9c-0.1-0.6,0.4-1.2,1-1.2c0,0,0.1,0,0.1,0
			C10.7,48.1,11.4,48.1,12.2,48.1L12.2,48.1z M22,47c0-0.2,0-0.5,0-0.7c0.2-0.7-0.1-0.8-0.7-0.7c-3.9,1-6.3,5-5.3,9c0,0,0,0.1,0,0.1
			c0.5,1.7,1.2,3.4,1.8,5c0.3,1,0.3,0.9,1.2,0.5c2.6-1.4,5.8-1.3,8.4,0.2c0.5,0.3,0.7,0.2,0.8-0.3c0.6-1.7,1.1-3.4,1.9-5.1
			c0.2-0.4,0.2-0.8,0.2-1.2c0-0.5-0.2-0.6-0.7-0.5c-3.2,0.9-6.6-1-7.5-4.3C22,48.3,22,47.7,22,47z M23.2,61.5
			c-1.4,0-2.7,0.4-3.8,1.2c-0.7,0.4-0.9,1.3-0.5,2c0.1,0.2,0.3,0.4,0.5,0.5c0.4,0.3,0.9,0.6,1.5,0.7c2,0.8,4.2,0.5,5.9-0.7
			c1-0.8,1-1.7,0-2.5S24.4,61.8,23.2,61.5L23.2,61.5z M28.4,51.2c0.3-0.1,0.8-0.2,1.3-0.3s0.5-0.4,0.3-0.8c-0.8-2.1-2.6-3.7-4.7-4.3
			c-0.5-0.2-0.7,0.1-0.9,0.5c-0.5,2.1,0.8,4.3,3,4.8C27.7,51.1,28.1,51.2,28.4,51.2L28.4,51.2z M13.5,52.5L13.5,52.5
			c0-0.5,0.1-1,0.1-1.5c0-0.3,0-0.6-0.4-0.6c-0.6,0-1.1,0-1.7,0c-0.4,0-0.5,0.3-0.4,0.6c0,1,0.4,1.9,1.2,2.5c0.3,0.2,0.6,0.6,1,0.4
			s0.2-0.6,0.2-1C13.5,52.8,13.5,52.7,13.5,52.5z M33.7,50.4c-0.3,0.2-1.2-0.4-1.1,0.5s0.2,1.7,0.2,2.5c0,0.4,0.2,0.5,0.6,0.3
			c0.8-0.4,1.3-1,1.5-1.8C35.4,50.7,35.2,50.4,33.7,50.4z"/>
	</g>
</g>
</svg>
