<?xml version="1.0" encoding="utf-8"?>
<!-- Generator: Adobe Illustrator 25.2.0, SVG Export Plug-In . SVG Version: 6.00 Build 0)  -->
<svg version="1.1" id="Capa_1" xmlns="http://www.w3.org/2000/svg" xmlns:xlink="http://www.w3.org/1999/xlink" x="0px" y="0px"
	 viewBox="0 0 66.9 75.1" style="enable-background:new 0 0 66.9 75.1;" xml:space="preserve">
<style type="text/css">
	.st0{fill:#FFFFFF;}
</style>
<g>
	<g id="GRAF_1">
		<path class="st0" d="M42.7,71.8c9,0.2,17.1-5.4,20-13.9c0.2-0.4,0.3-0.8,0.4-1.3c0.3-0.8,1.2-1.3,2-1s1.3,1.2,1,2
			c-0.9,3.5-2.6,6.6-5,9.3c-6.8,7.8-18,10.4-27.5,6.2c-6.3-2.6-11.2-7.8-13.3-14.3c-0.2-0.8-0.9-1.4-1.7-1.4
			C8.9,56.5,1.2,49,0.1,39.3c-0.3-3.6,0.2-7.1,1.4-10.5C3.6,23,6.4,17.6,10,12.6c2.6-3.8,5.4-7.4,8.3-10.9c0.2-0.3,0.4-0.5,0.7-0.8
			c1.1-1.2,1.9-1.3,3,0c2.2,2.5,4.3,5.1,6.3,7.8c1.8,2.6,3.6,5.2,5.2,7.9c0.5,0.8,0.8,0.8,1.3,0.1c2.1-2.9,4.3-5.6,6.6-8.2
			c1.1-1.3,2-1.3,3.1,0c5.8,6.6,10.9,13.7,15.3,21.2c2.7,4.4,4.7,9.2,6.1,14.2c0.1,0.4,0.2,0.7,0.3,1.1c0.1,0.8-0.3,1.5-1.1,1.7
			c-0.7,0.2-1.5-0.1-1.8-0.9c-0.1-0.2-0.2-0.3-0.2-0.5c-2.2-8.2-6.5-15.4-11.3-22.3c-2.5-3.6-5.1-7-7.8-10.4c-0.8-1-0.9-1-1.7,0
			C36,19.6,30.8,27.5,26.5,35.8c-2,3.9-3.4,8.2-4.1,12.5c-1.1,8.6,3.3,17,10.9,21.1C36.2,71,39.4,71.8,42.7,71.8z M18.4,54.2
			c0.9,0.3,0.9-0.3,0.8-0.9c-0.2-1.1-0.2-2.1-0.1-3.2c0.5-5.6,2.1-11,4.8-16c2.2-4.5,4.8-8.8,7.8-12.9c0.3-0.3,0.4-0.9,0.1-1.3
			C28.6,14.5,25,9.4,21,4.6c-0.4-0.4-0.6-0.5-0.9,0c-0.7,0.9-1.4,1.7-2.1,2.6c-4.9,6.2-9.3,12.7-12.4,20c-1.8,4.2-2.8,8.5-2.1,13.1
			C4.7,47.3,11.2,53.5,18.4,54.2z"/>
		<path class="st0" d="M40.1,60.8c0.1-2.4,1-4.6,2.4-6.5c1.9-2.9,4.9-5,8.3-5.7c5.1-1,8.5,2.5,7,7.5c-1.7,5.5-5.3,9.2-11.1,10.3
			c-2.9,0.7-5.8-1.2-6.5-4.1C40.1,61.8,40.1,61.3,40.1,60.8z M52.3,51.6c-0.1,0-0.4,0-0.7,0.1c-3.6,0.7-7.5,4.7-8.2,8.3
			c-0.4,2.4,0.9,3.7,3.3,3.2c2.1-0.5,3.9-1.6,5.4-3.2c1.5-1.5,2.5-3.4,2.9-5.5C55.3,52.6,54.3,51.6,52.3,51.6z"/>
		<path class="st0" d="M65.4,49.5c0.9,0,1.5,0.7,1.6,1.5c0,0,0,0,0,0.1c0,0.8-0.7,1.5-1.5,1.4c0,0-0.1,0-0.1,0
			c-0.8,0-1.5-0.7-1.5-1.5C63.9,50.1,64.6,49.5,65.4,49.5C65.4,49.5,65.4,49.5,65.4,49.5z"/>
	</g>
</g>
</svg>
