<?xml version="1.0" encoding="utf-8"?>
<!-- Generator: Adobe Illustrator 25.2.0, SVG Export Plug-In . SVG Version: 6.00 Build 0)  -->
<svg version="1.1" id="Capa_1" xmlns="http://www.w3.org/2000/svg" xmlns:xlink="http://www.w3.org/1999/xlink" x="0px" y="0px"
	 viewBox="0 0 66.9 71.7" style="enable-background:new 0 0 66.9 71.7;" xml:space="preserve">
<style type="text/css">
	.st0{fill:#FFFFFF;}
</style>
<g>
	<g id="GRAF_1">
		<path class="st0" d="M37,54.7C25.8,54.2,16.7,49,8.7,41.6c-2.4-2.2-4.6-4.6-6.7-7.2c-2.3-2.8-2.4-6.1-1.6-9.5
			C1.8,19.3,5,14.8,9,10.8c4.3-4.5,9.7-7.8,15.7-9.8c3.3-1.1,6.8-1.3,10.1-0.4c1.5,0.4,2.9,1.2,3.9,2.4c6.4,7.3,11.4,15.3,13.7,24.9
			c0.8,3.6,1.1,7.2,0.8,10.9c-0.2,2.7-0.5,5.5-0.5,8.2c0,3.1,1.3,6,3.7,8.1c0.3,0.3,0.6,0.2,0.9,0c0.5-0.3,1.1-0.5,1.7-0.7
			c0.6-0.2,1.2,0.1,1.4,0.7c0,0,0,0,0,0c0.2,0.5,0,1.2-0.6,1.4c0,0-0.1,0-0.1,0c-0.9,0.3-1.7,0.8-2.4,1.4c-0.6,0.6-1.3,0.3-1.8-0.3
			c-0.9-1.1-1.9-2.2-2.8-3.3c-0.5-0.6-0.8-0.6-1.3-0.1c-2.3,1.9-2.3,1.8-0.4,4.1c0.5,0.5,0.9,1.1,1.4,1.7c0.9,1,0.8,1.3-0.1,2.2
			c-0.6,0.5-1.1,1.1-1.4,1.9c-0.8,2.1,0.2,4.4,2.2,5.3c2.1,0.8,4.4-0.2,5.3-2.2c0.1-0.2,0.2-0.4,0.2-0.6c0.4-1.7,0.4-1.7,2.2-1.8
			c2.2-0.1,4-1.9,3.9-4.1c0-0.9-0.3-1.7-0.9-2.4c-0.2-0.3-0.5-0.5-0.7-0.8c-0.4-0.3-0.5-1-0.2-1.4c0-0.1,0.1-0.1,0.2-0.2
			c0.4-0.4,1.1-0.5,1.5-0.1c0,0,0,0,0.1,0.1c1.4,1.1,2.3,2.8,2.3,4.5c0.2,3.2-2.1,6-5.2,6.6c-0.5,0.1-1,0.5-1.1,1
			c-1,2.7-3.8,4.4-6.6,4c-2.8-0.2-5.1-2.4-5.5-5.2c-0.4-1.8,0.1-3.6,1.2-5c0.5-0.6,0.5-1.1-0.1-1.6c0,0-0.1,0-0.1-0.1
			c-2.1-3.4-5.5-4.5-9.2-4.8C39.3,54.9,38.2,54.8,37,54.7z M8.3,37.7c0,0.4,0.3,0.6,0.5,0.8c2,2,4.2,3.9,6.5,5.7
			c4,3.1,8.6,5.5,13.5,6.9c3.2,0.9,6.5,1,9.8,1.4c2.8,0.3,5.8,0.5,8.4,1.9c0.3,0.2,0.8,0.1,1-0.2c0.8-0.7,1.7-1.5,2.5-2.1
			c0.5-0.3,0.7-0.9,0.5-1.4c-0.3-1-0.4-2-0.4-3c0-3.4,0.3-6.7,0.5-10.1c0.2-3.1-0.1-6.1-0.8-9.1c-1.5-6.1-4.1-11.8-7.6-16.9
			c-0.3-0.5-0.8-1-1.1-1.5c-0.3,0.1-0.2,0.3-0.3,0.5c-0.3,3.5-1.5,6.8-3.4,9.7c-3.6,5.8-8.6,10.5-14.6,13.8c-3.3,2-7.1,3.3-10.9,3.8
			C11,37.9,9.6,37.9,8.3,37.7L8.3,37.7z M2.3,27.3c-0.3,5.5,2.7,8,7.3,8.3c2.8,0.1,5.7-0.4,8.3-1.5c7.2-2.9,13.4-7.9,17.6-14.4
			c2.3-3.1,3.5-6.8,3.6-10.7c0-2.8-1.8-5.3-4.4-6.2c-3.1-1.1-6.1-0.6-9.1,0.3c-8.1,2.6-15.1,8-19.7,15.2C3.9,21,2.7,24.1,2.3,27.3
			L2.3,27.3z"/>
		<path class="st0" d="M29.5,6.4c-2.9,0-6.1,1.3-9.2,3.1c-2.9,1.7-5.5,3.7-7.8,6.2c-0.1,0.2-0.3,0.3-0.4,0.4c-0.4,0.4-1,0.4-1.4,0.1
			c-0.1-0.1-0.1-0.1-0.1-0.2c-0.4-0.4-0.4-1-0.1-1.4c0,0,0.1-0.1,0.1-0.1c5-5.1,10.5-9.4,17.8-10.3c2.8-0.4,5.5,0.1,7.3,2.6
			c1.5,2.1,1.4,4.5,0.8,6.8c-1.2,3.9-3.3,7.5-6.3,10.3c-3.7,4-8.3,7-13.4,8.9c-2.3,0.9-4.7,1.1-7.1,0.8c-4-0.8-5.8-3.8-5.3-7.8
			c0.4-2.4,1.3-4.7,2.6-6.7c0.7-1.1,1.3-1.5,2-1c0.9,0.7,0.4,1.4,0,2.1c-1.1,1.7-1.9,3.7-2.3,5.7c-0.5,3.7,1.5,5.8,5.2,5.5
			c3.7-0.4,7.3-1.7,10.4-3.9c4.7-3,8.5-7.1,11-12.1c0.6-1.2,1-2.5,1.1-3.8C34.9,8.4,33.4,6.7,29.5,6.4z"/>
		<path class="st0" d="M29.1,9.1c1.8,0.1,2.8,1.6,2.5,3.5c-0.5,3-4.2,6.5-7.3,6.8c-1.5,0.3-3-0.7-3.3-2.2c-0.1-0.4-0.1-0.8,0-1.2
			C21.3,12.6,25.8,8.9,29.1,9.1z M29.3,12.3c0.1-0.7-0.3-1.1-1.1-0.9c-2.3,0.6-4.2,2.3-5,4.5c-0.3,0.8,0.2,1.3,1.1,1.1
			c1.3-0.4,2.5-1.1,3.4-2.1C28.5,14.3,29.1,13.3,29.3,12.3z"/>
	</g>
</g>
</svg>
