<?xml version="1.0" encoding="utf-8"?>
<!-- Generator: Adobe Illustrator 25.2.0, SVG Export Plug-In . SVG Version: 6.00 Build 0)  -->
<svg version="1.1" id="Capa_1" xmlns="http://www.w3.org/2000/svg" xmlns:xlink="http://www.w3.org/1999/xlink" x="0px" y="0px"
	 viewBox="0 0 841.2 774.3" style="enable-background:new 0 0 841.2 774.3;" xml:space="preserve">
<style type="text/css">
	.st0{fill:#665040;}
	.st1{clip-path:url(#SVGID_2_);}
	.st2{fill:#332B26;}
	.st3{fill:none;stroke:#332B26;stroke-width:0.75;stroke-miterlimit:10;}
	.st4{fill:none;stroke:#332B26;stroke-miterlimit:10;}
	.st5{opacity:0.15;}
	.st6{fill:#D3781D;}
	.st7{opacity:0.5;}
	.st8{opacity:0.2;fill:#F4CE0F;enable-background:new    ;}
	.st9{opacity:0.28;}
	.st10{fill:#F29611;}
</style>
<g>
	<g id="GRAF_1">
		<rect class="st0" width="841.2" height="774.3"/>
		<g>
			<defs>
				<rect id="SVGID_1_" width="841.2" height="774.3"/>
			</defs>
			<clipPath id="SVGID_2_">
				<use xlink:href="#SVGID_1_"  style="overflow:visible;"/>
			</clipPath>
			<g class="st1">
				<path class="st2" d="M39.6,68.4C144.7,89.4,251.9,89.2,359,82.9c-68.5,3.1-136.5,22.8-204.6,15c-55.3-8.5-109.9-26-164.6-7.3
					c-6.1,1.3-12.4,2.1-18.7,2.5c-16.4,2.4-29-5-10-16.9c9.7-5.4,23.5-5.6,34.3-6.8C10.1,67.5,24.9,67.2,39.6,68.4z"/>
				<path class="st2" d="M571.5,290.1c-71.4,7.3-152.5,10.5-209.4,55.6c-4.9,37,228,66.1,194,8.9c-24.1,24.9-44.8,32.9-77.3,19.4
					c-33-9.4-71.2-6-98.3-27.1c62.6-32.7,130.5-43.5,200.4-41.1c86.3-5.3,171.7-28.5,258.4-16.2c11.3,1.7,28.5-0.3,29.7-14.4
					c-15.1-12.1-33.3-6.2-50.8-5.3l-59.9,4.9L571.5,290.1z"/>
				<path class="st2" d="M51.3,685.1c88.4,23.5,182.7,16.9,273.5,23.1c-86,5.9-179.1,18.6-263.9,4c-7.9-4.7-12.6-13.3-19.9-19
					c-15.2-12-37-8.4-55.9-4.2c-31.9,4.2-51.1,32.5-17.7,51.4c32.1,11.4,50.2-7.7,85.2,13.3c239.1,13.3,481.6-0.2,721.8,3.9
					c-17.5-15.8-41.3-22.5-64.5-18.1c13.7-14.2,36.5-11.9,56.1-9.5c62.7,7.7,126.1,6.1,189.3,4.4l-78.1,34.2
					c-7.7,3.4-16.2,7.6-18.8,15.6c-1.3,4-1,8.8-3.6,12.1c-264.5,11.5-535.7-19.8-802-3c-48.2,0.1-104.6,10.5-149.1-8.9
					c-10.9-18.7,13.4-82.5,19.6-104.8c7.4,0.4,21-1.6,27.8-6.1C-17.1,649.2,19.8,672.8,51.3,685.1z"/>
				<path class="st2" d="M505.3-0.4L431.7,5c43.9-5,88.1,4.4,132.4,5.2c36.7,0.6,73.3-4.8,110-6.6c55.6-2.3,111.3,2,166.9,3.5
					c9.3,0.3,19.4,0.5,27-4.9c3.9-2.5,2.2-6.4-2.4-6.3C745.7-19.3,625.3-9.2,505.3-0.4z"/>
				<path class="st2" d="M-24.8,214.3c50.1-5.9,100.3-10.6,150.6-15s100.5-8.4,150.8-13.1s100.4-9.9,150.3-16.7
					s99.7-15.2,148.9-25.9h-0.1c11.3-3.3,22.6-6.4,34-9.3c5.7-1.5,11.4-2.8,17.2-4.1s11.5-2.5,17.3-3.6c11.6-2.2,23.3-3.9,35-4.8
					l4.4-0.3l4.4-0.2c2.9-0.2,5.9-0.2,8.9-0.2c1.5,0,3,0,4.4,0.1s3,0.1,4.4,0.2c3,0.2,5.9,0.3,8.8,0.6c11.7,1.2,23.4,3,34.9,5.4
					c11.5,2.3,23,4.6,34.5,6.6s23.2,3.6,34.8,4.8s23.4,2,35.1,2.6v1c-23.5-0.6-47-2.6-70.2-6.2c-11.6-1.8-23.2-4.1-34.7-6.3
					c-11.5-2.3-23-4-34.7-5.1c-11.6-0.9-23.3-0.9-34.9,0.1c-11.6,1-23.2,2.6-34.7,4.9c-5.8,1.1-11.5,2.4-17.2,3.6
					s-11.4,2.7-17.1,4.2c-11.4,2.9-22.6,6.1-33.9,9.4h-0.1l0,0c-49.4,10.6-99.2,19-149.2,25.7s-100.2,12-150.5,16.4
					s-100.6,8.3-150.9,12.4s-100.5,8.4-150.6,13.9L-24.8,214.3z"/>
				<path class="st2" d="M850.4,578.8c-18.3,0.4-36.5,0.2-54.8-0.6c-4.6-0.2-9.1-0.5-13.7-0.8s-9.1-0.7-13.7-1.1
					c-9.1-1-18.2-2-27.3-3.4c-18.1-2.7-36.1-6.2-54-9.8c-9-1.8-17.9-3.8-26.8-5.7s-17.8-3.8-26.8-5.9c-9-2-17.9-4.6-26.7-7.6
					c-8.9-3.1-17.4-7.1-25.5-11.9c-8-5-15.2-10.6-22.8-15c-7.5-4.4-15.7-7.3-24.3-8.7c-8.8-1.3-17.6-1.8-26.5-1.5
					c-9,0.3-18.1,1-27.2,1.5c-18.2,1.1-36.4,2.2-54.6,3.1c-36.4,2-72.9,3.6-109.3,5s-72.9,2.4-109.4,3.1
					c-36.4,0.7-73.1,1.6-109.6-1.6c-9.2-0.8-18.2-2-27.3-3.1s-18.1-2.3-27.1-3.3c-18-1.9-36.2-3-54.2-1.2l-0.4-3.4
					c18.3-2.1,36.8-1.4,55,0.3c9.1,0.9,18.2,1.9,27.3,2.9s18.1,2.1,27.1,2.7c36.2,2.6,72.6,1.5,109.1,0.5s72.9-2.4,109.3-4
					s72.8-3.3,109.2-5.3c18.2-1,36.4-2.1,54.6-3.3c9.1-0.5,18.2-1.3,27.4-1.6c9.4-0.4,18.7,0.1,28,1.5c4.7,0.8,9.4,2,13.9,3.5
					c2.3,0.8,4.5,1.7,6.7,2.7s4.3,2.2,6.4,3.3c8.2,4.8,15.4,10.5,22.9,15.2c7.6,4.6,15.6,8.4,24,11.3c8.5,3,17.1,5.5,25.8,7.5
					c8.8,2.1,17.7,4,26.6,6.1l26.7,6c17.8,4,35.5,7.7,53.5,10.7s35.9,5.1,54,6.4s36.3,1.9,54.5,2.3L850.4,578.8z"/>
				<path class="st3" d="M874.3,57.9c-328,10.8-658.2-95.3-982.9-8.6"/>
				<path class="st4" d="M-56.6,65.9C85.9,24.1,231.7,51.8,374,76.7c98,9.2,196.8-14.1,294.9-6.3c71.9,5.7,141.6,28,213.1,37.7"/>
				<path class="st4" d="M-47.1,360.5c183.4-32.7,362.3,19,542.1,43.9c99.8,5.3,199.3-22.7,298.9-16c31.5,2.1,65.8,7,92.2-10.3"/>
				<path class="st4" d="M875.3,437.8c-64,18.8-208.6-29.7-242.4,13.4c-13.4,22.3,7.3,46.5,27.6,55.8c38.1,20,83,22.8,123.3,7.7
					c12.1-2.9,18.3-15.9,11.2-26.7c-25.4-29.2-73.8-31.1-107.7-16.6c-7,2.1-8.5,9.5-2.7,14c11.5,10.7,29.3,10.3,44.9,8.6"/>
				<path class="st4" d="M-73,600.7c17.1,10.8,38.8,10.3,59,9.5c78.7-3.1,157.7-4.1,235.9,5.3c74.9,9,148.6,27.6,223.9,33
					c29.2,2.1,59.1,2.3,86.7,12.2c45.5,18.2,1.3,47.8-26.5,51.8c-94.7,22.8-194.1,6.5-291.1,14.2c-37.3,3-74.7,9.5-112,6.3
					c-52.4-4.4-106.3-27.5-155.7-9.5"/>
				<path class="st4" d="M874,657.4c-86.3,41.2-183,12.2-273.1,24.9c31.1,14.2,66.7,12.3,100.9,12.5c57.1,0.3,114,7.1,169.6,20.3"/>
				<g class="st5">
					<path class="st6" d="M-113.5,669.4c4.7-4,9.3-4.2,13.8-0.3l-5,5.5l4.5,1.5l-7.6,3.3c3.1,5.6,4.7-0.6,13.6,4.7
						c4.7,1.2,4.7-5.7,5.4-8.8c0.1-3.4-3.7-5-6-6.8c1.5-4.7,4.9,3.2,8,1.7c0-2.7-1.7-3.3-3.8-4.2c5.9-5.6,6.5,5.2,12.2,1.6
						c1.1-0.6,2.4-1.1,3-2c2.2-3.6,5.9-4.9,9.2-6.9c3.4-3,5.3,3.7,8.5,0.4c0.8-0.5,1.9-0.7,2.8-0.3c4.3,2,5.9-2.4,10.1-3.3
						c0.3,3,1.9,6.3,4.8,5.4c2.8-1.5,0.4-3.7,0.2-6.2l5.4,1.1c0.7,3.4-4.8,4.9-1.9,8.5c-1.4,2.1-4.9,1.5-5.3,5
						c3.8,4.2,8.6,4,13.7,2.7l-3.9-1.2l2.8-7.2c1.4-1.3,3.5,1.7,4.3-0.8c0.3-1-0.5-2.6-1.2-3.6c-1-1.5-3.9-2.2-4-4.2
						c2.7-2.5,8.4-4.3,11.3-0.8c2.5,3.5,6.2,0,3.4-3.3c4.4,1.4,7.8-0.1,11.2-1.8c3.7-3.1,1.1-8.6,7.7-4c0-4,0-7.8,0.1-11.9
						c3.9,0.9,4.1,5.2,7.9,6.7c1.6,0.8,1.8,2.7-0.4,4c1.8,0.2,3.5,0.5,5.3,1c5.4,2.5,4.8-4.5,8.6-3c-0.2,0.9-0.5,1.9-0.8,3.2
						c1.5-0.5,2.9-1.6,3.9,0.5c2,5-5.6,5.5-8.4,8c0.4,1.8,18.5-2.6,19.9-4c-0.3-1.1-0.5-2.1-0.8-3.3l4-0.8c-1.3-3.9-6.6,2-12-1.1
						c-0.1-4.1,5.5-2.8,8.1-4.4c2.7-0.9,5-0.6,7,1.7c2.8,2.7,4.5,1.3,4.1-2.4c6.1,1.3,5.8-3.7-0.1-3.4c-1-2.8,7.7-4.1,9.4-3.5
						c2.3,4.1,5.4,1.4,8.2,1.2c4.1-1.7-0.7-8.1-4.2-7.9c-6-0.2-2.2-7.9,1.9-7.9c1.7-0.3,3.1-1.2,4.9-1.6c0.6,2.8,1.3,5.2,1.7,7.8
						c-0.3,1.5-2.5,5.3,0.8,4.8c5.6-2.2,8.8,4.8,12.2,2.6c4.8-2.9,9.8-2.7,11.7,3.4c-2.3,3.6-6.2,5.4-9.8,7.6l23.1-6.5
						c0.4-1.8-0.8-2.8-1.6-2.2c-3,2-5.8-0.3-9.2,0.5c3.4-3.7,6.2-2.2,9.2-7.1c1.7,2,3,5.6,6,6.3c2.4,0.3,7.1-3.7,7.1-6.3
						c0.4-5.3,6.8-5.2,10.7-7.4c5.8,9.5,5.4-4.2,13.1-2.3c1,0.1,2.2-0.9,3.1-1.6c4.1-3.5,6.1-3.8,10.9-1.5c2,1,5-0.2,3.3-2.8
						c-2.6-6.1,6.8-9.3,10.8-11.6c4.5-2.7,4.4,4.3,8.9,4c9,2.8,12.1-7.2,16.9-1.1c-3.6,5.4-8.1-0.1-11,3.9c5.9,2,2.7,8.7,10.1,6.2
						c-0.3-1.2-0.4-1.9-0.7-3.3c11.3,1-0.4-5.6,6.6-11.7c1.1,2.6,2.1,4.9,3.1,7.1c12.4,4.5,9.3-11.3,17.8-7.7
						c3.8,1.4,4.1,1.4,6.2-1.9c2.5-3.8,10.2-8.8,14.1-5.9c1.9,3.2,4.6,5,8.3,4.9c0.6,0.1,1.1,0.5,1.4,0.9c0,3.1-3.4,3.3-4.9,5.8
						c6.8,0.6,12.2,4.2,17-2.3c3.2-2.6,3.4-3.4,1.7-7.2c-1-3.7,0.9-8.5,5.4-7.9l-1,9.2c12.8,4.6,13.4-9.2,20.9-5
						c2.7,0.9,4.8,2.9,5.8,5.6c-2.3,1.2-3.6,3.7-3.3,6.3c0,3.1,5.3,3.4,5.5,0.1c0.4-2.6,0.8-5.3,2.6-7.9c4.3,3.5-0.3,16.8,6.8,12.9
						c2.6-2.3,6.3,1.3,8.2-2.5c2.6-4.6-3.3-6.6-4.1-10.6c6.4,2.8,4.7,2.2,9.8-2.7c3.7,3.7,5.3,1,9.3-0.9c0.2,12.2,4.4,9.1,13.5,7.7
						c1.5-5.4,6.4-5.4,1.2-11.3c1.5-2.4,0.6-6.3,4.6-7.5c-0.3-1.3-0.6-2.4-1-4.2c4.4-0.4,7.5,2.7,11.5,0.7
						c4.9-2.7,8.8,12.3,20.2,1.7c-2.8-2.3-5.7-8.2,0.6-6.5c3.5,2.5,6.6-1.6,10.1-1.9c3.1-1.2,7.9,2.9,3.3,4.7
						c-3.5,1.3-10.4-1.4-9.7,4.6c4.9-0.7,9.8-2,14.5-3.7c4.1-1.9,5-1.7,7,2.9c-0.5,1.4-3.6,0-3,3c1.9,0.9,4.4,0.5,4.9,3.1
						c1.2,4.8,10.9,11.7,14.4,6.1c-0.4-0.6-0.8-1.3-1.4-2.1l3.3-3.6l-0.9-10.3c3.2-0.6,6.3-2.5,9.9-1.8c0.9,0.1,1.8-0.1,2.7-0.5
						c3.6-1.1,8.3,0.4,9.4,4.2c-2.8,1.9-6.7,0.9-8.8,4.3c1.8,6.8,5,3.8,9,8.1c-0.6,2.5-4.2,3.2-2.3,6.5c3.5,0.4,11.6-2,9.5-7
						c-1.2-1.1-1.9-3.3-0.6-4.4c6.5-4.9,13.1,6.4,16.1,2.1c1.9-3.1,6.9,1.3,12.1-0.9c3.5-0.5,7.2-0.1,10.6-0.7c2.8,2,5,0,7.2-0.9
						c4.9,3.7,3,5,9.1,1.2c3.5-6,13.2,0.8,14.1-7.6c3.6,4.6,9.1,2.5,13.8,1.3c3.3-1.4,3.3-6.3,3.1-9.4c-1.5-5.1,6.6-9.4,8.6-4.1
						c1.1,4.2,0.2,8.9,4.5,11.6c9.8,6.9,21.6-3,31,5.6c0,0.1,0.2,0.8,0.4,1.6c4.4,1,5.6,0.9,9.3-0.7c-0.9-0.9-1.9-1.5-3-2
						c1.4-3,4.9-0.1,6.5-3.2c3.8-4.5,10.2-0.3,14.8-2.9c2.8-1.2,6.3-0.2,9.1-0.7c2.1-0.6,4.4-0.1,6,1.3c5.8,4.3,12.3-2.8,18.3-3.7
						c5.5,8.8-4.9,12.5-10.7,16.3c2.5,7,7.8,0.3,12.7,2.4c0.6,2-0.1,5,2.5,5.7c1.6,0.3,4.5-1.1,5.1-2.5c0.5-5.7,5.2-8,10.3-8.8
						c0.5-0.1,1.3,0.8,2.5,1.6l-6.5,1.2c0.7,2.6,2.7,3.6,3.8,3.1c2.7-1.3,5.3,0,7.8-0.4c1.6-0.3,3.1-0.4,4.1-2.1
						c1.8-1.3,4-2.2,5.6-4l-4.8-3.7h-0.1c6.8,1.5,13.3-1,19.7,2.3c-1.8,6.6-7.8-6-10.6,2.7c-0.4,2.2-1.4,2.9-3.5,3
						c-4.7,0.4-9,7.6-3.8,11c0.9-2.1,1.6-3.5,2.2-4.9c-0.5-0.5-1-1-1.7-1.7c6.1-3.3,5-0.2,9.8,1.4c0.5-1.4,0.5-2.9-0.2-4.2
						c0.9-1.2,2.6-1.5,3.8-0.6c0.1,0,0.1,0.1,0.2,0.1c2.2,1.6,0.6,3.8,0.4,5.8c3.3,1,3.3-3.7,5.8-4.4c3.6-1.1,4.7,0.3,3.7,4.9
						l3.9,3.1c4.2-1.8-0.9-5.4,1.9-7.7c3.5-2,5.5,2.9,8.2,4.9c2.5-1.6,4.2-4.9,7.8-3.1c4.5-0.3,6.1-2,8.9,2.3
						c3.8-0.5-1.2-5.6,3.6-6.2c7.3-3.2,10,2.3,12.9-1.1c2.3-2.6,2.6-2.5,3.9,1c1.2,2.5,2.6,5,4.2,7.4c2.7,0.5,4.7,5.1,8.9,2.9
						c1.5,4.7,4.3,5,8.3,0.9c-2.3-2.3-5.5-0.5-8.3-0.8c-1-2.3-3.6-3.5-3.2-6.3c0.3-5.3,0.2-5.4,5.3-6.6c3.9-0.9,7.8-1.6,12.1-2.5
						c1.3,4.1,3.1,10.7,8.2,10.5c4.5-2.2,10.9,1,14.2-3.1c2.5-5-4.8-3.9-7.9-4.1c1.5-3.4,5.4-0.8,8.1-1.7c5.3-0.9,5.3-1,6.3,3.8
						c4.7,6.1,8.7,2,12.8-0.3c1.8-9.1,9.6-6.9,9.2,0.6c4.2,0.3,7.8-3.1,12-0.6c2.8-3.4,6.3-3.1,10.8-1.3l-2-6.4
						c9.2-0.1,5.8,4.9,12.2,4.5c4.1-0.3,2.7-5.7,6.5-6.8c2.4,1.8,5.1,3.1,8.4,1.4c-1.1-4,2.1-5.1,5.3-7.1c-9-2.7-8.5,5.6-17.3,2.1
						c1.5-5,29.9-15.3,18.3-4c5.8,2.5,12.3-2.1,17.2,3c-0.8,2.5-6.9,8.9-1.8,9.7c2.9-1.3,5.5-3.4,9-3c3.9,0.7,14.3-2.7,14.7,2.7
						c0.6,3.4-0.5,7,4,8.1l-2.2,1.1c0.4,5,11.4,1.1,16.1,5.1c2.4,1.3,2.4-1,2.7-2.4l8.1-1.1c-3.1-3.4-9-2.6-13.2-1.6
						c-2.5,0.8-8.4,0.2-5.4-3.5c0.9-1,2.1-1.8,3.6-0.9c3.7,2.1,7.7,2.3,11.8,2.1c14.5,3.7,21.5,3.3,36-0.3c7.5,8.3,2.7,18.5,5,28
						c-6.4-0.7-2.7,5.4-8.4,4.7c-4.3,0.1-9-0.7-13.1,0.1c-4.4,4.2,1,5.5,4.6,3c-0.6,9.9,0.3,12.3,10.4,9.8c2.7,5.1,2.7,5.1,8.2,5.6
						c-6.9,4-7.9-4.3-13.2,2.7c-4.7-1-8.3-5-13-6c-1.7,4.9-1.2,9.3,1.1,11.8c3-3.7,6.7,1.4,10.4-1.5c3.2-1.8,3.1-2,6.2,1.2
						c-3.2,2.1-6.4,5.8-10.8,3.7c-3.6-2.7-7.5-1.4-11.3-1.3c-3.6-0.2-3.7,3.7-4.1,6.3c1.6,1.8,4.9,1,5.2,4.8
						c-7.5,1.2-13.5,5.9-1.4,5.5c1.6,7-7.3,10.9-13.1,11c-2.8-0.7-7.4,2.4-8.8-1c-0.8-4.4,7.7-2.9,10.9-4.7c-4.7-3.4-8.5,1.3-12-2.9
						c-0.8-1.2-3.8-0.8-4.8,0.3c-2.4,3.2,5,6.2-1,10.4c-3.6,2.2-3.8,3-1.6,7.2c1-0.8,1.9-1.7,2.7-2.8c1.4,5,5.2,3.6,8.6,4.1
						c0-1.1,0.1-2.2,0.1-3.4c4.7,0.3,10.9-1.1,11.8,4.8c1.6,3.4-0.2,5.5-3.4,6.8c-3.5,3.2-5.7,7.3,0.2,9.2c6.7-3,11-6.3,7.8-14.2
						c5.9-0.8,11.7,0.8,17.5-1.3c1.8-0.7,3.8-0.2,5.2,1.2c5.1,3.9,12.3,2.7,18.3,3.1c7.8-1.7,8-4.3,11.2,4.8
						c-16.6-1.2-13.5,7.9-23.5,13.4l2.4,4.5c-2,1.3-3.8,4.3-6.3,4.3c-6.1-2-5.7,4.3-13.1,0.3c2.9-4.4,8.3-6.2,8.3-11.6
						c0.2-1.5,0.1-2.9,1.5-4c1.5-1.3,1.3-2.9,0.2-4.4s-2.3-0.9-3.6-0.2c-2.8,1.4-2.3,3.5-1,5.7c-0.8,3.2-6,3.6-4,8.6
						c-7.6-6.3-8.3,0-8.2,6.8l3.9,0.1v0.3l-5,1.5c4,7.4-0.5,15,4.1,22.3c2.7-1,3.9-3.3,5.1-5.9l-3.1-3.3c3.4-1.2,5.4-3.3,5.3-7
						l9.1-1.5c2.6,5.9-2.2,5.4-6.3,6.6c0.7,5.9,0.7,11.5,4.9,16c3.5,3,8.1-2.1,12.4-0.3c1.6,0.3,2.6,0.9,2.4,2.7
						c-0.4,4.6-17.7-0.5-21.9,0.9c0.4,0.8,0.8,1.4,1.1,2.1c-5.8,1.5-21-3-22.2-0.4c-0.5,1.4,0.8,1.9,1.9,2c5,0.1,10.1,1.4,15.1,1.6
						c8.3-0.4,16.2,2.4,24.3,3.2c3.9,0.4,9.1-0.9,11.2,3.4c-0.5,4.7-22,1-26.5,1.2c-11-1-21.8,3.1-32.6,0.5c-1.4-0.5-2.8,0.9-3.3,2
						c0.5,2.1,2.8,2.1,5,2.6c0.1,9.2-9.8,7.5-16.3,9.1l5.3-10.3c-2.9-4.4-8.3-5.6-13.2-2.6l-2.4-4l-6.9,5c0.9,0.8,1.8,1.4,2.8,2
						c1,0.5,2.5,0.2,2.7,1.9c-5,4.5-7.3,9.6-3.1,14.5c-2.2,2.2-5,9.4-8.5,5.6c-6.5-7.3-15.3,0.9-23.1,0.6c-6.3,0.1-1.5,8.8-10.2,9.3
						c-5.2-1.2-2.8-10.5-9.9-6.2c-5.5,1.8-6.5,1-3.9,7.2c-1.5,0.3-3,1-4,0.6c-6.6-2.3-12,7.7-15-3.2c-24.7-1-48.2,11.5-72.9,11.4
						c-1.4,0-3.3-0.2-4.2-1.1c-6-3.6-14.7,1.4-21.4,1.3c-11.2-1.8-22.1,1.9-33.3,1.5c-11.9-1.5-8.2,9.5-17.9,9.9
						c-3.6,0.5-6.6,2.5-9.9-0.5c-2.8-2.1-6-1.5-8.7,0.1c-5,3-12.2-3.2-4.2-5.8c-2.7-5.3-9.1-4.3-10,0.7c0.5,4.8-2.9,6.4-5.9,8.3
						c-3.3,1.7-9.9,4.7-11.3-0.6c-2.3-3-5.8-2.4-7.3-6.5l4.3-1.7c-10-2.8-7.5,12.5-23.1,10.4c-2.3-0.6-4.2-3.1-6.4-4
						c-3.5-1.7-3.9-2.6-2.3-6.2c-5.7-1.6-4.6,7-9.7,8.7c-3.3,1-10,3.1-12.9,1.4c-1.3-2.8-4.3-4.9-3.8-8.5c0.3-2.1-0.7-4.3,1-6.3
						c0.8-1,0.1-2.2-1.1-2.6c-2.4-0.8-6.9-0.1-4.6,3.3c2.5,2.6,1.2,4.7-1.5,6.1c-6.2,4.5-14.9,7.9-22.4,4c-2.9-1.8-5.2,0.4-7.4,1.6
						c-1.5,0.8-2.6,2.4-4,3.4c-1.9,1.4-0.1,3.4-0.7,4.9c-2.4,2.1-4.4-2-6.7-2.5c-4.4-1-5.1-5.5-9-7.5c-0.9-2.3,3.5-3.4,1.1-6.2
						c-2.2,1.2-1.6,3.7-2.7,5.2c-3,0.9-5.9,1.7-8.8,2.6c-3.2,1.5-5.5-4.3-7.9-0.2c3.5,3.5,1.5,6.5,0.5,10.9l-5.3-6
						c1-1.4,1.8-2.6,2.7-3.8c-3.5-1-4.1-0.6-5,2.5c-9.8,1.7-9.8,3.5-19.7,0.5c1,3.8,3.6,6.1,0.3,8.8c-4.8,3-11.7,9.6-16.3,2.5
						c2.5-1.8,3.8-4.7,0.9-6.9c-4.1-6.4-5.7,1.7-15.7,1.7c-4.1,1.3-5.9-3.7-10.2-1.9c-1.2,0.2-2.5,0.8-3.5,0.5
						c-5.4-1.7-10.6,0.7-16,0.6c-2.4,0-5.1-0.1-7.1,1.3c-1.4,1.1-2.6,2-4.4,1.4c-5.3-1.8-10.3-0.3-15.4,1.2c-4.1,1.1-8.4,0.7-12.3,3
						c-2.1-1.3-4.7-1.6-7.1-0.7c-1.2,1.6,1.4,3.3-0.7,4.7c-1.6,1-2.7-0.1-3.8-1.3c-3-3.9-6.8-2.8-11.2-3c4.7,4.6,0.3,6.3-2.8,10.7
						c-0.4-3,0.2-6.7-2.9-6.5c-3,0.5-3.7,4.1-2,6.3c-5.3,4.1-9.3,4.1-11.1,0.3c0.4-1.1,3-2.2,2.8-2.8c-1.5-5.5-7-5.4-11.7-4.5
						l-0.4-4.3c-1.6,2-2.9,3.1-3.6,4.6c-1.9,5.2-9.3,3.1-7.1,10L320,860l-4.3-2.9c0.9-2.6,3.2-5.5,7.8-9.9
						c-6.9-1.9-15.2-2.9-21.8,0.3c-4.5,3-7.9,0.9-12.1-1c-2.3,2.8,2,4.3,3.8,5.8c2.2,1.6,0.4,4-2,2.6c-5.2-3.8-8.8-5.8-15.1-4.1
						c-4.7,1.1-10,2-10.6,8.1c-0.8-0.1-1.5,0.1-1.8-0.2c-3.7-3.3-7.8-2.7-11.8-1.1c-2.8,1.1-5.4,2-8.5,0.3c-1.1-0.6-3.1,0.4-4.6,0.5
						c-2.1,0.1-1.6,2.2-2.4,3.3c-3.7-0.8-7.4-3.5-11.1-2.6c-4.8,1.8-10,0.9-14.9,2.2c-0.6,5.8-2.6,3.5-3.2,6.5
						c-0.5,5.8-7.1,6.7-11.3,9.2c-3.4,1.4-4.9,0.2-4.9-3.6c0.1-1.9-0.3-3.5-2.2-4.5c-1.9-1.4-4.5-4.7-6.8-2
						c-2.5,3.4-2.9,0.9-5.9,0.3c-0.6,2.8-0.5,5.3,3,7l-3.4,3c-5.4-11.2-12.6-7-21.1-3.3c-1.1,0.9-1.7,2.9-3.4,3.5
						c-1.4-1.9,0.1-3.1,0.4-4.4c1.7-8.8-13.3-1.4-12.9,4.5c-0.3,1.7-0.7,3.9-3.4,4.4c-0.9-1.8-0.5-5-3.2-4.8c-1.6,0.1-2.8,1.4-2.8,3
						c0,0,0,0,0,0c2.3,8.9-6.2,7.3-10.8,2.8c5.8-2.8,11.1-11.7,2.9-14.5c-2.3,0.2-0.8,2.4-2,3.9c-13.7-5.6-10.7,3.6-17.4,8.4
						c-4.5,0.9-4.5,0.8-4.2,5.2c-1,1.4-2.3,2.1-3.9,3.5l-4-2.1c1.6-3.8,5.8-5.5,5.9-9.9c-3.8-2.7-8.7,2.8-11.5-2.1
						c-0.5-0.6-1.3-0.9-2.1-0.8c-2.8,1.8-7.5,2.1-8.8,5.3c3.8,1.3,13.8,8.2,5.7,10.8c-1.1-1.7-0.1-5.2-2.7-5.2
						c-5.8,0.3-4,6.2-0.3,8.4c-4.9,5.4-9.4,0.2-13.8-2.2c-0.6-2-1.5-4-2.8-5.7c0.8-0.8,1.4-1.5,2.4-2.5c0.3,1.7,0.6,2.8,0.9,4.5
						c1.7-0.3,3.4-0.7,5-1.2c3.1-1,2.3-6.8-1.2-6.4c-4.8-0.1-9.6,3.5-13.9-0.5c-2.3-2.1-3.9,2.5-6.1,3c-2.2,1-4.8,1.2-5,4.5
						c-4.5-1.3-7.3-4-11.9-1.4c-1.2,0.7-2.7,0.5-3.7-0.5c-4.3-3.3-10,2.8-13.1,6L7.6,888c0.5-1.2,1-2.2,1.5-3.3
						c-1.8-1.1-2.8,1.3-4.3,2.1c-5.6-8.4-4.1,6.8-19,4.2c-11.8,2.4-24.5,2-36.3,4.1c-2.8,1.2-3.9,1.2-6.9-1.5c1.3-3,2.7-6,4.2-9.3
						c-2.8-1.8-6-6.7-9.7-3.3c-3.3,1.2-7.3,2.4-2.8,5.6c7.7,7.1-3,17.8-11.1,17.6c-1.5,0.2-3-0.3-4-1.4c-1.1-0.8-2.2-1.6-3.4-2.2
						c-4.6-2.7,4.3-8.6,5.7-11.9c-2.6-1.9-4.9,0.1-7.4,0.1c-2.7-2.6,0.8-3.7,0.9-5.9c-4.2,0.8-7.3,3.3-10.6,5.6
						c-4.1,2.6,0.4,6.5,2,9.4c2.8,5.2-6.3,10.5-10.9,10.1c-3.7-0.1-5.3-3.8-9.4-3.3c0-2.4,0-4.7,0-6.9c5.9,1.2,5.9,1.2,9-4
						c-3.1-3.3-6.9,0.2-10.7-1.4c2.2-3.6,5.6-6.2,9.6-7.4c-4.4-2.4-8.5,2.7-12.5-1.7c-2.6-2.7-4,1.7-6.2,3c-6.1,2.6,4.2,9-5.2,10.6
						c-2.1-2.3,0.8-3.2,1.4-5c-2.2-1.2-5.6-1-4.4-5.5l-6.4,3c0.5-3.7,3.3-4.9,4.3-7.4l-2.4-3.5c-4.2,0.2-0.7,6-5.7,6.2
						c-3.5,0.3-3.4,5.7-6.5,6.4c-4.1,0.5-8.3,1.1-12-1.1c-1-3.2-0.6-6.4-2.9-9c-0.8-0.9-0.6-2.6-1-4c-1.3-4.5-3.1-5-7.1-2.8
						c-6.2,2.8-11.8,6.8-18.8,7c4.5-9,7.4-0.4,10.2-7.8c-2.5-5.4-14.7,3.3-20.1,2c-3.1,0-5,2.3-7,4.6l-2.4-3.3c-6,4-14-0.6-9.3-3.1
						c4.9-1.1,5-1.3,4.1-6.5c-0.7-4.8,0.8-7.6-5.8-8.4c-0.4,1.2-0.9,2.4-1.2,3.6c-0.7,6.5-9,2.7-13.7,3.4l-1.2-3
						c-4-0.6-1.1,5.8-5.3,5.5c-8.1,0.3-15.1,5-23.1,5.2c-6.4-1-0.8-9.8,3.3-10.6c10.1-1.4,3.2-8.4,10.1-6.6c2.4,0.6,4.9,1.8,7.3,0
						c0.6-4,1.3-7.9,1.9-12c-5.2-0.4-8.8,1.5-10.5,5.8c-1.4,3.3-4.6,3.4-6.9,5c-2.5,1.8-5.8,1.9-8.4,0.1c-2.7-1.8-4.7,0.4-6.3,2.5
						c-6.8,5.8,5.2,10.9-3.2,15.6c-4.4,0.8-14.3,6.7-17.5,3.1c-4.6-8.3-10,7-11.3-3c0.2-3.3-2.4-3-4.3-4.2l5.4-1.3
						c1.8,8.8,18.5,1.3,22.9-2c-3.1-2.5-6.5-2.5-9.9-3.2l-0.8-2.9l-4.4-0.9v-1c0.8-0.2,1.6-0.8,2.3-0.6c3.4,0.8,11-2.2,8.7-6.5
						c-3.3,0.2-6.5-0.1-8.5-3.6c0.9-2.2,1.8-4.6,2.8-6.9c-0.4-0.2-0.7-0.5-0.8-0.5c-6.3,2.9-10.2-1.5-16.1-2.2
						c-4.9,0.7-4.9-1.5-6.6-5.5c-3.5-1.5-5.9,2-9.2,2.8l-4.1-6.4c1-1.9,3-4.2,0.1-5.5c-4.9-2.2-0.7-8-5-10.3
						c-3.3-1.9-0.4-6.7,2.6-7.4c2.6-0.6,4.3-1.9,4.8-5c1.5,3,4.3,2.6,6.5,3.6c2.6,1.5,6.7-2.8,3.8-4.6c-3.8-2.3-7-5.7-11.6-6.5
						c-1.6-0.3-2-1.6-2.6-2.9c-1-2.1-2.2-3.6-4.9-2.3c-1.3-3.3-3.7-3.7-6.5-2.5c-0.9-11.5,10.4-2.9,8.9-9.8c-0.2-5.5,6-5.4,9.9-7.8
						l-3.6-2.7l2.9-3.7l-1.7-2.8c4.9-2.9,10.3-2.5,14.9-6c2.4-2.3,5,1,7.4,2.5c0.8-1,1.4-2,1.9-3.2c3.4-0.6,7.3,1.8,10.4,0.1
						c5-5,10.7-8.8,16.2-13.2c2.9,0.8,5,2.1,4.9,5.9c0,6.5,10.4,7.3,9.2-5c1.9-1,6.5-1.9,7.8-4c1-9.2,12.6-2.7,13.8-10.8
						c1.4-2.7,5.3-2.9,5-6.7c0.7-5.5,6.7-7.3,10.3-10.6c1.4-1,1.6-0.9,4.3-0.6c-0.8,3.9-4.4,5.2-7.5,6.5c-4.7,3.7,3.5,10.3,4.1,0
						l3.6,1.1c5.4-3,11.5-3.7,15.6-8.7c2.9-2.9,6.7-5.2,10.9-5.1c2.4,4-1,10.2,4.6,12.2c3.9-2,7-4.5,5.5-9.2c2.7-2,5.6-0.9,8.4-0.9
						c0-4.8-4.8-2-7.8-1.8c-0.5-4.2,4.1-4.6,6.9-6.3c3.2,0.5,4.6,5.4,8.4,2.2c7.6-4,16-6.2,22.6-12c2.5-1.7,6-2.1,8.8-3.3v-0.9
						l-3.7-1.4c-0.1-5.7,4.6-9.1,12.3-8.7l-6.7,4.9l6.4,2.7l0.8,1.1c1.9-8.7,9.6-0.1,10.7-9.8h3.9c-0.4,0.9-0.8,1.8-1.3,2.6l0.6,0.7
						l3.3-1.2v-0.9L-113.5,669.4z M-311,765.5c0.3-1.2,0.6-2.5,0.9-3.8c-4.8,0.6-5.7,1-7.3,3.6c2.2,1.4,4.4,0.5,6.5,0.1
						c-0.5,4.4-7.1,1.8-7.9,6.3c2.4,2,9.3-2.5,10-5L-311,765.5z M937.8,656.3c4.8,5.7,9.5,2.9,15.3,3.1c2.7,0.5,3.4,0.1,4-2.3
						c1.2-3.5-2.5-3.6-5.1-5l6.6-9.9c-5.2-1.2-10.2-5.1-13.9,0.3C950.3,646.7,940.2,652.2,937.8,656.3z M958.3,614.7
						c0.6-0.5,1.2-1,1.8-1.4c1-0.5,2.1-1,1.6-2.4c-0.8-2.8-4.8-0.8-5.8,0.6c-1.1,2.8-4.4,2.5-6.8,3.5c-2.1,0.5-2.1,2.3-2.2,3.9
						c0.2,3.3,4.6,2.7,7,4.2l-2.8,2.2l2.8,5.8c4.6-4.8,10.6-8.1,9.9-15.5L958.3,614.7z M895,628.5c2.5,3.2,5.3,7,9.4,3.1
						c-6.8-2.4,5.1-14.5-13.5-12.9c-6.4,1.8,2.9,8.1-4.5,13.9c2.3,1.6,5.1,4.5,7.7,2.1c1.6-1.8-1.3-2.7-1-4.7L895,628.5z
						 M894.4,603.7c9.5-0.9,4.3-11.8-2.3-11.1c-2.4,0.2-4.5,0.6-6.7-1.4c-3.5-2.6-6.6,4.4-2.4,5.5
						C887.4,597.7,890.4,602.7,894.4,603.7L894.4,603.7z M-270.2,837.5c-1.3,5.8-4.3,8.2-9.5,10.1c-2.5,0.9-3.6,4.8-2.3,6.8
						c3.3,0.4,5.4-3.5,8.9-3.3c3.4-0.1,0.7-4.7,3.7-5.3c1.5-0.6,2.7-2.3,2-3.6c-2.5-4.9,1.2-5.2,2.6-8.3
						C-267.9,827.9-276.4,832.3-270.2,837.5z M955.6,722.1l5.5,1.2c0.3-4.7-4.5-6.5-7-3.7c-2.1,3.6-6.7,1.7-9.1,4.6
						c-1.5,1.9-1,8.7,0.6,10.7C948.7,739.3,955.3,725.2,955.6,722.1z M366.2,592.5c0.8,17.2,2.9,7.7,12.7,4.1c1-0.2,1.7-1.3,2.6-2
						C378.5,590.1,370.3,589,366.2,592.5z M933.5,621c-3,0.5-6.8,1.6-6.5,5.5c-0.7,4.9,16.6,8.2,12.8,0.6
						C938.2,624.3,937.5,620.4,933.5,621z M973.2,593.6c1.7,5.9,5.1,12.2,12.2,10.4c4.2-0.7,4.8-1.7,3-6.3
						C978.6,601.4,982.8,592.8,973.2,593.6z M911.3,605.1c0.8,1,1,1.7,1.4,1.7c3.2,0.4,3.4,3.9,5.2,5.9c7.1,4.3,7.5-3.9,8-9.1
						C921.2,606.2,916.6,605.8,911.3,605.1z M-198,864.5c2.8,2.9,7.9,7.1,10.9,2.8C-185.2,861-193.8,856.2-198,864.5z M948.7,746.8
						c-5.9,0.1-10,6.4-5.4,9.9C946.9,757.4,954.8,748.6,948.7,746.8z M-305.4,759.6c2.1,3,1.2,8.4,5.7,6c2.8-1,5.8-3,4.9-6.5
						C-297.5,756.7-301.9,759.3-305.4,759.6z M-21.8,885.1c2.9-0.6,4.2-2.3,4-5c-0.9-2.2-10.6-3.2-11.6-0.9
						C-28.5,882.2-24.7,884.1-21.8,885.1z M970,602.6c-3.7-0.4-5.4,5.1-2.2,6.3c3.5,0,1.7,3.5,4.4,4c1.8-0.9,1.7-3,1.8-4.8
						C975.1,604.1,973.9,602.4,970,602.6z M85.7,861c-6.6,0.3-4.6-3.5-8.3-2.6c-0.6,0.5-0.8,1.3-0.7,2c2.4,3.5-1.2,5.9,0.5,9.5
						C82,868.3,82.8,863.7,85.7,861z M876.9,633.2c1-5.8-4.8-3-5.9-5.6l2.2-4.6c-4-2-4.3,6.5-6,9.1c1.4,3.5,6.8,4.5,6.6-0.5
						L876.9,633.2z M839.3,626c10.8-0.7-2.5-14.2-5-5C833.1,624.3,837.3,625.6,839.3,626z M-213.3,852c1.3-1.4,2.3-2.5,0.2-4
						c-1.2-1.7-2.5-4-4.9-4c-1.6,0.3-2.3,3.6-3.4,4.3c-2.6,1.2-1.4,2.7-0.6,4.5C-219.2,851.2-216.5,848.9-213.3,852z M979.9,608.1
						c-0.9,3.5,6.2,10.4,8.7,5.7C993.4,608.3,983.4,608.8,979.9,608.1z M918.8,637c4.4,0.5,6.3-5.1,2.6-7.2c-1.8-0.6-8.8-3.3-7,0.8
						C917.9,632.6,919.3,632.2,918.8,637z M820.6,635.3c0.5-5.6-6.5-10.8-8.2-4.2C812.6,635.1,817.5,634.3,820.6,635.3L820.6,635.3z
						 M-199,705c-4,2.8-3.4,13.3,2.4,10.1C-198.8,710-194.3,710.3-199,705z M353,580.8c-1.3,2-0.9,3.7,0.3,4
						c2.9,0.7,5.3,5.1,8.9,1.7C361.9,578.9,356.7,585.7,353,580.8z M243.8,607.3c-3.5-7.3-8.1,2.1-13,2.6l0.2,0.8
						C235.8,610.6,239.9,610.6,243.8,607.3L243.8,607.3z M-313.5,787.7c2.8-0.2,5.2-0.6,7.2,1.2c2,0.5,5.5-2.6,5-4.7
						C-305.9,785-312,781.7-313.5,787.7z M386,586c4.9,4.3,7.7,2,7.6-3.8C389.9,580.9,388.1,583.1,386,586z M879,629.2
						c6.2,3.4,7.3-2.3,6.9-7.2C883,624.1,880.3,625.7,879,629.2z M289.3,600.2c-0.8-6.7-6.8-1.5-10.6-0.6
						C280.9,603.2,285.5,600,289.3,600.2L289.3,600.2z M-316.4,815.4c9.9,2.9,12.7-9.5,4.9-5.1C-313.1,812-314.4,813.3-316.4,815.4z
						 M-194.4,858.7l-0.4-0.8c-14.3,1.3-9.3,10.2-5.9,5.8C-199.7,860.2-196.4,860.8-194.4,858.7L-194.4,858.7z M-301.3,794.1
						l2.9,0.6c0.4-3.5,4.5-7.7,1.9-10.1C-302.3,785.6-298.8,790.8-301.3,794.1L-301.3,794.1z M702.9,813.7c3,3.1,6.9,2.5,8.5-1.1
						C707.7,810.5,706.2,810.6,702.9,813.7z M-115,872.9c0.1-5.5-4.9-4.7-5.1-0.5C-119.7,876.3-114.1,877.7-115,872.9z M436.8,594.3
						c3,1.1,6.4-1.5,4-4.3C436.9,587.6,435.3,590.6,436.8,594.3z M860.4,624c1.7-1.7,5.2-2.3,3.3-5.1c-0.8-1.4-2.6-2-4.1-1.2
						c0,0-0.1,0-0.1,0C856.7,619.3,859.2,622,860.4,624z M941.6,607.6c1.6-0.1,2.8-1.4,2.7-2.9c-0.1-1.6-1.4-2.8-2.9-2.7l0,0
						C937.7,602.1,937.9,607.8,941.6,607.6L941.6,607.6z M901.7,697.8c4.2,0.6,11.2-4.5,4.7-6C904.5,693.4,902.9,695.4,901.7,697.8
						L901.7,697.8z M398.1,591.4c-2.6-2.7-3.5-2.7-4.4-0.9c-1.4,2.2-2.7,6.2,0.8,7C396.5,594.7,392.5,591.7,398.1,591.4z
						 M-214.9,719.7c-1.9,1.6-2.7,5.3,1.4,4.9C-209.8,724.4-211.1,719.1-214.9,719.7L-214.9,719.7z M948.6,691.8
						c-2.3,0.6-1.2,6,1.3,6C953.6,697.4,951.8,691.3,948.6,691.8z M644.3,807c-2.2-0.1-5.2,0.7-5.3,3
						C641.2,813.1,644.9,812.2,644.3,807z M993.1,707.8c0.1-3.9-5.3-3.4-5,0.3C988.3,711.4,993.7,711.2,993.1,707.8L993.1,707.8z
						 M633.2,580.8l-0.5-1.2c-3,0.9-9.7,0.5-5.7,5.5L633.2,580.8z M-206.2,869.8c0.8,1.7,1.3,2.7,1.9,4
						C-196.2,872.3-199.1,868.1-206.2,869.8L-206.2,869.8z M801.5,634.6l3.1,4.7C809.1,636.4,805.3,632,801.5,634.6z M200.4,867.8
						c3.4,0,3.6-5.5,0.3-5.3C198.1,862.7,198.3,866.8,200.4,867.8z M927.5,724.7c-2.8-0.4-5.5-2.3-7.7-1
						C918.3,729.2,924.7,726,927.5,724.7z M840,787c5.7-1.5,3.9-6.5-1-4.5C839.4,783.9,839.7,785.3,840,787z M-75.9,879.8
						c-2.9-2.5-6.2-1.5-7.4,2.2L-75.9,879.8z M191,847.8c2.1,0.4,4.2,1.8,5.9,0.9C197.8,843.5,193.4,844.8,191,847.8L191,847.8z
						 M849.3,686.6c-2.8,2.4-2.2,5.5,0.7,6.4C851.6,690.9,849.8,689.2,849.3,686.6z M-155.7,889.5c2.2-0.5,3.7-0.7,5.2-1.1
						C-147.9,884.7-154.5,884.6-155.7,889.5z M470.2,819.8c-1.9,3.5,4,6,4.5,1.8L470.2,819.8z M302.7,834.9c3-0.3,4.9,0.8,6.4-1.6
						C307,830.5,304.8,832.2,302.7,834.9z M187.9,620c-4.6,0.2-5.2,0.6-5.7,4.2C184.8,623.8,186.4,622.5,187.9,620z M345.3,842.6
						c2.7,1,4,3.5,6.3,0.4C349.4,842.2,348,839.7,345.3,842.6z M-242.7,865.1c2.2-2.5,1.9-3.1,0-5
						C-245.3,861.8-244.8,862.5-242.7,865.1L-242.7,865.1z M-166.8,708.7l-6.1-2c0.4,1.9,0.6,3,0.9,4.6L-166.8,708.7z M-77.8,672.4
						c2.2,0.7,4.1,0.6,5.8-1.7C-74.6,669.6-76.3,670.5-77.8,672.4L-77.8,672.4z M13.2,870.1c-3.4-1.1-6.4,4-2.1,4.2L13.2,870.1z
						 M173.9,856.8c-3.5,0.5-4,1.2-3.8,5.1C172.8,861.5,172.6,859,173.9,856.8L173.9,856.8z M447.7,827.6c1.4-2.3,3.5-4.1,0.3-5.1
						C445.8,824.2,445.2,825.2,447.7,827.6L447.7,827.6z M907.4,774.8c0.7,1.8,1.3,3.4,2.3,5.8c0.7-1.5,1.3-2.3,1.1-2.7
						C910.2,776.6,910,774.6,907.4,774.8z M24.4,871.6v-0.9l-4.1-2c-0.4,2-0.1,2.3,0.8,4.1L24.4,871.6z M-176.1,715.1l0.9-0.7
						c-0.2-1.8-0.6-3.2-2.5-3.7C-178.7,712.8-177.9,713.9-176.1,715.1z M897.3,678.4c-1-0.7-2.1-1.2-3.3-1.7
						C891.1,678.4,894.7,682.4,897.3,678.4z M-155.4,861.4c-1.5,2,0,5.6,2.3,3.6C-152.6,863.2-153.7,862.2-155.4,861.4L-155.4,861.4
						z M-331.3,784.8c1.8-1.5,0.7-5.1-1.6-3.7C-334.3,782.7-332.9,784.2-331.3,784.8L-331.3,784.8z M692.7,595.1
						c-3.4,2.3-3.5,2.6-2.6,5.2C691.9,599.2,692.9,597.2,692.7,595.1L692.7,595.1z M-267.1,849.1c3.4,1.8,3.4,1.8,4.5-1.2
						L-267.1,849.1z M92.4,644c-1.7,2-1.6,2.8,0.4,3.8C94.8,647,93.9,645.5,92.4,644z M-139.3,870.2l-1.1-0.2
						c-0.7,1.7-1.2,3.2,0.4,4.5C-138.3,873.3-138.7,871.9-139.3,870.2z M402.6,831.2c-1.2,2.1-1.9,2.8,0.3,4.1
						C404.5,833.6,404.7,833.1,402.6,831.2L402.6,831.2z M-124.2,881.9c-1.6-1.5-2.8-1.7-3.4,0.3
						C-126.8,884.1-125.5,883.5-124.2,881.9L-124.2,881.9z M-308.2,773.2c-2-1.1-2.6-2.2-4-0.3
						C-310.7,774.3-310.4,775.1-308.2,773.2L-308.2,773.2z M-23.1,654.8c-0.5,0.6-0.9,1.3-1.2,2c0.9,1.6,2,0.8,2.8-0.5L-23.1,654.8z
						 M957.4,741.1c1.3-2,1.5-2.5-0.2-3.9C955.5,738.7,955.7,739.3,957.4,741.1z M-230,862.2c-0.8-0.6-1.4-1.5-2-1.4
						c-1.8,0.8-1.2,2.3,0.3,3.2L-230,862.2z M917.3,655.2c-3.3-1.8-4.9,0.9-2.2,3.1C915.9,657.1,916.5,656.3,917.3,655.2z
						 M451.9,595.3c-1.6,2.3-0.7,2.5,1,3.7C454.6,597.3,453.2,596.9,451.9,595.3z M140.6,857.3c0.5-0.7,0.9-1.4,1.2-2.3
						c-0.9-1.5-2.2-0.7-3.1,0.5L140.6,857.3z M932.2,670.9c-2.5-0.3-4-0.2-5.8,1.2C929.4,672.5,929.4,672.5,932.2,670.9z
						 M834.6,786.7c-2.1-1-3.6-1.1-5.4,0.5C831.3,788.2,832.8,788.2,834.6,786.7z M-136.4,686.1c2.4,0.6,2.4,0.6,4.1-0.8
						C-133.9,684-135.1,683.9-136.4,686.1L-136.4,686.1z M957.4,756.4c-1.8-0.8-3.2-1.9-3.5,0.4
						C955.3,758.2,955.9,758.4,957.4,756.4z M921.3,582.7c2.1,1.3,2.1,1.3,4.5-0.3L921.3,582.7z M952.2,709.6c2.1-1.8,2.1-1.8,0-3.5
						C952.2,707.5,952.2,708.6,952.2,709.6z M482.4,832.8l-1-0.5c-0.8,1.5,0,2.3,1,3.2C484,834.7,483,833.9,482.4,832.8z
						 M780.8,810.3c1.3,0.5,2.8,1.3,3.7-0.9C782.9,808.3,781.8,809,780.8,810.3z M953.5,762.7c-1.2-1.3-2.3-1.6-2.7,0
						C951.4,764.3,952.4,764.1,953.5,762.7L953.5,762.7z M-208.6,822.4c-0.7,2-0.9,2.5,0.8,3.4C-206.8,824.2-207,823.8-208.6,822.4z
						 M21.7,877.9L22,879c1.3,0.8,2.2,0.2,3.2-2.1L21.7,877.9z M870.8,691.5c-1.4,1.9-0.3,2,1,3.1
						C873.3,692.9,872.3,692.6,870.8,691.5z M-61.4,666.5c-1.3-1.6-1.6-1.3-2.8-0.3C-63.5,667.9-63,667.3-61.4,666.5z M905.4,782.6
						l1,0.9c0.7-1.1,2.2-1.7,0.4-2.7L905.4,782.6z M498.2,595.1l3-0.2C500,593.2,499.1,593.3,498.2,595.1z M619.2,588.1
						c0.8-1.8,0.8-2.3-0.8-3C617.1,586.5,617.5,586.8,619.2,588.1L619.2,588.1z M952.2,634.7l1.1,0.8c0.4-0.7,0.8-1.4,1.2-2.1
						l-0.7-0.5C953.3,633.4,952.8,634,952.2,634.7L952.2,634.7z M279,846c0.9-1.4,1.8-1.9,0.1-2.9C278.1,844.2,277.5,844.5,279,846z
						 M397.5,833.1c-1.1-1.5-1.4-0.6-2.5,0.1C396,834.9,396.4,833.9,397.5,833.1L397.5,833.1z M662.2,589.8l1-0.8
						c-0.7-0.5-1.3-2.2-2.2-1.3C661.4,588.4,661.8,589.1,662.2,589.8z M-242.6,732.7c0.9-1.1,1.2-1.9-0.2-2.3
						C-244.1,731-243.7,731.8-242.6,732.7z M52.8,876.7l0.7-0.5l-1.8-2.7l-0.5,0.3L52.8,876.7z M507.4,820.2
						c-1.2-1.2-1.5-1.9-2.8-0.7C505.4,820.8,505.5,821.3,507.4,820.2L507.4,820.2z M818.3,757.9c-1.4-1.3-1.5-0.4-2.3,0.6
						C817,759.8,817.3,758.7,818.3,757.9L818.3,757.9z M961.2,609.2c0.5-1.7,0.8-2.2-0.4-3.2C959.2,607.3,959.3,606.9,961.2,609.2z
						 M964.3,762.5c-0.8-1.2-1.6-1.4-2.2-0.3c0.3,0.5,0.6,1,1,1.4L964.3,762.5z M941.8,634.1c-0.9-1.1-1.3-2-2.2-1.1
						C939.6,634.6,940.1,634.5,941.8,634.1z M-161.6,876.8c-0.6,0.9-0.5,1.2,0.4,1.7l0.6-1.1L-161.6,876.8z M964.3,705.7l-1.9-1.3
						C961,706.2,962.6,706.7,964.3,705.7z M340.9,839.7l-1.4-1.1c-0.4,0.7-0.8,1.4-1.2,2l1,0.7L340.9,839.7z M966.6,737.2
						c-1.3-0.9-1.3-1.1-2.1-0.1C965.2,738,965.5,738,966.6,737.2L966.6,737.2z M-262.8,772.8l0.4-0.6l-1.4-1l-0.4,0.6L-262.8,772.8z
						 M-110.4,674.2c-0.6,1.1-0.7,1.6,0.3,2C-109,675.7-109.7,675-110.4,674.2L-110.4,674.2z M391.7,828.8c-0.5,1.8-1,1.9,0.3,2.5
						C392.6,830.3,392.4,830.1,391.7,828.8z M901.1,699.8l0.4-0.6c-0.6-0.4-1.4-0.3-2,0.2C899.9,700.2,900.3,700.3,901.1,699.8
						L901.1,699.8z M-65.8,669.4c-1-0.1-1.4-0.5-1.8,0.4C-66.8,670.7-66.6,670.3-65.8,669.4z M-222.7,841.3c-0.8-0.7-1.1-0.9-1.8,0
						C-223.8,842-223.5,842.5-222.7,841.3z M-98.8,862.6c-0.8-0.2-1.5-0.5-1.6,0.4C-99.7,863.9-99.4,863.6-98.8,862.6z M293.6,595.1
						c0.3-0.5,0.4-0.8,0.6-1.1c-0.8-0.7-1.1-0.4-1.5,0.5L293.6,595.1z M-327.6,772.7c-0.7-0.5-1.3-1-1.7-0.2
						C-328.9,773.5-328.6,773.5-327.6,772.7z M-321,789.1l0.5-0.5c-0.5-0.3-0.9-0.5-1.1,0.3L-321,789.1z M194,620.2l0.7-0.5
						C194,618.5,193.1,619.2,194,620.2z M167.8,606.2c-0.6,0.2-0.8,0.4-0.4,1l0.9-0.5C168.2,606.5,168,606.4,167.8,606.2
						L167.8,606.2z"/>
					<path class="st6" d="M482.5,570c-3.4,3.5-25.3,7-17.8-1.9c2.9-0.4,7-2.9,9.5-0.8C476.1,570.9,479.4,569.5,482.5,570z"/>
					<path class="st6" d="M583.4,558.1c5.3-9.2,17.6,6.9,6,9.2L583.4,558.1z"/>
					<path class="st6" d="M38.8,629.2c-0.3-3.7,4.2-4.1,5.4-7.3l8,3.3C47.5,633,46.8,630.6,38.8,629.2z"/>
					<path class="st6" d="M730.8,576.8c4.6-3.5,9.5-6.1,15.7-6.8c0,2-1.6,3.6-3.5,3.8C738.8,574.6,735.5,578.8,730.8,576.8z"/>
					<path class="st6" d="M527.7,565c1.5,2.4-3.9,4.6-6.3,4.5c-3.2-0.5-6.2-5.7-1.8-7.4c0.4,1.5,0.7,2.7,1,3.8
						C523.3,567.5,525.4,565.4,527.7,565z"/>
					<path class="st6" d="M680.8,577.6l-3.1-2.6c0.4-2,0.7-4,1.2-6.4l6,4.9C683.6,574.9,681.8,576.5,680.8,577.6z"/>
					<path class="st6" d="M761.3,573.9c3.4-3.4,7.7-4.7,12.4-5c-2.5,4.2-8.1,3.8-12,6L761.3,573.9z"/>
					<path class="st6" d="M584.2,566.7c-3.1-1.6-7.2-1.1-8.4-4.5c0.7-0.4,1.9-1.3,2.2-1.1C580.1,562.7,583.5,562.8,584.2,566.7z"/>
					<path class="st6" d="M137.4,609c0.4,1.7,0.7,3.4,1.1,5C132,617.6,131.6,610.9,137.4,609z"/>
					<path class="st6" d="M88.6,617.7c2.9-0.6,5.2-1.5,7.4,0.8C93.2,620.6,91,620.5,88.6,617.7z"/>
					<path class="st6" d="M100.2,611.4c-3.1,1-4.2-1.7-6-2.7C97.1,607.7,98,608.1,100.2,611.4z"/>
					<path class="st6" d="M512.1,564.6c-2.5,1.9-2.5,0.5-3.9-1.1C509.9,561.4,510.4,563.2,512.1,564.6z"/>
					<path class="st6" d="M662.5,576.6L657,579c1.1-2.9,1.3-3.1,5.2-3.2C662.3,576.1,662.4,576.3,662.5,576.6z"/>
					<path class="st6" d="M697.2,576c0.7-1.2,2.3-2,3.4-0.6C700.9,577.3,699.7,577.6,697.2,576z"/>
					<path class="st6" d="M20.7,633.1c0.2-2.6,1-3.8,3.3-3.5C23.4,631.9,23.4,631.9,20.7,633.1z"/>
					<path class="st6" d="M118,624.2c-1.3,2.2-3.8,0.9-2.6-1.2C116.4,622.3,117.3,622.8,118,624.2z"/>
					<path class="st6" d="M316.4,587.1l3,0.2c-1.2,1.9-2.1,1.8-3,0.9V587.1z"/>
					<path class="st6" d="M117.6,615.1l3.8-0.8C120.5,616.6,120.5,616.6,117.6,615.1z"/>
					<path class="st6" d="M326.6,576.9c-1.4,0.8-1.7,0.8-2.5-0.4C325.2,575.4,325.4,575.7,326.6,576.9z"/>
					<path class="st6" d="M568.1,563.3l1.2,1c-0.5,1.1-1.1,0.6-1.9,0.1L568.1,563.3z"/>
					<path class="st6" d="M324.2,579.8l0.7,0.2c-0.4,0.5-0.5,1-1.1,0.4L324.2,579.8z"/>
					<path class="st6" d="M129,606.9l-0.4,0.6c-0.2-0.3-0.4-0.5-0.5-0.8C128.6,606.2,128.8,606.3,129,606.9z"/>
				</g>
				<g class="st5">
					<path class="st6" d="M48.9-109.5c5.5-2.7,10-1.7,13.4,3.2l-6.2,4.1l4,2.5L52-98.4c1.6,6.2,4.7,0.6,12,7.9
						c4.3,2.3,5.9-4.3,7.5-7.2c0.9-3.3-2.4-5.8-4.2-8.1c2.7-4.2,4,4.3,7.3,3.6c0.7-2.6-0.8-3.6-2.7-5c8.6-4,4,9.4,14.7,3.4
						c2.6-2.3,12.8-6.8,14.8-3c1.4,3.4,4.5-0.1,6.9,1.6c3.7,3,6.3-0.9,10.6-0.7c-0.4,2.9,0.3,6.6,3.3,6.4c3-0.7,1.3-3.5,1.7-6
						l4.9,2.4c-0.1,3.4-5.9,3.5-3.9,7.8c-1.9,1.7-5.2,0.2-6.4,3.6c2.6,5,7.3,6,12.6,6l-3.5-2.1l4.5-6.2c1.7-0.9,2.9,2.5,4.3,0.3
						c0.5-0.9,0.2-2.7-0.3-3.8c-0.6-1.7-3.2-3.1-2.8-5.1c3.2-1.7,9.2-2.1,11.1,2c1.5,4,6,1.5,4.1-2.4c3.9,2.5,7.6,1.8,11.3,1
						c4.3-2.1,3.2-8,8.4-1.9l3-11.5c3.6,1.8,2.6,6,5.9,8.5c1.3,1.2,1.1,3.1-1.4,3.7c1.7,0.6,3.3,1.4,4.8,2.3
						c4.6,3.8,5.7-3.2,9.1-0.8l-1.5,2.9c1.6-0.2,3.2-0.8,3.7,1.4c0.7,5.4-6.8,4-10.1,5.7c-0.1,1.9,18.6,2.1,20.3,1.1v-3.4l4,0.2
						c-0.3-4.1-6.9,0.3-11.3-4.1c0.9-4,6-1.4,8.9-2.2c2.9-0.2,5,0.7,6.4,3.3c2,3.3,4.1,2.4,4.6-1.3c5.6,2.8,6.5-2.2,0.8-3.3
						c-0.3-2.9,8.4-2,9.9-1c1.2,4.6,4.9,2.7,7.7,3.2c4.4-0.6,1.4-8.1-2.1-8.7c-5.7-1.7-0.2-8.2,3.8-7.2c1.7,0.2,3.3-0.4,5.1-0.3
						c-0.1,2.8,0,5.4-0.3,7.9c-0.7,1.4-3.8,4.5-0.4,4.8c6-0.8,7.4,6.8,11.2,5.6c5.4-1.6,10.2-0.2,10.5,6.3
						c-3.2,2.9-7.3,3.7-11.4,4.9l24-0.5c0.9-1.6,0-2.9-1-2.5c-3.4,1.2-5.6-1.8-9.1-1.8c4.2-2.8,6.6-0.6,10.7-4.6
						c1.2,2.4,1.5,6.2,4.2,7.5c2.3,0.9,7.8-1.8,8.5-4.3c1.8-5.1,7.9-3.3,12.2-4.5c3.2,10.7,6.2-2.7,13.2,1c0.9,0.3,2.3-0.3,3.4-0.8
						c4.8-2.4,6.8-2.2,10.9,1.3c1.7,1.4,4.9,1,3.9-1.8c-1-6.5,8.9-7.3,13.4-8.6c5-1.4,3.2,5.2,7.7,6.2c8.1,5,13.5-4,16.7,3.1
						c-4.8,4.4-7.9-2.1-11.7,1.1c5.2,3.4,0.5,9,8.2,8.5c0-1.2,0-2,0.1-3.3c10.7,3.8,1-5.5,9.3-9.7c0.4,2.8,0.8,5.3,1.2,7.6
						c10.8,7.4,11.8-8.6,19.2-3c5.8,5.3,6.6-5.4,19.2-4.2c4.2,1.2,2.8,7.6,9.2,8.5c0.5,0.2,0.8,0.7,1.1,1.3c-0.8,3-4.1,2.4-6.1,4.4
						c6.4,2.3,10.8,7,17.1,2c3.7-1.8,4.1-2.5,3.4-6.6c-0.1-3.9,3-8,7.2-6.3l-3.3,8.6c11.1,7.6,15.2-5.6,21.5,0.4
						c2.4,1.5,3.9,4,4.2,6.8c-2.5,0.6-4.5,2.7-4.8,5.3c-0.8,3,4.3,4.7,5.3,1.5c1.1-2.4,2.1-4.9,4.5-7c3.3,4.5-4.5,16.2,3.4,14.2
						c3.1-1.6,5.8,2.8,8.5-0.4c3.7-3.8-1.5-7.2-1.3-11.3c5.5,4.3,4,3.3,10.1-0.2c2.7,4.5,4.9,2.3,9.3,1.4c-2.9,11.8,2,9.9,11.1,10.8
						c2.8-4.9,7.5-3.6,4-10.7c2.1-1.9,2.1-5.9,6.3-6.1c0-1.3,0-2.5,0-4.3c4.3,0.7,6.6,4.5,11,3.6c5.3-1.5,5.4,14.2,19.1,6.7
						c-2.1-3-3.4-9.3,2.2-6.1c2.8,3.3,6.8,0.1,10.3,0.7c3.3-0.3,6.9,4.8,2,5.3c-3.8,0.4-9.7-3.9-10.5,2.1c5,0.5,10,0.5,15,0
						c4.4-0.9,5.3-0.4,6,4.6c-0.9,1.2-3.5-0.9-3.6,2.1c1.6,1.3,4.1,1.6,4,4.3c0,5,7.7,14,12.5,9.5c-0.2-0.7-0.5-1.5-0.8-2.4l4.1-2.6
						l1.7-10.2c3.3,0.2,6.7-0.9,10.1,0.7c0.9,0.3,1.8,0.3,2.7,0.2c3.8-0.2,7.9,2.4,8,6.4c-3.2,1.1-6.7-0.8-9.6,2
						c0.1,7,3.9,5,6.8,10.1c-1.2,2.3-4.9,2.1-3.9,5.7c3.3,1.3,11.7,0.9,10.9-4.4c-0.9-1.4-1-3.7,0.5-4.4c7.5-3.1,11.1,9.4,15.1,6
						c2.6-2.6,6.3,3,12,2.2c3.5,0.3,7,1.7,10.4,2c2.2,2.6,4.9,1.3,7.2,0.9c3.8,4.7,1.5,5.6,8.5,3.4c4.9-4.9,12.6,4,15.5-3.8
						c2.4,5.3,8.2,4.7,13,4.6c3.6-0.5,4.8-5.3,5.3-8.4c-0.2-5.3,8.8-7.5,9.4-1.9c0,4.3-2,8.7,1.5,12.3c7.8,9.1,21.7,2.5,28.7,13.2
						c0,0.1,0,0.9,0,1.6c4,2,5.2,2.2,9.2,1.7c-0.6-1.1-1.4-2-2.4-2.7c2.1-2.5,4.8,1.2,7.2-1.5c4.8-3.4,9.9,2.3,15.1,0.9
						c3-0.5,6.1,1.4,9,1.6c2.2-0.1,4.4,1,5.6,2.8c4.6,5.6,12.6,0.4,18.6,1C815-7.2,804-6.1,797.4-4c0.7,7.4,7.5,2.2,11.7,5.5
						c-1.4,5.9,1.5,8.4,6.5,4.9c1.9-5.3,7-6.5,12.1-5.9c0.5,0,1.1,1.1,2.1,2.2l-6.5-0.5c0,2.7,1.7,4.2,2.9,3.9
						c2.9-0.6,5.1,1.3,7.7,1.5c1.6,0.1,3.1,0.4,4.5-1c2-0.8,4.4-1.1,6.5-2.5l-3.8-4.8H841c6.2,3.1,13.2,2.3,18.5,7.1
						c-3.4,5.9-6.1-7.8-11,0c-1,2-2.1,2.4-4.1,2c-4.7-0.8-10.6,5.1-6.5,9.7c1.4-1.8,2.4-3,3.4-4.2c-0.4-0.6-0.8-1.2-1.3-2
						c6.7-1.6,4.9,1,9.1,3.8c0.8-1.2,1.1-2.7,0.8-4.1c1.2-1,2.9-0.8,3.9,0.3c0,0.1,0.1,0.1,0.1,0.2c1.7,2.1-0.3,3.8-1.1,5.7
						c2.9,1.8,4.1-2.8,6.7-2.8c3.8-0.2,4.5,1.5,2.3,5.7l3,3.9c4.5-0.7,0.5-5.5,3.7-7c3.9-1.1,4.6,4.2,6.7,6.7c2.8-0.9,5.3-3.7,8.3-1
						c4.5,0.8,6.4-0.4,8.1,4.5c3.9,0.5,0.2-5.7,5-5.1c7.8-1.3,9,4.7,12.8,2.1c2.9-1.9,3.2-1.7,3.5,2c0.6,2.8,1.3,5.5,2.2,8.2
						c2.5,1.1,3.3,6.1,7.9,5c0.3,4.9,2.9,5.9,7.8,3c-1.7-2.8-5.2-1.9-7.9-2.9c-0.4-2.5-2.6-4.3-1.5-6.9c1.6-5.1,1.5-5.2,6.8-5
						c4,0.1,8,0.4,12.3,0.6c0.2,4.3,0.3,11.1,5.3,12.2c3.8-0.2,7.4,0.9,11.1,1.7c1.3,0.1,2.6-0.3,3.5-1.2c3.6-4.2-3.7-4.9-6.6-6
						c2.3-2.9,5.4,0.6,8.2,0.4c5.4,0.4,5.4,0.4,5.2,5.3c3,7.1,8,4.1,12.5,2.9c4.1-8.4,11-4.3,8.8,2.8c4,1.3,8.3-1,11.8,2.4
						c3.6-2.6,6.9-1.4,10.7,1.4c-0.1-2.8-0.2-4.7-0.3-6.7c9,2.2,4.4,6.2,10.7,7.4c4.1,0.7,4-4.8,7.9-5c1.9,2.4,4.1,4.2,7.7,3.5
						c-0.1-4.2,3.3-4.4,6.9-5.5c-8.1-4.9-9.6,3.3-17.3-2.3c2.7-4.5,32.7-7.3,18.8,0.7c5,3.9,12.4,1,15.9,7.2c-1.4,2.2-8.9,6.9-4.1,9
						c3.2-0.5,6.2-1.9,9.4-0.7c3.6,1.6,14.6,0.9,13.6,6.3c-0.3,3.4-2.2,6.6,1.9,8.8l-2.5,0.6c-0.9,4.9,10.7,3.9,14.3,9
						c2,1.8,2.6-0.4,3.2-1.6l8.1,1c-2.2-4.1-8.1-4.8-12.4-4.8c-2.6,0.2-8.1-1.9-4.4-4.8c1.1-0.7,2.4-1.2,3.7,0c3,3,6.9,4.1,10.9,5
						c13.4,7.3,19.7,8.5,35,8.7c5.2,9.9-2,18.5-2.2,28.4c-6-2.2-3.9,4.6-9.3,2.4c-4.2-0.9-8.5-2.9-12.7-3.2c-5.3,3-0.5,5.6,3.7,4.1
						c-3.1,9.5-2.7,11.9,7.7,12.1c1.3,5.6,1.3,5.6,6.5,7.5c-7.7,2.1-6.5-6.1-13.4-0.6c-4.3-2.1-6.7-6.9-11.1-9
						c-2.8,4.3-3.5,8.7-1.8,11.7c3.8-2.8,6.1,3,10.4,1.2c3.5-1,3.5-1.1,5.7,2.7c-3.7,1.2-7.6,4.1-11.4,0.9c-2.8-3.5-7-3.2-10.7-4.1
						c-3.4-1-4.5,2.6-5.5,5.1c1.1,2.1,4.5,2.2,3.9,5.9c-7.6-0.7-14.5,2.4-2.8,5c-0.2,7.1-9.8,8.7-15.4,7.4c-2.5-1.4-7.7,0.5-8.3-3.2
						c0.3-4.4,8.1-0.9,11.7-1.8c-3.7-4.4-8.6-0.8-10.9-5.8c-0.4-1.4-3.4-1.7-4.7-0.8c-3.2,2.5,3.4,7.2-3.5,9.9
						c-4,1.2-4.4,1.9-3.4,6.6c1.2-0.5,2.3-1.2,3.3-2c0.1,5.2,4.2,4.7,7.3,6.1c0.3-1,0.6-2.1,1-3.3c4.5,1.5,10.8,1.6,10.3,7.6
						c0.7,3.7-1.6,5.3-5,5.8c-4.2,2.2-7.3,5.6-2.1,8.9c7.2-1.2,12.2-3.4,11.1-11.8c6,0.7,11.1,3.7,17.3,3.1c1.9-0.2,3.8,0.8,4.7,2.4
						c3.9,5.1,11.2,5.6,17,7.6c8,0.3,8.8-2.1,9.7,7.5c-15.5-5.3-15.1,4.2-26.1,7.1c0.4,1.8,0.8,3.3,1.2,5c-2.2,0.8-4.7,3.2-7.1,2.6
						c-5.4-3.4-6.6,2.7-12.8-2.9c3.9-3.6,9.6-4,10.9-9.2c0.5-1.4,0.8-2.8,2.4-3.6c1.8-0.9,2-2.5,1.3-4.2s-2-1.5-3.4-1.1
						c-3.1,0.6-3.1,2.8-2.4,5.2c-1.6,2.9-6.7,2-6,7.4c-5.8-8-8.1-2.1-9.6,4.5l3.8,1.1l-0.1,0.3l-5.2,0.2c2,8.2-4.3,14.4-1.6,22.6
						c2.9-0.3,4.6-2.2,6.4-4.4l-2.2-4c3.6-0.3,6.1-1.8,6.9-5.4l9.2,0.8c1,6.4-3.4,4.7-7.8,4.8c-0.8,5.9-2.2,11.4,0.8,16.7
						c2.6,3.8,8.4,0,12.1,2.8c1.4,0.6,2.3,1.5,1.6,3.2c-1.5,4.3-17-4.9-21.4-4.6c0.2,0.9,0.4,1.5,0.6,2.3c-6,0-19.6-8.1-21.4-5.9
						c-0.9,1.2,0.3,2,1.3,2.4c4.8,1.4,9.4,3.9,14.2,5.3c8.1,1.7,15.1,6.4,22.8,9.1c3.7,1.4,9,1.4,10,6c-1.5,4.4-21.7-4.5-25.9-5.5
						c-10.4-3.8-21.9-2.4-31.8-7.6c-1.2-0.9-3,0.1-3.7,1.1c-0.1,2.2,2.2,2.7,4.2,3.7c-2.2,8.9-11.3,4.9-18,4.8l7.7-8.6
						c-1.7-5-6.6-7.5-12.1-5.8c-0.4-1.5-0.9-3-1.3-4.5l-8,3.1c0.7,1,1.4,1.9,2.2,2.7c0.9,0.7,2.4,0.8,2.2,2.5
						c-5.9,3.1-9.5,7.5-6.6,13.3c-2.7,1.6-7.2,7.9-9.6,3.3c-4.4-8.7-15-2.9-22.6-5.1c-6.1-1.4-3.7,8.2-12.2,6.5
						c-4.7-2.5-0.1-10.9-8.1-8.5c-5.7,0.4-6.5-0.6-5.6,6c-1.5-0.1-3.2,0.2-4.1-0.5c-5.8-3.9-13.5,4.5-13.7-6.8
						c-23.7-7.1-49.5-0.8-73.4-7.1c-1.4-0.3-3.1-1-3.8-2.1c-4.9-5-14.5-2.3-21.1-4.1c-10.4-4.6-21.9-3.7-32.6-6.8
						c-11.2-4.4-10.3,7.2-19.8,5.1c-3.6-0.4-7,0.8-9.4-2.9c-2.2-2.8-5.4-3-8.5-2.1c-5.6,1.6-11-6.1-2.7-6.6
						c-1.3-5.8-7.8-6.5-9.8-1.8c-0.7,4.8-4.4,5.5-7.8,6.5c-3.6,0.9-10.7,2.1-10.7-3.4c-1.5-3.5-5-3.8-5.4-8.1l4.6-0.6
						c-8.9-5.1-10.5,10.3-25,4.3c-2-1.1-3.3-4-5.2-5.5c-3-2.5-3.1-3.5-0.6-6.5c-5.2-3-6.2,5.7-11.5,6c-3.3,0.2-10.6,0.5-12.8-1.9
						c-0.6-3.1-2.9-5.8-1.6-9.2c0.8-2,0.5-4.4,2.6-5.9c1-0.7,0.7-2.1-0.4-2.8c-2.1-1.3-6.7-1.8-5.2,2.1c1.7,3.2,0,4.8-3,5.5
						c-7.1,2.9-16.3,3.9-22.7-1.7c-2.4-2.5-5.1-0.9-7.6-0.3c-1.7,0.4-3.1,1.7-4.7,2.3c-2.2,0.9-1,3.2-1.9,4.5c-2.8,1.4-3.8-3-5.8-4
						c-4-2-3.6-6.6-6.9-9.5c-0.3-2.4,4.3-2.4,2.6-5.7c-2.4,0.6-2.5,3.2-3.9,4.4c-3.1,0.1-6.2,0.1-9.2,0.3c-3.4,0.7-4.2-5.5-7.6-2.1
						c2.5,4.3-0.1,6.7-2.2,10.6l-3.6-7.1l3.5-3c-3.1-1.8-3.8-1.6-5.5,1.2c-9.7-0.8-10.6,0.9-19.2-4.4c0,3.9,2,6.8-2,8.6
						c-5.4,1.7-13.7,6.4-16.4-1.6c2.8-1.1,4.8-3.6,2.6-6.5c-2.4-7.3-5.8,0.2-15.7-2.3c-4.3,0.3-4.8-5-9.4-4.4
						c-1.2-0.1-2.6,0.1-3.5-0.4c-4.8-3-10.5-2-15.6-3.4c-2.3-0.6-5-1.3-7.2-0.5c-1.6,0.7-3.1,1.2-4.6,0.2c-4.7-3.1-9.9-2.9-15.2-2.7
						c-4.3,0.1-8.4-1.4-12.6-0.2c-1.7-1.8-4.2-2.7-6.7-2.5c-1.6,1.2,0.5,3.5-1.8,4.3c-1.9,0.6-2.6-0.8-3.3-2.2
						c-1.9-4.5-5.9-4.4-10.1-5.7c3.4,5.6-1.3,6.2-5.3,9.7c0.3-3,1.9-6.5-1.2-7c-3-0.3-4.6,3.1-3.5,5.6c-6.2,2.6-10,1.7-10.9-2.5
						c0.6-1,3.4-1.4,3.4-2c-0.1-5.8-5.5-6.9-10.2-7.3l0.7-4.2c-2,1.5-3.6,2.3-4.6,3.6c-3.1,4.6-9.8,0.7-9.4,7.9l-5,2.3
						c-1.2-1.3-2.3-2.6-3.4-3.9c1.5-2.3,4.4-4.5,10-7.6c-6.2-3.5-14-6.6-21.2-5.2c-5.1,1.8-7.9-1.1-11.5-4c-2.9,2.1,0.9,4.7,2.2,6.5
						c1.8,2.1-0.7,4-2.5,2.1c-4.1-5-7-7.8-13.6-7.8c-4.9-0.1-10.1-0.6-12.3,5.2c-0.8-0.3-1.5-0.3-1.7-0.6c-2.8-4.1-6.9-4.5-11.1-4
						c-3,0.4-5.7,0.6-8.3-1.8c-1-0.9-3.1-0.4-4.6-0.7c-2.1-0.4-2.1,1.7-3.2,2.6c-3.3-1.7-6.3-5.2-10.1-5.3c-5.1,0.6-9.9-1.6-15-1.6
						c-2,5.5-3.4,2.7-4.7,5.5c-2,5.5-8.6,4.7-13.2,6.1c-3.7,0.5-4.9-1-3.8-4.7c0.5-1.9,0.6-3.4-1-4.9c-1.5-1.9-3.2-5.6-6-3.6
						c-3.3,2.7-3,0.1-5.8-1.2c-1.3,2.6-1.9,5,1.2,7.5l-4,2.1c-2.4-12.2-10.4-10-19.6-8.5c-1.3,0.6-2.4,2.4-4.2,2.6
						c-0.9-2.2,0.8-3,1.5-4.2c3.6-8.1-12.4-4.7-13.6,1.1c-0.7,1.6-1.6,3.6-4.4,3.4c-0.4-2,0.8-5-1.9-5.4c-1.5-0.3-3.1,0.6-3.4,2.2
						c0,0,0,0,0,0c0,9.2-7.8,5.6-11.2,0c1.9-0.8,3.6-1.4,5.2-2.2c4.3-1.7,5.8-9.2,1.2-11.2c-2.3-0.4-1.4,2.2-2.9,3.3
						c-11.8-8.8-11.2,0.8-19,3.8c-4.6-0.3-4.6-0.3-5.4,4c-1.4,1.1-2.8,1.4-4.6,2.4l-3.4-3.4c2.5-3.3,7-3.9,8.2-8.1
						c-3-3.6-9.1,0.6-10.6-4.9c-0.4-0.7-1-1.2-1.8-1.3c-3.2,1-7.8,0.2-9.8,2.9c2.5,2.3,5.5,3.9,6.1,7.6c0.8,3.3,0.8,3.6-3.3,4.3
						c-0.7-1.9,1.2-5-1.3-5.8c-5.7-1.1-5.4,5-2.4,8.1c-6.1,4-9.1-2.2-12.9-5.6c0-2.1-0.5-4.2-1.3-6.2l2.9-1.8
						c-0.1,1.7-0.2,2.9-0.3,4.6c1.7,0.1,3.5,0.1,5.2,0.1c3.3-0.2,3.9-6,0.5-6.5c-4.6-1.3-10.1,1-13.3-3.9c-1.7-2.6-4.4,1.4-6.6,1.4
						c-2.4,0.4-5,0-6,3.1c-4-2.4-6.1-5.7-11.2-4.3c-1.3,0.4-2.8-0.2-3.4-1.4c-3.3-4.3-10.4,0.3-14.2,2.5l-4.6-4.5l2.3-2.9
						c-1.5-1.5-3,0.5-4.7,0.9c-3.3-9.6-5.6,5.6-19.4-0.6c-12-0.6-24.2-4.2-36.2-5.1c-3,0.4-4.1,0.2-6.3-3.2l6.3-8
						c-2.3-2.4-4.1-8-8.6-5.7c-3.5,0.3-7.6,0.5-4,4.7c5.7,8.8-7.3,16.5-15.2,14.3c-1.5-0.2-2.8-1.1-3.5-2.3c-0.8-1.1-1.7-2.1-2.7-3
						c-3.8-3.8,6.3-7.3,8.5-10.1c-2.1-2.5-4.8-1.2-7.2-1.7c-2-3.2,1.7-3.3,2.3-5.5c-4.3-0.3-7.9,1.3-11.6,2.8
						c-4.6,1.5-1.2,6.4-0.4,9.6c1.4,5.7-8.7,8.6-13.1,7c-3.6-1-4.2-5-8.3-5.5c0.6-2.4,1.2-4.5,1.8-6.7c5.4,2.6,5.4,2.6,9.7-1.7
						c-2.1-4-6.8-1.5-10-4c3-2.9,7-4.5,11.1-4.7c-3.7-3.4-8.9,0.5-11.7-4.7c-1.9-3.3-4.3,0.6-6.7,1.3c-6.6,1,1.9,9.8-7.6,9
						c-1.5-2.8,1.6-2.9,2.6-4.5c-1.8-1.7-5.2-2.4-2.9-6.5l-6.9,1.3c1.4-3.5,4.4-4,6.1-6.1l-1.5-4c-4.1-0.9-2.1,5.7-7,4.6
						c-1.9-0.2-3.1,0.9-4.3,2.4c-3.8,4.3-11.2,1.1-15-2c-0.2-3.3,1-6.4-0.6-9.4c-0.5-1.1,0.1-2.7,0-4.1c-0.2-4.7-1.8-5.6-6.2-4.4
						c-6.7,1.1-13.1,3.6-20,2c6.6-7.6,7.3,1.5,11.8-5c-1.1-5.8-15.1-0.4-20-3.1c-3-0.8-5.4,1-7.9,2.7c-0.5-1.3-1-2.4-1.5-3.8
						c-6.7,2.4-13.4-4-8.3-5.3c5,0.2,5.2,0,5.6-5.2c0.5-4.8,2.7-7.1-3.5-9.6c-0.7,1-1.5,2.1-2.1,3.2c-2.4,6.2-9.3,0.3-14.2-0.1
						l-0.4-3.2c-3.7-1.5-2.5,5.3-6.5,4c-5.2-2.7-28.7,4.4-25.3-5.2c1.8-2.6,4-4.8,7.5-5c10.1,1.2,5.2-7.4,11.4-3.9
						c2.2,1.2,4.3,2.9,7,1.8l4.8-11.1c-4.9-1.6-8.8-0.8-11.6,3c-2.1,2.9-5.3,2.1-7.9,3.2c-2.9,1.2-6.1,0.3-8.1-2
						c-2.1-2.4-4.7-0.7-6.8,0.9c-8.1,4,2.4,11.8-7,14.3c-4.4-0.3-15.5,3-17.7-1.3c-2.3-9.2-11.3,4.3-10.1-5.7
						c1.1-3.2-1.5-3.5-3.1-5.2l5.5,0.1c-0.4,9,17.6,5.9,22.7,3.8c-2.4-3.2-5.7-4-8.8-5.5l-0.1-3l-4.1-2l0.2-1c0.8,0,1.8-0.3,2.4,0
						c3.1,1.6,11.2,0.6,10-4.1c-3.3-0.6-6.3-1.7-7.4-5.6l4.4-6c-0.3-0.3-0.5-0.7-0.7-0.7c-6.9,1.3-9.5-4-15.1-6.1
						c-4.9-0.6-4.4-2.7-5.1-7c-3.1-2.3-6.2,0.5-9.6,0.4l-2.4-7.2c1.4-1.6,3.9-3.3,1.5-5.3c-4.2-3.3,1.3-8-2.3-11.2
						c-2.7-2.7,1.3-6.6,4.3-6.5c2.7,0.1,4.6-0.8,5.9-3.6c0.7,3.3,3.5,3.6,5.4,5.1c2.1,2.1,7.2-1.1,4.8-3.5c-3.1-3.1-5.4-7.3-9.6-9.2
						c-1.5-0.7-1.6-2.1-1.8-3.4c-0.4-2.2-1.3-4-4.2-3.4c-0.5-3.5-2.7-4.5-5.6-4c2-11.4,10.8-0.2,11-7.3c1.1-5.4,7.1-3.7,11.6-5.1
						l-2.8-3.5l3.7-2.9c-0.2-0.8-0.5-1.7-1-3.2c5.5-1.6,10.6,0.2,15.9-2.1c2.9-1.6,4.6,2.2,6.6,4.3c1-0.7,2-1.6,2.8-2.6
						c3.4,0.2,6.6,3.6,10,2.7c6.1-3.6,12.5-5.8,19-8.8c2.6,1.5,4.4,3.3,3.3,6.9c-1.6,6.4,8.3,9.6,10.1-2.6c2-0.5,6.7-0.2,8.5-1.9
						c3.2-8.6,12.9,0.6,16-7c2-2.3,5.8-1.5,6.5-5.3c2-5.2,8.3-5.4,12.6-7.7c1.6-0.6,1.8-0.5,4.3,0.5c-1.8,3.6-5.6,3.9-8.9,4.5
						c-5.5,2.4,0.8,10.8,3.9,1l3.2,1.9c5.9-1.6,12.1-0.7,17.3-4.6c3.6-2.1,7.8-3.4,11.9-2.2c1.3,4.5-3.5,9.7,1.4,13
						c4.3-0.9,7.9-2.6,7.6-7.5c3.1-1.3,5.6,0.5,8.4,1.2c1.2-4.6-4.1-3.1-7.1-3.7c0.5-4.2,5.1-3.4,8.2-4.4c3,1.3,3.1,6.4,7.6,4.3
						c8.4-1.9,17-2,24.9-6c2.8-1,6.3-0.5,9.4-1l0.2-0.9l-3.3-2.3c1.3-5.5,6.8-7.6,14-5.3l-7.7,3.1l5.6,4.2l0.5,1.3
						c3.9-7.9,9.5,2.2,12.8-6.9L48.9-109.5l-1.8,2.2l0.4,0.8l3.5-0.3l0.2-0.8L48.9-109.5z M-166.3-65.5l1.8-3.5
						c-4.8-0.7-5.8-0.4-7.9,1.7c1.8,1.9,4.1,1.5,6.3,1.7c-1.6,4.2-7.4,0-9.2,4.2c1.8,2.5,9.6-0.1,11-2.3L-166.3-65.5z M1070.4,139.5
						c3.2,6.7,8.5,5.1,14,6.8c2.5,1.1,3.3,1,4.4-1.2c2-3.1-1.6-4.2-3.7-6.1l8.9-8c-4.8-2.5-8.6-7.4-13.6-3.2
						c1.8,3.6,1.8,3.6-1.4,5.8C1076.2,135.7,1073.3,137.6,1070.4,139.5L1070.4,139.5z M1100.6,104.4c0.7-0.3,1.4-0.6,2.1-0.9
						c1.1-0.2,2.3-0.4,2.2-1.9c-0.1-2.9-4.5-2-5.8-0.8c-1.8,2.4-4.9,1.3-7.4,1.7c-2.2-0.1-2.6,1.7-3.1,3.2c-0.6,3.2,3.8,3.7,5.8,5.8
						l-3.2,1.4c0.4,2,0.8,3.8,1.2,6.3c5.7-3.5,12.3-5.2,13.5-12.5L1100.6,104.4z M1035.9,102c1.7,3.8,3.4,8.1,8.3,5.4
						c-6-4.1,8.5-12.8-9.8-15.8c-6.6,0.1,0.8,8.6-7.8,12.4c1.8,2.1,3.8,5.6,6.9,3.9c2-1.4-0.6-3,0.2-4.7L1035.9,102z M1041.5,77.8
						c9.4,1.5,7.1-10.4,0.6-11.3c-2.4-0.4-4.5-0.5-6.1-3c-2.8-3.4-7.5,2.7-3.7,4.7C1036.2,70.2,1037.8,75.9,1041.5,77.8z
						 M-144.7,14.4c-2.8,5.3-6.2,6.8-11.7,7.4c-2.7,0.2-4.6,3.7-4,6c3.1,1.2,6.1-2.1,9.5-1c3.3,0.8,1.9-4.3,4.9-4.2
						c1.6-0.2,3.1-1.5,2.8-3c-1.2-5.4,2.4-4.7,4.6-7.4C-139.9,5.6-149.4,7.9-144.7,14.4z M1071.3,207.7l5,2.5
						c1.5-4.4-2.7-7.4-5.9-5.4c-3,2.9-6.9-0.1-10,2.2c-1.9,1.4-3.1,8.2-2.1,10.5C1060.3,222.6,1070.2,210.7,1071.3,207.7
						L1071.3,207.7z M532.7-64.5c-3.5,16.8,0.9,8.2,11.3,7.2c1,0.1,2-0.9,3-1.3C545.2-63.8,537.5-66.9,532.7-64.5z M1075.1,104.3
						c-3-0.3-7-0.2-7.6,3.7c-1.9,4.6,14.1,12.1,12.2,3.8C1078.8,108.7,1079.1,104.7,1075.1,104.3z M1120.3,87.7
						c0.2,6.2,1.9,13.1,9.2,13.1c4.3,0.4,5.1-0.4,4.5-5.3c-0.9-0.1-1.8-0.1-2.7-0.1C1125.9,96.5,1127.5,88,1120.3,87.7L1120.3,87.7z
						 M1057.5,83.4c0.5,1.2,0.6,1.9,0.9,2c3,1.2,2.4,4.6,3.6,7c5.8,5.9,8.2-1.9,10-6.8C1066.8,86.9,1062.4,85.4,1057.5,83.4
						L1057.5,83.4z M-81.4,58.5c2,3.5,5.9,8.9,9.9,5.4C-68.2,58.4-75.3,51.5-81.4,58.5z M1058.4,229.9c-5.7-1.3-11.3,3.7-7.7,8.2
						C1054,239.8,1064,233.2,1058.4,229.9z M-159.3-69.9c1.3,3.4-0.9,8.4,4,7.3c3-0.3,6.4-1.5,6.3-5.1
						C-151-70.7-155.8-69.3-159.3-69.9z M84.1,122.3c3.6,0.6,7.4-4,3.3-6c-2.8-0.6-6.6-3.6-9.1-1.6
						C78.3,117.8,81.5,120.6,84.1,122.3z M1115,95.6c-3.5-1.3-6.5,3.6-3.7,5.6c3.3,0.8,0.8,3.9,3.3,4.9c2-0.4,2.3-2.6,2.9-4.2
						C1119.6,98.3,1118.8,96.4,1115,95.6z M194.2,125.8c-6.4-1.3-3.6-4.5-7.4-4.6c-0.7,0.3-1.1,1-1.1,1.8c1.4,4-2.6,5.4-1.9,9.3
						C188.8,131.9,190.8,127.6,194.2,125.8z M1017.2,102c2.4-5.3-3.8-4.1-4.3-6.9c1.1-1.3,2.2-2.6,3.3-3.9c-3.4-3-5.8,5.2-8.1,7.3
						c0.5,3.7,5.5,6,6.6,1.2L1017.2,102z M982.6,85.8c10.7,2,1.1-14.3-3.6-6.1C977,82.5,980.8,84.8,982.6,85.8z M-93.1,42.5
						c1.6-1,2.9-1.8,1.2-3.9c-0.8-1.9-1.4-4.4-3.7-5.1c-1.6-0.1-3.1,2.9-4.4,3.3c-2.8,0.5-2,2.3-1.7,4.2
						C-98.7,40.4-95.5,38.8-93.1,42.5z M1123.2,103.3c-1.7,3.2,3.5,11.6,7,7.7C1136.2,107,1126.4,104.9,1123.2,103.3z M1056.8,116.1
						c4.2,1.6,7.4-3.4,4.3-6.3c-1.6-1-7.7-5.4-7-1C1057.1,111.6,1058.5,111.6,1056.8,116.1z M962.1,90.1c1.9-5.3-3.6-12.1-6.9-6
						C954.4,87.9,959.4,88.3,962.1,90.1z M-42.7-96.3c-4.6,1.8-6.6,12.1-0.2,10.4C-43.7-91.3-39.5-89.9-42.7-96.3z M522.8-79.1
						c-1.8,1.6-1.8,3.4-0.7,4c2.6,1.4,3.9,6.2,8.2,3.8C531.9-78.8,525.3-73.4,522.8-79.1z M410.5-80.6c-1.6-8-8.4,0-13.2-0.7v0.9
						C401.9-79.5,405.9-78.4,410.5-80.6z M-174.2-44.6c2.8,0.5,5.2,0.7,6.7,2.9c1.8,1,5.9-1.1,6-3.3
						C-166.1-45.4-171.3-50.1-174.2-44.6L-174.2-44.6z M553.5-65.9c3.6,5.4,7,3.9,8.3-1.8C558.5-69.9,556.2-68.2,553.5-65.9z
						 M1020.2,98.7c5.1,4.9,7.7-0.4,8.5-5.2C1025.3,94.7,1022.3,95.6,1020.2,98.7z M456.3-76.2c0.9-6.7-6.2-3.1-10.1-3.2
						C447.4-75.3,452.7-77.4,456.3-76.2z M-183.9-18.5c8.8,5.3,14.7-6,6-3.7C-179.9-21-181.4-20.1-183.9-18.5z M-76.6,53.7l-0.2-0.9
						c-14.2-2.3-11.6,7.6-7.1,4.1C-82,53.9-79,55.3-76.6,53.7z M-164-35.4l2.7,1.3c1.3-3.2,6.3-6.3,4.3-9.3
						C-162.8-43.9-160.8-38-164-35.4z M803.8,233.5c2.2,3.7,6,4.1,8.5,1.1C809.2,231.6,807.8,231.4,803.8,233.5z M-3.1,87.3
						c1.3-10-9.4-1-2.5,2.6C-3.5,90.3-3.4,88.6-3.1,87.3z M600.7-45.2c2.6,1.8,6.5,0.2,5-3.1C602.4-51.7,600-49.2,600.7-45.2z
						 M1003.5,89c2.1-1.2,5.6-1,4.5-4.1c-0.4-1.6-2.1-2.6-3.7-2.1c0,0-0.1,0-0.1,0C1001.1,83.6,1002.8,86.8,1003.5,89z M1086.2,93.3
						c1.5,0.3,3-0.6,3.4-2.1c0.3-1.5-0.6-3-2.1-3.4l0,0C1083.8,87,1082.6,92.6,1086.2,93.3L1086.2,93.3z M1025.2,170.7
						c4,1.6,12-1.6,6.1-4.6C1029,167.2,1026.9,168.8,1025.2,170.7L1025.2,170.7z M563.9-57.6c-1.8-3.2-2.7-3.5-4.1-2
						c-1.9,1.8-4.1,5.3-1,7C561.4-54.8,558.4-58.8,563.9-57.6z M-61.8-86c-2.3,1.1-4,4.4,0.1,5.1C-58-80.2-57.9-85.6-61.8-86z
						 M1072.1,176.6c-2.4,0-2.6,5.6-0.3,6.1C1075.5,183.3,1075.3,176.9,1072.1,176.6z M748.7,212.4c-2.1-0.6-5.2-0.6-5.9,1.6
						C744.1,217.6,747.9,217.7,748.7,212.4z M1111.2,203.2c1.1-3.7-4.2-4.6-4.9-0.9C1105.6,205.5,1110.9,206.6,1111.2,203.2z
						 M794.3-9.4l-0.2-1.3c-3.1,0.1-9.6-1.9-6.9,3.9L794.3-9.4z M-90.7,61.5l0.8,4.4C-81.7,66.5-83.4,61.7-90.7,61.5z M943.8,84.6
						c0.7,2,1.2,3.7,1.8,5.3C950.7,88.3,948.1,83.1,943.8,84.6L943.8,84.6z M303.6,160.9c3.3,0.8,4.9-4.5,1.6-5.1
						C302.7,155.3,301.8,159.4,303.6,160.9z M1043.4,203.3c-2.6-1.1-4.7-3.6-7.2-2.9C1033.4,205.3,1040.3,203.8,1043.4,203.3z
						 M943.2,241.9c5.9-0.1,5.4-5.3,0.2-4.6C943.3,238.7,943.3,240.1,943.2,241.9z M33,103.7c-2.2-3.1-5.6-3-7.7,0.3L33,103.7z
						 M299.4,139.2c2,0.9,3.6,2.8,5.5,2.3C307.1,136.7,302.5,136.8,299.4,139.2L299.4,139.2z M977.1,146.8c-3.3,1.6-3.5,4.8-1,6.4
						C978.3,151.6,977,149.6,977.1,146.8L977.1,146.8z M-46.7,93.2c2.2,0.1,3.8,0.3,5.3,0.2C-38,90.6-44.3,88.8-46.7,93.2z
						 M576.9,181.5c-2.8,2.9,2.3,6.9,3.9,2.9L576.9,181.5z M410.9,154.5c3,0.5,4.5,2,6.6,0C416.2,151.3,413.5,152.4,410.9,154.5
						L410.9,154.5z M353.2-82.3c-4.5-1-5.2-0.7-6.5,2.6C349.2-79.3,351-80.2,353.2-82.3z M450.2,172.5c2.4,1.7,3,4.3,6,2
						C454.3,173.2,453.6,170.4,450.2,172.5L450.2,172.5z M-124.9,47.9c2.8-1.9,2.6-2.5,1.2-4.9C-126.6,44.2-126.3,45-124.9,47.9z
						 M-12.4-84.7c-2.1-1.4-3.4-2.2-5.4-3.5c-0.1,1.9-0.2,3-0.3,4.7L-12.4-84.7z M82.8-97.7c1.9,1.3,3.8,1.7,6-0.3
						C86.6-99.6,84.7-99.2,82.8-97.7L82.8-97.7z M121.7,116.4c-3.1-1.9-7.2,2.2-3.1,3.6L121.7,116.4z M280.6,143.6
						c-3.5-0.4-4.2,0.2-5,4C278.4,147.9,278.9,145.4,280.6,143.6z M553.1,183.5c1.9-1.9,4.4-3.1,1.5-4.8
						C552.1,179.7,551.3,180.5,553.1,183.5z M1011.5,246.8c0.2,1.9,0.5,3.6,0.8,6.2c1-1.3,1.8-1.9,1.8-2.3
						C1013.8,249.2,1014.1,247.3,1011.5,246.8z M132.2,120.8l0.2-0.9l-3.5-2.9c-0.9,1.9-0.7,2.2-0.2,4.2L132.2,120.8z M-23-80.7
						l1.1-0.4c0.3-1.8,0.2-3.2-1.5-4.2C-25-83.6-24.5-82.3-23-80.7z M1025.7,150.9c-0.8-0.9-1.8-1.7-2.8-2.4
						C1019.7,149.4,1022.2,154.1,1025.7,150.9z M-39.4,66.1c-2,1.5-1.4,5.4,1.3,4.1C-37.1,68.5-37.9,67.3-39.4,66.1z M-190.7-51.9
						c2.1-1,1.9-4.8-0.7-4C-193-54.6-192.1-52.9-190.7-51.9L-190.7-51.9z M848.3,19.3c-3.9,1.4-4.1,1.7-3.8,4.4
						C846.4,23,847.9,21.4,848.3,19.3L848.3,19.3z M-144.5,26.4c2.9,2.6,2.9,2.6,4.6,0H-144.5z M254.7-82.8
						c-2.2,1.5-2.3,2.4-0.6,3.8C256.3-79.3,255.8-81,254.7-82.8z M-26,78.6l-1.1-0.5c-1.1,1.5-2,2.8-0.7,4.5
						C-25.8,81.9-25.9,80.4-26,78.6z M508.6,175.7c-1.6,1.7-2.5,2.3-0.7,4C509.8,178.5,510.1,178.1,508.6,175.7L508.6,175.7z
						 M-14.3,93.7c-1.2-1.8-2.3-2.4-3.3-0.6C-17.4,95.2-16,95-14.3,93.7L-14.3,93.7z M-165.5-57.4c-1.6-1.5-2-2.8-3.8-1.3
						C-168.1-56.9-168-56.1-165.5-57.4z M140.1-101.1c-0.8,0.7-1.4,1.1-1.7,1.7c0.4,1.8,1.8,1.3,2.9,0.2L140.1-101.1z M1068.3,226.6
						c1.8-1.6,2-2.1,0.8-3.9C1067.1,223.8,1067.1,224.4,1068.3,226.6z M-111.8,48.4c-0.6-0.8-1-1.8-1.6-1.9
						c-1.9,0.3-1.8,1.9-0.6,3.2L-111.8,48.4z M1050.8,133.4c-2.8-2.6-5-0.3-2.8,2.4L1050.8,133.4z M615-40.4c-2.2,1.9-1.3,2.2,0,3.8
						C617.1-37.8,615.9-38.6,615-40.4z M248.3,135.9c0.7-0.5,1.2-1.2,1.7-1.9c-0.5-1.7-1.9-1.2-3.1-0.3L248.3,135.9z M1061.3,152.3
						c-2.3-0.9-3.9-1.2-5.9-0.3C1058.3,153.2,1058.3,153.2,1061.3,152.3L1061.3,152.3z M938,240.2c-1.8-1.5-3.2-1.9-5.4-0.8
						C934.4,240.8,935.9,241.2,938,240.2z M22.6-98.9c2.2,1.2,2.2,1.2,4.2,0.3C25.6-100.4,24.4-100.7,22.6-98.9z M1064.5,241.4
						c-1.5-1.2-2.7-2.6-3.5-0.5C1062,242.6,1062.6,243,1064.5,241.4z M1072.7,64.2c1.7,1.8,1.7,1.8,4.5,0.8L1072.7,64.2z
						 M1071.1,194.8c2.5-1.2,2.5-1.2,0.9-3.4C1071.6,192.8,1071.3,193.8,1071.1,194.8z M585.4,197.2l-0.9-0.7
						c-1.1,1.2-0.5,2.2,0.2,3.4C586.5,199.4,585.8,198.4,585.4,197.2L585.4,197.2z M880,249.7c1.2,0.8,2.4,2,3.8,0.1
						C882.6,248.2,881.3,248.6,880,249.7z M1059.2,246.5c-0.9-1.5-1.8-2.2-2.6-0.6C1056.7,247.6,1057.7,247.6,1059.2,246.5
						L1059.2,246.5z M-81.3,15.1c-1.2,1.8-1.5,2.2-0.1,3.5C-79.9,17.3-80.1,16.9-81.3,15.1z M128,126.1l0.1,1.2
						c1.1,1.1,2,0.7,3.6-1.2L128,126.1z M996.8,156.9c-1.8,1.5-0.8,1.9,0.2,3.2C998.9,159,997.9,158.4,996.8,156.9L996.8,156.9z
						 M100.1-99.2c-0.8-1.9-1.2-1.7-2.7-1C97.8-98.4,98.4-98.8,100.1-99.2z M1007.6,253.9l0.8,1.1c1-0.9,2.6-1.1,1.1-2.5
						L1007.6,253.9z M659.9-29.1l2.9,0.5C662.1-30.5,661.2-30.6,659.9-29.1L659.9-29.1z M778.8-5.8c1.3-1.5,1.4-2,0-3.1
						C777.2-7.9,777.5-7.4,778.8-5.8z M1089.8,122.2l0.8,1l1.7-1.8l-0.6-0.7L1089.8,122.2z M385.1,159.3c1.2-1.2,2.2-1.4,0.8-2.8
						C384.7,157.4,384.1,157.5,385.1,159.3z M503.1,176.3c-0.6-1.8-1.2-0.9-2.4-0.5C501.2,177.6,501.8,176.8,503.1,176.3
						L503.1,176.3z M820.1,6.6l1.2-0.5c-0.6-0.7-0.7-2.4-1.9-1.8C819.6,5,819.8,5.8,820.1,6.6z M-91.9-80.3c1.2-0.8,1.6-1.6,0.4-2.2
						C-92.9-82.3-92.7-81.4-91.9-80.3z M158.4,132.8l0.8-0.4l-1.1-3l-0.6,0.2L158.4,132.8z M612.7,191.1c-0.9-1.4-1-2.2-2.5-1.4
						C610.7,191.3,610.7,191.8,612.7,191.1z M929.4,208.3c-1-1.7-1.3-0.7-2.4,0C927.6,209.8,928.3,208.8,929.4,208.3z M1104.9,99.7
						c0.9-1.5,1.3-1.9,0.4-3.2C1103.3,97.4,1103.5,97.1,1104.9,99.7z M1069.7,249.1c-0.4-1.4-1.2-1.8-2-0.9c0.1,0.6,0.3,1.1,0.6,1.6
						L1069.7,249.1z M1079.8,119.1c-0.6-1.3-0.8-2.2-1.9-1.6C1077.6,119,1078.1,119,1079.8,119.1L1079.8,119.1z M-49.2,79.4
						c-0.8,0.7-0.8,1-0.1,1.7l0.9-0.9L-49.2,79.4z M1083.8,194l-1.5-1.7C1080.4,193.7,1081.9,194.6,1083.8,194z M446.7,168.6
						l-1.1-1.4l-1.6,1.7l0.8,0.9L446.7,168.6z M1078.2,225.1c-1-1.2-1-1.4-2-0.6C1076.7,225.5,1077,225.6,1078.2,225.1L1078.2,225.1
						z M-121.4-46.5l0.5-0.5l-1.1-1.3l-0.5,0.5C-122.1-47.3-121.8-46.9-121.4-46.5z M50.7-104c-0.8,0.9-1,1.4-0.2,2
						C51.8-102.2,51.2-103,50.7-104z M498.6,170.7c-0.9,1.6-1.5,1.6-0.4,2.5C499.1,172.4,499,172.2,498.6,170.7z M1024,172.6
						l0.5-0.5c-0.5-0.5-1.3-0.7-2-0.3C1022.8,172.6,1023.2,172.9,1024,172.6z M95.1-97.6c-0.9-0.3-1.2-0.8-1.8,0
						C93.9-96.6,94.2-96.9,95.1-97.6z M-99.6,29.9c-0.6-0.9-0.9-1.1-1.7-0.5C-100.8,30.3-100.7,30.8-99.6,29.9z M15.1,81.3
						c-0.8-0.4-1.4-0.8-1.7,0C13.9,82.4,14.2,82.2,15.1,81.3z M461.8-80.1l0.9-0.9c-0.6-0.9-1-0.7-1.6,0L461.8-80.1z M-184.2-62.7
						c-0.6-0.6-1-1.3-1.6-0.6C-185.6-62.2-185.3-62.2-184.2-62.7z M-181.8-45.2l0.6-0.3c-0.5-0.4-0.8-0.7-1.2,0
						C-182.2-45.4-182-45.3-181.8-45.2z M359-80.5l0.8-0.3C359.5-82.2,358.4-81.7,359-80.5z M337.1-100.6c-0.6,0-0.8,0.2-0.6,0.8
						l1-0.2L337.1-100.6z"/>
					<path class="st6" d="M850.2,253.8c-5-0.6-8.5-2.3-9.6-7.3C843.5,243,849.3,251.1,850.2,253.8z"/>
					<path class="st6" d="M621.5,214.5c1.8,0.6,6.9,5.4,3.8,7.1C623.3,222.8,616.8,214.4,621.5,214.5z"/>
					<path class="st6" d="M841,260c-0.7,4.5-8-4.3-6.1-5.8C837.3,251.6,840.8,258.2,841,260z"/>
					<path class="st6" d="M354.5,172.2c-1.9-0.1-3.8,0.1-4.2-2.3c1.9-1.6,3.1-0.1,4.7,1L354.5,172.2z"/>
					<path class="st6" d="M12.1,108.4l0.6,0.5C12.1,110.2,11.2,109.4,12.1,108.4z"/>
					<path class="st6" d="M342.8,176.1l-0.3-0.6c0.5-0.4,0.8-0.3,1,0.4L342.8,176.1z"/>
					<path class="st6" d="M346.1,179.9c-0.2-0.6-0.4-0.9-0.5-1.2C346.9,178,347.3,179.1,346.1,179.9z"/>
				</g>
				<g class="st7">
					<path class="st8" d="M850.4-7.4H-8.7v193.5c190.8,338.2,677,329.5,859.2-13.1V-7.4z"/>
					<g class="st9">
						<path class="st10" d="M11.8,217c21.7,31.4,47,60.3,75.2,86c28.1,25.5,59.1,47.7,92.4,66c16.6,9.1,33.7,17.3,51.2,24.5
							c17.5,7.2,35.4,13.3,53.7,18.4c9.1,2.5,18.3,4.8,27.5,6.8c2.3,0.6,4.6,1,6.9,1.5l7,1.4c2.3,0.5,4.6,0.9,7,1.3l7,1.2
							c18.7,3,37.5,5,56.4,5.8c18.9,0.8,37.8,0.6,56.6-0.6c18.9-1.3,37.6-3.7,56.2-7.1c18.6-3.4,36.9-7.9,55-13.5
							c18.1-5.6,35.8-12.3,53.1-20c17.3-7.7,34.1-16.4,50.4-26.2c16.3-9.7,32-20.4,47-32c30.1-23.4,57.4-50.2,81.4-79.9l0.8,0.6
							c-22.3,31.4-48.5,59.8-78,84.4c-14.8,12.3-30.4,23.7-46.7,34.1c-16.4,10.4-33.4,19.7-50.9,27.9c-17.5,8.2-35.5,15.4-53.9,21.3
							c-18.4,6-37.1,10.8-56.1,14.5c-19,3.6-38.2,6.2-57.6,7.5c-19.3,1.4-38.7,1.6-58,0.6c-77.3-3.8-153.7-26-220.4-64.9
							c-33.4-19.4-64.2-42.8-91.8-69.8C55.7,280.1,31.8,249.8,11.8,217z"/>
					</g>
				</g>
			</g>
		</g>
	</g>
</g>
</svg>
