<?xml version="1.0" encoding="utf-8"?>
<!-- Generator: Adobe Illustrator 25.2.0, SVG Export Plug-In . SVG Version: 6.00 Build 0)  -->
<svg version="1.1" id="Capa_1" xmlns="http://www.w3.org/2000/svg" xmlns:xlink="http://www.w3.org/1999/xlink" x="0px" y="0px"
	 viewBox="0 0 65.2 61.2" style="enable-background:new 0 0 65.2 61.2;" xml:space="preserve">
<style type="text/css">
	.st0{fill:#FFFFFF;}
</style>
<g>
	<g id="GRAF_1">
		<path class="st0" d="M20.5,5.1V2.5c0-0.7,0.2-1.3,1-1.3s1,0.6,1,1.3v10.4c0,1.1,0,1.1,1,0.6c5-2.6,11.2-1.5,15,2.6
			c0.1,0.1,0.2,0.2,0.3,0.2c0.4-1.2,0.5-2.5,0.5-3.7c0-2.1,0.5-4.2,1.6-6.1c1.7-2.9,4.1-4.9,7.7-4.7c3.5,0.2,5.6,2.3,7.1,5.2
			c1,2.1,1.4,4.4,1.4,6.8c0.1,3.5,1.5,6.9,3.9,9.5c4.5,4.9,5,10.6,3.2,16.7c-0.8,2.9-2.5,5.5-4.7,7.5c0,0.3,0.2,0.3,0.4,0.3
			c3.5,1.1,5.4,4,5,7.4c-0.5,3.3-3.3,5.7-6.7,5.7h-0.3c-10.3,0-20.5,0.1-30.8,0c-4,0.1-7.7-2.4-9.2-6.1c-0.3-0.7-0.6-0.8-1.2-0.6
			c-1.9,0.5-3.7,1.6-5.1,3c-0.8,1-2.2,1.5-3.5,1.1c-1.7-0.5-2.7-2.2-2.2-3.9C6,54.3,6.1,54,6.3,53.7c0.3-0.5,0.8-1,1.3-1.6
			C6.3,52,5,51.8,3.8,51.7c-1.4,0-2.7-0.7-3.4-2c-0.5-1-0.4-2.3,0.3-3.2c0.7-1,1.9-1.6,3.1-1.4c0.6,0,1.3,0.1,1.9,0.2
			c0.2,0,0.4,0.2,0.5,0s0-0.4-0.2-0.6c-1.1-2-2.1-3.9-3.2-5.9C0.8,35.2-0.2,31.1,0.1,27c0.1-0.8,0.2-1.6,0.4-2.4
			c0.1-0.5,0.6-0.9,1.1-0.9c0,0,0,0,0.1,0c0.7,0.1,0.9,0.6,0.8,1.2s-0.1,1.1-0.2,1.7C1.8,30.3,2.6,33.9,4.3,37
			c0.9,1.7,1.8,3.3,2.7,4.9c0.3,0,0.3-0.2,0.4-0.4c0.5-1.2,1.6-2,2.8-2c1.2-0.2,2.5,0.4,3.1,1.5c1.1,1.8,2.6,3.3,4.5,4.3
			c0.5,0.3,0.9,0.3,1.3-0.3c0.9-1.3,2.1-2.3,3.5-3c0.6-0.3,1.3-0.5,1.7,0.3s0,1.3-0.7,1.6c-4,1.9-5.7,6.7-3.7,10.7
			c1.5,3.1,4.9,5,8.3,4.5c0.5-0.1,0.7-0.3,0.7-0.8c0.1-1.3,0.3-2.5,0.4-3.7c0-0.2,0.1-0.4,0.1-0.6c0-0.6,0.5-1,1-1
			c0.1,0,0.1,0,0.2,0c0.5,0.1,0.9,0.6,0.9,1.1c0,0,0,0.1,0,0.1c-0.1,1.3-0.2,2.6-0.4,3.9c-0.1,0.7,0.2,0.9,0.8,0.9
			c0.8,0,1.6,0,2.4,0s1-0.2,1-0.9c0-0.6,0.1-1.2,0.2-1.8c0.1-0.7,0.5-1.3,1.3-1.1s0.9,0.7,0.9,1.4s-0.1,1.1-0.2,1.6s0.1,0.8,0.7,0.8
			c2.5,0,5.1,0,7.6,0c0.5,0,0.7-0.3,0.8-0.8c0.1-0.7,0.1-1.4,0.2-2.1s0.4-1.3,1.2-1.2s1,0.7,0.9,1.3c0,0.4-0.1,0.8-0.1,1.3
			C48.6,59,48.6,59,50.1,59h7.9c2.5,0.1,4.6-1.7,4.7-4.2c0.1-2.2-1.4-4.2-3.6-4.7c-1.7-0.4-1.7-0.4-1.8,1.3
			c-0.1,1.4-0.3,2.8-0.4,4.1c-0.1,1-0.6,1.5-1.3,1.4c-0.9-0.2-1-0.9-0.9-1.7c0.2-1.8,0.4-3.5,0.6-5.3c0.1-0.6-0.1-0.8-0.7-0.9
			c-4.2-1-8.4-1.9-12.6-2.9c-0.6-0.1-0.8,0-0.8,0.6c0,0.5-0.1,0.9-0.2,1.3c-0.1,0.5-0.6,0.9-1.1,0.9c0,0-0.1,0-0.1,0
			c-0.5-0.1-0.9-0.6-0.9-1.1c0,0,0,0,0-0.1c0-0.4,0-0.8,0.1-1.3c0.3-0.9-0.1-1.2-0.9-1.4c-2.4-0.5-4.8-1.1-7.1-1.6
			c-0.6-0.2-0.9,0-1,0.7c-0.1,1.2-0.2,2.4-0.4,3.6c-0.1,0.7-0.4,1.3-1.2,1.2c-0.7,0-1-0.6-0.9-1.5c0.1-1.2,0.3-2.5,0.5-3.7
			c0.1-0.6,0-0.9-0.7-0.9S26,42.6,26,41.8s0.7-1.1,1.6-1c2,0.3,4,0.7,6,1.2c2.2,0.5,2.2,0.5,3.3-1.5c1.5-2.3,2.6-4.7,3.5-7.3
			c1.5-5.7,0.7-11-3.3-15.5c-3.4-3.9-9.2-4.6-13.5-1.6c-1.5,1.1-2.4,1.1-3.7,0.1C15.1,12.8,8.5,14,5.1,18.8
			c-0.3,0.4-0.5,0.8-0.8,1.2c-0.2,0.4-0.5,0.9-0.7,1.3c-0.3,0.6-0.8,1-1.5,0.7S1.5,21,1.7,20.4c1.7-4.2,5.4-7.3,9.9-8.1
			c2.7-0.6,5.5-0.1,7.9,1.2c0.7,0.4,1,0.4,1-0.6c0-1.4,0-1.3-1.4-1.2c-3.6,0.4-6.5-1.1-8.9-3.5c-1.7-1.7-3.1-3.8-4.1-6
			c-0.5-1.1-0.2-1.7,1-1.9c2.3-0.5,4.8-0.5,7.1,0.2c2.3,0.7,4.3,2.1,5.7,4.1c0.1,0.2,0.3,0.3,0.4,0.5L20.5,5.1z M46.5,44.9
			c-2.1-0.5-4-1.5-5.5-3c-0.5-0.5-0.8-1.7-1.5-1.4c-0.5,0.2-0.8,1.2-1.2,1.9c-0.3,0.4-0.3,0.7,0.3,0.8
			C41.3,43.7,43.9,44.5,46.5,44.9c2.9,0.9,5.9,1.4,8.8,2.1c0.9,0.3,1.8,0,2.5-0.6c1.7-1.4,3-3.3,3.8-5.4c2.2-5.7,2.2-11.2-2-16
			c-3.1-3.4-4.7-7.8-4.7-12.4c0-2.3-0.8-4.6-2.3-6.4c-1.8-2.4-5.3-2.9-7.7-1.1c-0.3,0.2-0.5,0.4-0.8,0.7c-1.6,1.6-2.5,3.8-2.6,6.1
			c0,2.1-0.3,4.2-0.8,6.3c-0.1,0.4-0.1,0.8,0.1,1.1c1,1.8,1.7,3.7,2,5.7c0.1,0.8,0.4,0.7,1,0.5c3.8-2,8.4-1.3,11.6,1.6
			c1.6,1.4,2.6,3.2,3.1,5.2c0.2,0.5,0,1.1-0.5,1.3c-0.1,0-0.1,0.1-0.2,0.1c-0.7,0.2-1.1-0.2-1.3-0.8c-0.1-0.3-0.2-0.7-0.3-1
			c-1.6-4.3-6.3-6.4-10.6-4.8c-0.6,0.2-1.1,0.5-1.6,0.8c-0.5,0.3-0.8,0.8-0.8,1.4c0,2.6-0.6,5.1-1.7,7.4c-0.5,0.8-0.4,1.9,0.2,2.6
			c2.5,3.8,7.6,4.8,11.4,2.3c1.5-1,2.6-2.4,3.2-4.1c0.2-0.4,0.3-0.9,0.4-1.3c0.2-0.4,0.6-0.7,1.1-0.6c0.4,0.1,0.7,0.3,0.8,0.7
			c0.1,0.3,0.1,0.7,0,1c-0.6,2.3-2,4.4-4,5.8C52.2,44.6,49.3,45.3,46.5,44.9L46.5,44.9z M3.8,47.2c-1.1,0-1.6,0.3-1.6,1
			s0.6,1.1,1.3,1.2c2.1,0.2,4.3,0.5,6.4,0.7c0.6,0.1,1.2,0.2,1.4,0.9s-0.4,1-0.8,1.4c-0.8,0.6-1.6,1.2-2.2,2
			c-0.5,0.5-0.7,1.1-0.1,1.7c0.4,0.5,1.1,0.5,1.6,0.1c0.1-0.1,0.1-0.1,0.2-0.2c1.7-1.8,3.9-3.1,6.2-3.7c0.5-0.1,0.9-0.6,0.8-1.1
			c0,0,0,0,0,0c-0.1-0.9,0.1-1.7,0.3-2.6c0.2-0.7,0-1.1-0.6-1.4c-2.1-1.1-3.9-2.8-5.2-4.8c-0.4-0.6-0.9-1.2-1.6-0.7
			s-0.6,1.2-0.3,1.9c0.5,0.9,1.2,1.8,1.9,2.6c0.3,0.3,0.4,0.8,0.2,1.3c-0.2,0.4-0.7,0.7-1.1,0.6c-0.3,0-0.6-0.1-0.9-0.1L3.8,47.2z
			 M18.9,9.8c1,0,1.1-0.3,0.4-1.9c-2-4.6-6-6-10.3-5.7C8.3,2.3,8.7,2.7,8.8,2.9c0.9,1.6,2,3.1,3.3,4.3C14,9,16.4,9.9,18.9,9.8
			L18.9,9.8z"/>
	</g>
</g>
</svg>
